<?xml version="1.0" encoding="UTF-8"?>
<svg width="24px" height="24px" viewBox="0 0 24 24" version="1.1" xmlns="http://www.w3.org/2000/svg" xmlns:xlink="http://www.w3.org/1999/xlink">
    <title>icon/24/收起</title>
    <defs>
        <path d="M1.0980277,0.115973881 L1.19497475,0.191711925 L6.79497475,5.42807556 C7.06834175,5.68369146 7.06834175,6.09812672 6.79497475,6.35374262 L6.79497475,6.35374262 L1.19497475,11.5901063 L1.0980277,11.6658443 C0.825212307,11.8425664 0.448018146,11.8173204 0.205025253,11.5901063 C-0.0683417511,11.3344904 -0.0683417511,10.9200551 0.205025253,10.6644392 L0.205025253,10.6644392 L5.31,5.891 L0.205025253,1.11737898 C-0.0683417511,0.861763084 -0.0683417511,0.447327825 0.205025253,0.191711925 C0.448018146,-0.0355022083 0.825212307,-0.0607482232 1.0980277,0.115973881 Z" id="path-1"></path>
    </defs>
    <g id="mindspore-web" stroke="none" stroke-width="1" fill="none" fill-rule="evenodd">
        <g id="文档提示样式" transform="translate(-95.000000, -306.000000)">
            <g id="编组" transform="translate(95.000000, 306.000000)">
                <rect id="矩形" x="0" y="0" width="24" height="24"></rect>
                <g id="颜色/#CB0007" transform="translate(9.000000, 6.000000)">
                    <mask id="mask-2" fill="white">
                        <use xlink:href="#path-1"></use>
                    </mask>
                    <use id="蒙版" fill="#999999" fill-rule="nonzero" xlink:href="#path-1"></use>
                </g>
            </g>
        </g>
    </g>
</svg>