<?xml version="1.0" standalone="no"?><!DOCTYPE svg PUBLIC "-//W3C//DTD SVG 1.1//EN" "http://www.w3.org/Graphics/SVG/1.1/DTD/svg11.dtd"><svg t="1587520145127" class="icon" viewBox="0 0 1024 1024" version="1.1" xmlns="http://www.w3.org/2000/svg" p-id="1903" width="32" height="32" xmlns:xlink="http://www.w3.org/1999/xlink"><defs><style type="text/css"></style></defs><path d="M764.813424 758.279103c12.55699 7.990998 24.532743 16.561188 35.384905 26.291806 31.401174-33.719986 57.07081-72.005964 75.353199-114.296139 17.681708-41.131793 28.537963-85.703941 31.961946-132.561132L757.964436 537.713638l0 2.281973c-0.579191 9.151427-0.579191 18.862603-1.140986 27.433816-0.579191 4.004197-0.579191 7.429203-1.140986 10.852162l0 4.565992c-0.579191 6.28924-1.722224 13.154601-2.28095 20.584827-0.580215 6.288217-1.722224 13.135158-2.282996 19.98517l0 0-0.579191 2.301416c-0.561795 3.984754-1.144056 7.429203-1.701758 10.852162l0 0c-2.285043 17.702174-5.708002 34.281781-9.713222 50.842968-3.985778 16.579607-7.992021 32.577976-13.136182 48.577369l0 0 0 0C739.70149 742.841505 752.259504 750.271732 764.813424 758.279103L764.813424 758.279103zM660.345118 870.273826 660.345118 870.273826c-3.425006 5.146207-7.40976 10.293437-10.833743 14.858406 18.263969-6.868431 35.96512-14.858406 52.505841-24.568559 21.686928-11.434423 41.672098-25.711592 60.515259-41.150212-7.989975-6.287193-16.561188-12.574387-25.692149-18.281365-9.130961-6.28924-18.842137-11.434423-28.535917-16.561188-0.578168 0.560772-0.578168 1.140986-1.140986 1.700735l0 0c0 1.14201-0.578168 2.284019-1.140986 2.864234-5.708002 14.277168-12.555967 27.993564-19.983123 41.129746-7.40976 13.156648-14.838963 25.732058-23.390733 37.144992l0 0L660.345118 870.273826zM537.07049 740.558509l0 165.721369c23.969924-6.868431 46.797839-21.727861 66.785056-44.576241 22.246677-24.568559 42.230824-57.709353 58.211796-97.137341-18.84316-6.868431-39.387056-11.995195-59.935044-16.000416C581.005119 744.56373 559.320237 741.699496 537.07049 740.558509L537.07049 740.558509zM706.583209 537.713638 537.07049 537.713638l0 151.421688c25.673729 1.140986 50.223868 4.00522 74.192769 8.571213 23.409153 4.565992 46.237067 10.853186 67.364247 18.282389 7.990998-26.853601 14.83794-55.42738 19.404955-85.703941C702.595384 601.149413 705.442222 570.292638 706.583209 537.713638L706.583209 537.713638zM611.26326 326.279135c-23.968901 4.584412-48.51904 8.009418-74.192769 9.150404l0 150.86194 169.512718 0c-1.140986-31.999808-3.987824-62.85556-8.550747-92.571349-4.567016-30.296003-11.413957-58.851363-19.404955-85.703941C657.499303 316.006164 634.672412 321.713142 611.26326 326.279135L611.26326 326.279135zM603.855546 162.300456c-19.986193-22.287609-42.815131-37.725206-66.785056-43.99398l0 165.139108c22.249747-1.160429 43.935652-3.443425 65.060785-7.429203 20.547988-4.00522 41.091884-9.712199 59.935044-16.58063C646.085346 220.009809 626.102223 186.870038 603.855546 162.300456L603.855546 162.300456zM736.839303 223.433792c9.131985-6.26775 17.703197-11.995195 25.692149-18.84316-18.84316-15.438621-38.827307-29.155017-60.515259-41.150212-16.539698-9.151427-34.241872-17.140379-52.505841-24.00881 3.423983 4.565992 7.408737 9.150404 10.833743 14.297634l0 0 2.301416 2.842745 0 0.581238c8.55177 11.414981 15.980973 23.427572 23.390733 37.143968l0 0c7.42818 13.136182 14.275121 26.852578 19.983123 41.130769l0 0c0.562818 1.159406 1.140986 1.722224 1.140986 2.281973l0 0c0.562818 0.580215 0.562818 1.160429 1.140986 2.302439C717.997166 234.868215 727.708342 229.160213 736.839303 223.433792L736.839303 223.433792zM757.964436 486.291478l149.549038 0c-3.425006-46.857191-14.280238-91.430362-31.961946-131.999336-18.281365-42.291199-43.952025-81.137948-75.353199-114.27772-10.852162 9.149381-22.827915 17.701151-35.384905 26.290783-12.55392 7.989975-25.110911 15.419178-38.826284 21.706371l0 0.580215 0 0c5.14416 15.419178 9.150404 31.419594 13.136182 48.559972 4.00522 15.997346 7.42818 33.137725 9.713222 50.279127l0 0c0.557702 3.423983 1.139963 6.288217 1.701758 9.151427l0.579191 4.565992 0 0c0.561795 6.287193 1.702782 13.136182 2.282996 20.002566 0.559748 6.848988 1.701758 13.696953 2.28095 20.565385l0 4.00522c0.561795 3.425006 0.561795 6.847965 1.140986 11.414981 0.561795 8.589632 0.561795 17.720593 1.140986 27.431769L757.963413 486.291478zM421.18618 276.017404c20.555152 3.985778 42.244126 6.26775 64.500013 7.429203L485.686193 118.3075c-23.968901 6.268774-46.226834 21.706371-66.781986 43.99398-22.257933 24.568559-41.662889 57.709353-58.21282 97.136318C380.095319 266.305205 400.07128 272.012184 421.18618 276.017404L421.18618 276.017404zM316.736293 486.291478l168.9499 0L485.686193 335.429539c-25.681916-1.140986-50.222845-4.565992-74.201979-9.150404-23.39892-4.565992-45.656853-10.272971-67.352991-18.263969-7.990998 26.853601-14.267958 55.407937-18.834974 85.703941C320.160275 423.435918 317.308321 454.292694 316.736293 486.291478L316.736293 486.291478zM411.484214 697.706539c23.979134-4.565992 48.520063-7.430226 74.201979-8.571213L485.686193 537.713638 316.736293 537.713638c0.571005 32.578999 3.422959 63.435775 8.559956 92.571349 4.565992 30.27656 10.843976 58.850339 18.834974 85.703941C365.827361 708.559725 388.086317 702.272531 411.484214 697.706539L411.484214 697.706539zM418.904207 861.703637c20.555152 22.847357 42.813085 37.70781 66.781986 44.576241L485.686193 740.558509c-22.255887 1.140986-43.944861 4.00522-64.500013 8.008394-21.1149 4.00522-41.09086 9.131985-60.494793 16.000416C377.241318 803.995307 396.646274 837.136102 418.904207 861.703637L418.904207 861.703637zM286.480198 801.132096c-9.130961 5.706979-17.693987 11.995195-26.252921 18.281365 18.832927 15.438621 39.388079 29.715789 60.505026 41.150212 17.120936 9.710153 34.812877 17.700127 53.086056 24.568559-3.994987-4.564969-7.421017-9.711176-11.416004-14.858406l0 0-2.281973-2.863211 0 0c-7.999185-11.412934-15.989159-23.987321-23.408129-37.144992-6.848988-13.136182-13.697977-26.852578-19.974937-41.129746l0 0c-0.572028-1.140986-0.572028-1.722224-1.140986-2.864234l0 0c0-0.559748-0.572028-1.139963-0.572028-1.700735C304.751331 789.697673 295.050388 794.842857 286.480198 801.132096L286.480198 801.132096zM264.791224 537.713638 115.816261 537.713638c2.852978 46.857191 13.697977 91.429339 31.389918 131.999336 18.84316 42.85197 44.524053 81.137948 75.352175 114.857934 11.414981-9.731642 23.400966-18.301831 35.954887-26.291806 11.984962-8.007371 25.112957-15.437597 38.819121-22.286586l0 0 0 0c-5.135974-15.999392-9.711176-31.997762-13.706163-48.577369-3.426029-16.561188-6.848988-33.140795-9.702989-50.842968l0 0c-0.569982-3.423983-1.140986-6.868431-1.710968-10.292414l0-2.862187 0 0c-1.143033-6.850012-1.713015-13.697977-2.854001-19.98517-0.572028-7.430226-1.14201-14.296611-1.713015-20.584827l0 0-0.571005-4.565992c-0.569982-3.423983-0.569982-6.847965-1.14201-10.852162-0.569982-8.571213-0.569982-17.71957-0.569982-26.851555L264.791224 537.713638zM258.51324 266.305205c-12.554944-8.589632-24.539906-17.140379-35.954887-26.290783C191.730231 273.154193 166.049339 312.000943 147.206178 354.292142c-17.692964 40.568974-28.53694 85.143169-31.389918 131.999336l148.975986 0 0.571005-2.302439c0-9.130961 0-18.262946 0.569982-26.852578 0.572028-4.565992 1.14201-7.989975 1.14201-10.853186l0.571005-4.565992 0 0c0.572028-6.868431 1.140986-13.716396 1.713015-20.565385 1.140986-6.866385 1.709945-13.716396 2.854001-20.002566l0 0 0.569982-4.565992c0.572028-2.863211 0.572028-6.306636 1.140986-9.151427l0 0c2.854001-17.141402 6.27696-34.281781 9.702989-50.279127 3.994987-17.140379 8.570189-33.140795 13.706163-48.559972l0 0 0-0.580215C283.626197 281.724383 270.499226 274.29518 258.51324 266.305205L258.51324 266.305205zM362.402355 153.730267 362.402355 153.730267c3.994987-5.146207 7.419993-9.731642 11.416004-14.297634-18.273179 6.867408-35.96512 14.857383-53.086056 24.00881-21.116947 11.995195-41.673122 25.711592-60.505026 41.150212 7.989975 6.847965 17.121959 12.57541 25.692149 18.84316 9.130961 5.726421 18.831904 11.434423 29.104875 16.58063 0-0.580215 0.572028-1.723248 0.572028-2.302439l0 0c0.569982-0.560772 0.569982-1.702782 1.140986-2.281973l0 0c6.27696-14.278191 13.125949-28.555359 19.974937-41.130769 7.41897-13.154601 15.408945-25.730011 23.408129-37.143968l0-0.581238L362.402355 153.730267zM194.01425 194.298218C275.635199 113.160269 387.514289 62.860676 511.377318 62.860676l0 0c123.855866 0 236.31517 50.299593 317.355905 131.437541C909.794423 276.017404 960.018292 387.992685 960.018292 512.002047c0 123.990942-50.223868 236.564857-131.285069 317.703829-81.040734 81.136925-193.500039 131.419122-317.355905 131.419122-123.863029 0-235.742119-50.282197-317.364091-131.419122C112.963283 748.566904 62.730205 635.992989 62.730205 512.002047 62.730205 387.992685 112.963283 276.017404 194.01425 194.298218L194.01425 194.298218z" p-id="1904" fill="#ffffff"></path></svg>