<svg version="1.1" xmlns="http://www.w3.org/2000/svg" width="30" height="32" viewBox="0 0 30 32">
<path fill="#f7f7f7" d="M28.666 17.867c-0.037 0.368-0.096 0.738-0.179 1.109-0.172 0.769-0.432 1.499-0.772 2.186-2.457 4.978-9.048 7.678-15.893 6.157-1.413-0.314-2.74-0.786-3.957-1.386-2.961-1.46-5.271-3.68-6.59-6.228-0.016-0.029-0.030-0.059-0.045-0.088-0.508-1-0.862-2.049-1.045-3.121-0.006-0.034-0.012-0.067-0.018-0.101-0.011-0.073-0.022-0.145-0.031-0.218 0-0.002 0-0.004-0.001-0.005-0.141-1.023-0.124-2.066 0.068-3.105 0.022-0.119 0.045-0.237 0.072-0.356 0.288-1.29 0.789-2.502 1.478-3.593 0.672-1.065 1.522-2.015 2.529-2.81 0.706-0.559 1.489-1.042 2.34-1.436 0.338-0.156 0.687-0.298 1.046-0.426 2.446-0.867 5.369-1.041 8.606-0.253 0.221 0.054 0.443 0.112 0.666 0.174 7.234 2.028 12.335 7.569 11.727 13.498z"></path>
<path fill="#36f" d="M12.972 27.809c-0.121-2.265 1.203-4.207 3.002-4.403 2.671-0.291 5.337 1.881 5.754 4.686-0.014 0.013-0.029 0.026-0.043 0.039l-0.030 0.021c-0.668 0.091-1.348 0.306-2.002 0.246-1.189-0.108-1.457 0.338-1.552 1.488-0.104 1.249 0.645 1.192 1.38 1.364 0.398 0.093 0.691 0.298 0.716 0.751-0.253-0.045-0.504-0.099-0.758-0.134-1.904-0.266-2.324-1.342-1.655-3.013 0.116-0.289 0.056-0.371-0.285-0.409-1.48-0.166-2.955-0.38-4.432-0.576l-0.018-0.010c-0.025-0.017-0.050-0.033-0.076-0.049z"></path>
<path fill="#030305" d="M1.787 12.070c-0.016 0.011-0.035 0.019-0.055 0.023-0.634 0.106-1.18 0.468-1.53 0.975 0.022-0.119 0.045-0.237 0.072-0.356 0.272-1.221 0.736-2.372 1.369-3.417l-0.001 0.527c0 0.553 0.194 1.062 0.518 1.461 0.099 0.122 0.119 0.295 0.041 0.432-0.088 0.154-0.261 0.248-0.414 0.356z"></path>
<path fill="#36f" d="M11.447 27.522c0.118 0.011 0.237 0.023 0.356 0.034-0.011 0.042-0.023 0.084-0.034 0.126-0.015 0.021-0.024 0.045-0.027 0.070-0.363 1.178-1.374 2.493 0.709 3.15 0.139 0.044 0.147 0.505 0.216 0.771-0.169-0.091-0.331-0.2-0.508-0.272-2.272-0.924-1.809-2.343-0.711-3.88z"></path>
<path fill="#36f" d="M19.881 5.257c-0.142-0.058-0.284-0.115-0.426-0.172-0.812-2.297 0.58-2.903 2.432-3.152 0.069-0.009 0.144 0.026 0.216 0.040-0.147 0.218-0.302 0.631-0.44 0.625-2.085-0.085-1.802 1.369-1.782 2.66z"></path>
<path fill="#36f" d="M25.576 8.063c-0.133-0.070-0.266-0.141-0.399-0.211-0.099-2.536 1.646-2.196 3.249-2.068 0.055 0.004 0.103 0.099 0.154 0.151-0.237 0.147-0.539 0.471-0.7 0.412-1.62-0.591-2.014 0.43-2.281 1.653-0.007 0.020-0.014 0.041-0.021 0.061l-0.001 0.002z"></path>
<path fill="#313133" d="M6.608 9.371c-0.212-0.056-0.424-0.112-0.637-0.168 0.017 0.146 0.064 0.297 0.041 0.437-0.020 0.12-0.119 0.228-0.183 0.341-0.346-0.295-0.699-0.583-1.028-0.896-0.032-0.031 0.116-0.319 0.127-0.316 0.98 0.308 0.333-0.724 0.733-0.881 0.548 0.347 0.845 0.853 0.948 1.484z"></path>
<path fill="#90acff" d="M12.837 15.336c-0.554-0.213-0.683-0.069-0.875 0.408-1.375 3.409-2.781 6.805-4.178 10.206 0.331 0.153 0.662 0.305 0.993 0.458 0.050 0.055 0.138 0.032 0.187 0.091l0.007 0.003c0.47 0.187 0.941 0.375 1.411 0.562v0c0.355 0.153 0.71 0.306 1.065 0.46 0.11 0.098 0.228 0.116 0.356 0.034 0.39 0.084 0.779 0.168 1.169 0.252 0.194-0.095 0.104-0.272 0.107-0.412 0.012-0.537 0.068-1.072 0.289-1.561 0.558-1.235 1.379-2.183 2.845-2.286 2.171-0.152 4.892 1.737 5.299 4.049 0.031 0.176 0.015 0.386 0.216 0.493 3.673-0.833 6.153-3.079 7.68-6.455-5.526-2.095-11.056-4.178-16.571-6.301z"></path>
<path fill="#000004" d="M4.081 6.31c0-0 0.001-0.001 0.002-0.001-0.001 0-0.002 0-0.003 0 0.001 0 0.001 0.001 0.002 0.001z"></path>
<path fill="#124dfe" d="M30.326 18.591c-0.306 1.016-0.611 2.031-0.917 3.046-0.188 0.1-0.368 0.042-0.545-0.027-0.382-0.151-0.765-0.299-1.148-0.447-2.445-0.944-4.906-1.847-7.352-2.788-2.478-0.954-4.962-1.891-7.444-2.835-0.583-0.222-0.614-0.206-0.836 0.35-1.145 2.87-2.3 5.736-3.47 8.595-0.154 0.378-0.339 0.742-0.477 1.126-0.050 0.14-0.121 0.275-0.271 0.323-0.025 0.008-0.051 0.013-0.080 0.016-0.826-0.202-1.354-1.369-2.542-0.474-0.941 0.709-1.618 1.189-0.773 2.374 0.206 0.288 0.127 0.669-0.196 0.924-0.109-0.213-0.207-0.432-0.326-0.638-1.010-1.752-0.309-2.726 1.464-3.214 0.436-0.12 0.267-0.244 0.025-0.427-1.781-1.341-3.209-2.911-4.161-4.788-0.016-0.029-0.030-0.059-0.045-0.088-0.476-0.958-0.829-1.995-1.045-3.121-0.006-0.034-0.012-0.067-0.018-0.101-0.004-0.021-0.008-0.040-0.011-0.061-0.009-0.052-0.015-0.104-0.020-0.156 0-0.002 0-0.004-0.001-0.005-0.005-0.055-0.009-0.109-0.014-0.163 0.070 0.092 0.146 0.179 0.207 0.276 1.014 1.613 2.48 2.388 4.371 2.167 1.161-0.136 2.258-0.615 2.644-1.826 0.453-1.422-0.369-2.524-1.204-3.572-0.086-0.108-0.177-0.212-0.266-0.318 0.126-0.037 0.251-0.083 0.379-0.109 2.076-0.421 3.667-2.351 3.317-4.024-0.326-1.551-2.981-2.767-5.039-2.315-0.080 0.018-0.163 0.021-0.248 0.020 0.706-0.559 1.489-1.042 2.34-1.436 0.343-0.155 0.693-0.298 1.046-0.426 1.44-0.523 2.959-0.814 4.57-0.848 0.385-0.008 0.1-0.497 0.060-0.729-0.212-1.27-0.403-2.492 1.48-2.53 0.397-0.114 0.794-0.228 1.192-0.341 0.005 0.103 0.042 0.218 0.008 0.305-0.147 0.361-0.457 0.483-0.822 0.503-2.191-0.007-1.1 1.693-1.396 2.673 0.297 0.061 0.594 0.129 0.892 0.184 0.863 0.156 1.728 0.307 2.591 0.46 0.012 0.024 0.023 0.046 0.031 0.070 0.086 0.228-0.016 0.445-0.086 0.656-0.616 1.861-1.273 3.709-1.966 5.543-0.411 1.086-0.844 2.163-1.252 3.249-0.2 0.533-0.185 0.573 0.366 0.701 2.050 0.478 4.103 0.948 6.156 1.414 3.060 0.695 6.116 1.408 9.175 2.109 0.326 0.074 0.651 0.149 0.977 0.223 0.281 0.064 0.668 0.048 0.683 0.501z"></path>
<path fill="#e64957" d="M11.741 27.753c-0.002-0.021-0.005-0.042-0.004-0.063 0-0.003 0.021-0.005 0.032-0.007 0.002 0.022 0.004 0.044 0.004 0.066 0 0.002-0.021 0.003-0.032 0.004z"></path>
<path fill="#eb6672" d="M8.777 26.407c0.062 0.030 0.125 0.061 0.187 0.091-0.062-0.030-0.125-0.061-0.187-0.091z"></path>
<path fill="#e64957" d="M25.577 8.060l-0.011-0.040c0 0 0.033-0.022 0.033-0.021 0.003 0.018 0.008 0.036 0.008 0.053 0 0.002-0.019 0.005-0.030 0.008z"></path>
<path fill="#e64957" d="M13.048 27.858l0.023-0.016c0 0-0.005 0.026-0.005 0.026s-0.019 0.016-0.019 0.016l0.001-0.026z"></path>
<path fill="#e64957" d="M21.655 28.151l-0.002-0.031c0 0 0.032 0.010 0.032 0.010s-0.002 0.032-0.002 0.032l-0.028-0.011z"></path>
<path fill="#342f33" d="M15.484 20.95c-0.071-0.37-0.911-0.502-0.491-0.91 0.526-0.509 0.612 0.471 1.038 0.522-0.182 0.129-0.364 0.258-0.547 0.387z"></path>
<path fill="#383032" d="M13.112 21.248c0.093 0.029 0.186 0.057 0.279 0.086-0.093-0.029-0.186-0.057-0.279-0.086z"></path>
<path fill="#90acff" d="M27.732 9.655c-0.468-0.348-0.935-0.696-1.403-1.044-0.251-0.183-0.502-0.365-0.752-0.548-0.081-0.169-0.224-0.221-0.399-0.211-1.765-0.865-3.531-1.73-5.296-2.595-0.128-0.093-0.215-0.283-0.426-0.172-1.071-0.32-2.142-0.641-3.213-0.961-1.178 3.251-2.351 6.504-3.543 9.75-0.127 0.346-0.112 0.466 0.283 0.555 5.245 1.188 10.488 2.389 15.727 3.605 0.552 0.128 1.078 0.369 1.617 0.557 0.433-3.354 0.042-6.469-2.594-8.936z"></path>
<path fill="#3c3133" d="M25.297 12.376c0.070-0.467-0.193-0.779-0.528-1.024-0.575-0.42-0.553-0.786 0.049-1.142 0.026 0.001 0.052 0.004 0.077 0.009 0.425 0.453 0.545 1 0.494 1.599-0.031 0.186-0.061 0.372-0.092 0.558z"></path>
<path fill="#3c3133" d="M25.191 12.843c0.024-0.087 0.048-0.173 0.072-0.259-0.024 0.087-0.048 0.173-0.072 0.259z"></path>
<path fill="#313033" d="M5.276 9.861c-0.213 0.143-0.435 0.335-0.468 0.307-0.226-0.194-0.413-0.434-0.612-0.659 0.113-0.099 0.298-0.301 0.329-0.28 0.248 0.171 0.468 0.383 0.752 0.631z"></path>
<path fill="#124dfe" d="M25.4 11.982c0 1.831-1.488 3.315-3.322 3.315s-3.323-1.484-3.323-3.315 1.488-3.315 3.323-3.315c1.835 0 3.322 1.484 3.322 3.315z"></path>
<path fill="#124dfe" d="M16.767 19.122c0 1.405-1.141 2.543-2.549 2.543s-2.549-1.139-2.549-2.543c0-1.405 1.141-2.543 2.549-2.543s2.549 1.139 2.549 2.543z"></path>
<path fill="#12214c" d="M6.608 9.676c0 1.285-1.044 2.326-2.331 2.326s-2.331-1.041-2.331-2.326 1.044-2.326 2.331-2.326c1.288 0 2.331 1.041 2.331 2.326z"></path>
<path fill="#12214c" d="M4.663 14.593c0 1.285-1.044 2.326-2.331 2.326s-2.331-1.041-2.331-2.326 1.044-2.326 2.331-2.326c1.288 0 2.331 1.041 2.331 2.326z"></path>
</svg>
