<!-- Generated by IcoMoon.io -->
<svg version="1.1" xmlns="http://www.w3.org/2000/svg" width="32" height="32" viewBox="0 0 32 32">
<title>feedback-icon</title>
<path d="M9.504 4.463c0.003-0 0.006-0 0.009-0 0.442 0 0.8 0.358 0.8 0.8 0 0.399-0.292 0.73-0.674 0.79l-0.005 0.001-0.131 0.009h-3.769c-0.001-0-0.003-0-0.004-0-0.119 0-0.219 0.078-0.254 0.185l-0.001 0.002-0.009 0.067v19.889c0 0.167 0.128 0.315 0.307 0.353l0.095 0.009h5.747c0.441 0 0.799 0.358 0.799 0.8 0 0.396-0.287 0.725-0.665 0.789l-0.005 0.001-0.129 0.011h-5.748c-0.005 0-0.011 0-0.017 0-1.022 0-1.864-0.772-1.974-1.764l-0.001-0.009-0.009-0.189v-19.889c0-0.965 0.743-1.755 1.688-1.844l0.18-0.009h3.769zM23.685 4.463c1.031 0 1.885 0.773 1.983 1.771l0.009 0.191v6.103c-0 0.441-0.358 0.799-0.8 0.799-0.396 0-0.725-0.287-0.789-0.665l-0.001-0.005-0.011-0.129v-6.103c-0.006-0.174-0.132-0.318-0.298-0.35l-0.002-0-0.092-0.011h-3.861c-0.441-0-0.799-0.358-0.799-0.8 0-0.396 0.288-0.725 0.665-0.789l0.005-0.001 0.129-0.011h3.861z"></path>
<path d="M19.509 3.2h-9.475c-0.616 0-1.116 0.5-1.116 1.116v0 1.893c0 0.617 0.5 1.117 1.116 1.117h9.475c0.616-0.001 1.115-0.5 1.115-1.116 0 0 0 0 0 0v0-1.895c0-0.616-0.499-1.115-1.115-1.116h-0zM19.024 4.8v0.925h-8.505v-0.925h8.505zM18.561 12.516c0.441 0.001 0.799 0.358 0.799 0.8 0 0.396-0.288 0.725-0.665 0.789l-0.005 0.001-0.129 0.011h-10.105c-0.441-0.001-0.799-0.358-0.799-0.8 0-0.396 0.287-0.725 0.665-0.789l0.005-0.001 0.129-0.011h10.107zM14.14 16.937c0 0 0 0 0 0 0.442 0 0.8 0.358 0.8 0.8 0 0.396-0.287 0.725-0.665 0.789l-0.005 0.001-0.131 0.011h-5.684c-0.002 0-0.005 0-0.008 0-0.442 0-0.8-0.358-0.8-0.8 0-0.399 0.292-0.73 0.674-0.79l0.005-0.001 0.129-0.009h5.684zM21.956 19.841c0 0 0 0 0 0 0.326 0 0.597 0.234 0.655 0.543l0.001 0.004 0.011 0.12v4.733c0 0 0 0.001 0 0.001 0 0.368-0.298 0.667-0.667 0.667-0.326 0-0.598-0.234-0.655-0.544l-0.001-0.004-0.011-0.12v-4.733c0-0.368 0.298-0.667 0.667-0.667v0z"></path>
<path d="M21.8 19.325l-2.176 2.751c-0.021 0.026-0.034 0.060-0.034 0.097 0 0.087 0.070 0.157 0.157 0.157 0 0 0 0 0 0h4.397c0 0 0 0 0 0 0.087 0 0.157-0.070 0.157-0.157 0-0.038-0.013-0.072-0.035-0.099l0 0-2.223-2.751c-0.029-0.036-0.073-0.060-0.123-0.060s-0.094 0.023-0.123 0.059l-0 0z"></path>
<path d="M21.871 16.597c-3.233 0-5.853 2.621-5.853 5.853s2.621 5.853 5.853 5.853v0c3.233 0 5.853-2.621 5.853-5.853s-2.621-5.853-5.853-5.853v0zM21.871 18.197c2.349 0 4.253 1.904 4.253 4.253s-1.904 4.253-4.253 4.253v0c-2.349 0-4.253-1.904-4.253-4.253s1.904-4.253 4.253-4.253v0z"></path>
</svg>
