<?xml version="1.0" encoding="UTF-8"?>
<svg width="24px" height="24px" viewBox="0 0 24 24" version="1.1" xmlns="http://www.w3.org/2000/svg" xmlns:xlink="http://www.w3.org/1999/xlink">
    <title>ic_menu_mb</title>
    <g id="移动端0804" stroke="none" stroke-width="1" fill="none" fill-rule="evenodd">
        <g id="09-昇腾文档mb-详情页01" transform="translate(-16.000000, -88.000000)">
            <g id="编组" transform="translate(0.000000, 68.000000)">
                <g id="ic_menu_mb" transform="translate(16.000000, 20.000000)">
                    <rect id="矩形" x="0" y="0" width="24" height="24"></rect>
                    <path d="M18.3989058,17.4938677 C18.8111842,17.4938677 19.1454018,17.8280853 19.1454018,18.2403637 L19.1454018,18.253504 C19.1454018,18.6657824 18.8111842,19 18.3989058,19 L4.746496,19 C4.33421764,19 4,18.6657824 4,18.253504 L4,18.2403637 C4,17.8280853 4.33421764,17.4938677 4.746496,17.4938677 L18.3989058,17.4938677 Z M18.3989058,11.8458716 C18.8111842,11.8458716 19.1454018,12.1800892 19.1454018,12.5923676 L19.1454018,12.6055079 C19.1454018,13.0177863 18.8111842,13.3520039 18.3989058,13.3520039 L4.746496,13.3520039 C4.33421764,13.3520039 4,13.0177863 4,12.6055079 L4,12.5923676 C4,12.1800892 4.33421764,11.8458716 4.746496,11.8458716 L18.3989058,11.8458716 Z M17.6734492,4.15796952 C17.6852531,4.16885762 17.696613,4.1802175 17.7075011,4.19202145 L19.7451529,6.39990369 C19.7791767,6.43182994 19.8102068,6.46690892 19.837777,6.50467435 L19.813886,6.4755836 C19.9130489,6.58308751 19.9725466,6.71384176 19.9923792,6.84924607 C20.0171699,7.02202216 19.9799838,7.19913007 19.8808209,7.34668607 L19.813886,7.43140237 L17.7075011,9.71496452 L17.6734492,9.74901645 L17.6734492,9.74901645 C17.431062,9.97259725 17.0533203,9.95735169 16.8297395,9.71496452 C16.606623,9.47308072 16.5843114,9.1134921 16.7628046,8.84806733 L16.8297395,8.76337058 L17.806,7.70376876 L4.746496,7.70400779 C4.33421764,7.70400779 4,7.36979014 4,6.95751179 L4,6.94437149 C4,6.53209314 4.33421764,6.19787549 4.746496,6.19787549 L17.802,6.19776876 L16.8297395,5.14361539 C16.5818323,4.8748556 16.5818323,4.46078123 16.8297395,4.19202145 C17.0533203,3.94963429 17.431062,3.93438872 17.6734492,4.15796952 Z" id="Combined-Shape" fill="#000000"></path>
                </g>
            </g>
        </g>
    </g>
</svg>