<?xml version="1.0" encoding="UTF-8"?>
<svg width="14px" height="14px" viewBox="0 0 14 14" version="1.1" xmlns="http://www.w3.org/2000/svg" xmlns:xlink="http://www.w3.org/1999/xlink">
    <title>编组 7备份</title>
    <g id="鲲鹏移动" stroke="none" stroke-width="1" fill="none" fill-rule="evenodd">
        <g id="编组-7备份">
            <rect id="矩形" x="0" y="0" width="14" height="14"></rect>
            <g id="编组" transform="translate(1.000000, 0.000000)" fill="#333333" fill-rule="nonzero">
                <path d="M11.891276,4.93041992 L11.891276,3.80249023 C11.8907433,3.25887906 11.6235401,2.75083124 11.1777908,2.44590237 C10.7320415,2.1409735 10.1656316,2.07876191 9.66536458,2.27978516 L8.90364583,2.58569336 C8.32304687,1.45947266 7.39205729,-1.77635684e-15 6.47291667,-1.77635684e-15 C5.55377604,-1.77635684e-15 4.62617187,1.45947266 4.04726562,2.58569336 L3.30585937,2.28491211 C2.80503374,2.08169062 2.2369473,2.14280326 1.78977926,2.4480064 C1.34261123,2.75320955 1.07472936,3.26266577 1.07486974,3.80761719 L1.07486974,4.93041992 C1.07873283,7.73275403 3.1801105,10.0786716 5.94140625,10.3632812 L5.94140625,12.5849609 C5.94140625,12.8869917 6.18391868,13.1318359 6.48307292,13.1318359 C6.78222716,13.1318359 7.02473958,12.8869917 7.02473958,12.5849609 L7.02473958,10.3632812 C9.78603533,10.0786716 11.887413,7.73275403 11.891276,4.93041992 Z M2.15817184,4.93041992 L2.15817184,3.80761719 C2.15624729,3.62502618 2.24610239,3.45388236 2.396875,3.35302734 C2.4859412,3.29240555 2.59076349,3.25970521 2.69817708,3.2590332 C2.7684129,3.2594204 2.83792978,3.27334145 2.90299479,3.30004883 L4.10651042,3.79394531 C4.37167647,3.9005593 4.67334521,3.78186681 4.79713542,3.5222168 C5.35572917,2.34643555 6.15130208,1.20825195 6.47291667,1.10229492 C6.80130208,1.20825195 7.59179687,2.34643555 8.15377604,3.52392578 C8.27689447,3.78334404 8.57846895,3.90154288 8.84270833,3.79394531 L10.0648437,3.30004883 C10.2325609,3.2322054 10.4227408,3.25325691 10.5719139,3.35617772 C10.721087,3.45909854 10.8096111,3.63033673 10.8079659,3.81274414 L10.8079659,4.94067383 C10.8079659,7.35220038 8.87163255,9.30712891 6.48307292,9.30712891 C4.09451329,9.30712891 2.15817184,7.35220038 2.15817184,4.94067383 L2.15817184,4.93041992 Z" id="形状"></path>
                <path d="M12.4109375,9.86083984 C8.77669271,10.0710449 7.66796875,12.2431641 7.62226563,12.3388672 C7.49197122,12.6082047 7.60070341,12.9332432 7.86606475,13.067668 C8.13142609,13.2020929 8.4545153,13.0958033 8.59049479,12.8293457 C8.62604167,12.7592773 9.50286458,11.1203613 12.471875,10.9494629 C12.7575605,10.9170641 12.9684136,10.664982 12.9522178,10.3751965 C12.936022,10.085411 12.6984196,9.85887694 12.4109375,9.85913065 L12.4109375,9.86083984 Z M0.555208333,9.86083963 C0.267726267,9.86058593 0.0301238595,10.08712 0.0139280574,10.3769055 C-0.00226774479,10.666691 0.20858531,10.9187731 0.494270833,10.9511719 C3.45481771,11.1220703 4.33502604,12.7473145 4.37565104,12.8310547 C4.46876464,13.0129729 4.65525652,13.1266046 4.85807292,13.1250168 C4.94024655,13.1243069 5.02122253,13.1050361 5.09505208,13.0686035 C5.36284682,12.9360108 5.47408187,12.6097926 5.34388021,12.3388672 C5.29817708,12.2431641 4.18945313,10.0710449 0.555208333,9.86083963 Z" id="形状"></path>
            </g>
        </g>
    </g>
</svg>