<!-- Generated by IcoMoon.io -->
<svg version="1.1" xmlns="http://www.w3.org/2000/svg" width="32" height="32" viewBox="0 0 32 32">
<title>-4</title>
<path d="M22.667 3.867c0.442 0 0.8 0.358 0.8 0.8 0 0.398-0.29 0.728-0.67 0.79l-0.13 0.010h-13.333c-0.442 0-0.8-0.358-0.8-0.8 0-0.398 0.29-0.728 0.67-0.79l0.13-0.010h13.333z"></path>
<path d="M15.44 8.101c0.278-0.278 0.709-0.309 1.021-0.093l0.111 0.093 6.667 6.667c0.312 0.312 0.312 0.819 0 1.131-0.278 0.278-0.709 0.309-1.021 0.093l-0.111-0.093-6.102-6.102-6.1 6.102c-0.278 0.278-0.709 0.309-1.021 0.093l-0.111-0.093c-0.278-0.278-0.309-0.709-0.093-1.021l0.093-0.111 6.667-6.667z"></path>
<path d="M16 28.133c0.398 0 0.728-0.29 0.79-0.67l0.010-0.13v-18.667c0-0.442-0.358-0.8-0.8-0.8-0.398 0-0.728 0.29-0.79 0.67l-0.010 0.13v18.667c0 0.442 0.358 0.8 0.8 0.8z"></path>
</svg>
