<?xml version="1.0" encoding="UTF-8"?>
<svg width="28px" height="28px" viewBox="0 0 28 28" version="1.1" xmlns="http://www.w3.org/2000/svg" xmlns:xlink="http://www.w3.org/1999/xlink">
    <title>编组 129</title>
    <defs>
        <rect id="path-1" x="0" y="0" width="28" height="28"></rect>
        <linearGradient x1="0%" y1="38.1124424%" x2="94.0076601%" y2="62.6108312%" id="linearGradient-3">
            <stop stop-color="#8FF4FF" offset="0%"></stop>
            <stop stop-color="#73B3FF" offset="51.7598932%"></stop>
            <stop stop-color="#5F81FF" offset="100%"></stop>
        </linearGradient>
    </defs>
    <g id="页面-1" stroke="none" stroke-width="1" fill="none" fill-rule="evenodd">
        <g id="首页-快速了解-hover" transform="translate(-168.000000, -3413.000000)">
            <g id="编组-129" transform="translate(168.000000, 3413.000000)">
                <mask id="mask-2" fill="white">
                    <use xlink:href="#path-1"></use>
                </mask>
                <g id="矩形"></g>
                <path d="M26.451743,6 C25.4588773,6 24.7857303,6.55632654 24.7857303,7.40820068 L24.7857303,7.40820068 C24.7857303,8.12097237 25.3579093,8.49474256 25.8459348,8.69466937 L25.8459348,8.69466937 C26.2666752,8.86856824 26.6537328,8.97281876 26.6537328,9.19885677 L26.6537328,9.19885677 C26.6537328,9.37270014 26.5358964,9.45960795 26.2329924,9.45960795 L26.2329924,9.45960795 C25.9384956,9.45960795 25.5934745,9.32053325 25.2064169,9.02498565 L25.2064169,9.02498565 L24.5669528,9.94639714 C25.0045077,10.3115098 25.6608134,10.5548906 26.1993364,10.5548906 L26.1993364,10.5548906 C27.3773235,10.5548906 28,9.92902667 28,9.11192121 L28,9.11192121 C28,8.32961216 27.427821,7.99926814 26.922954,7.8080543 L26.922954,7.8080543 C26.5022404,7.6515814 26.1320243,7.56467358 26.1320243,7.33869108 L26.1320243,7.33869108 C26.1320243,7.16479221 26.2582411,7.09522711 26.5022404,7.09522711 L26.5022404,7.09522711 C26.7631081,7.09522711 27.0576049,7.23430181 27.360509,7.46033981 L27.360509,7.46033981 L28,6.57372475 C27.6297839,6.28686237 27.1417583,6 26.451743,6 Z M17.0239508,8.91798804 L14.6199501,8.91798804 L14.61901,8.91798804 L11.6822613,16.6269218 L8.74551264,8.91798804 L6.34057188,8.91798804 L5.42108863,19.4266186 L7.82605626,19.4266186 L8.33154105,13.6490251 L10.6856889,19.2429524 L10.684131,19.2470314 L10.687408,19.2470314 L12.6771147,19.2470314 L12.6803917,19.2470314 L12.6788069,19.2429524 L15.0337337,13.6471937 L15.5394065,19.4266186 L17.9443741,19.4266186 L17.024864,8.91798804 L17.0239508,8.91798804 Z M0,7.25819313 L0,7.26149518 L0,8.88299738 L0,8.89911916 L0,21.8637556 L0,22 L3.98234124,22 L3.98234124,20.3483076 L1.59593411,20.3483076 L1.59593411,8.89911916 L3.98234124,8.89911916 L3.98234124,8.88299738 L3.98234124,8.74744672 L3.98234124,7.26149518 L3.98234124,7.25819313 L0,7.25819313 Z M19.3830947,7.25819313 L19.3830947,7.26149518 L19.3830947,8.74744672 L19.3830947,8.88299738 L19.3830947,8.89911916 L21.7695287,8.89911916 L21.7695287,20.3483076 L19.3830947,20.3483076 L19.3830947,22 L23.3654628,22 L23.3654628,21.8637556 L23.3654628,8.89911916 L23.3654628,8.88299738 L23.3654628,7.26149518 L23.3654628,7.25819313 L19.3830947,7.25819313 Z" id="形状结合" fill="url(#linearGradient-3)" mask="url(#mask-2)"></path>
            </g>
        </g>
    </g>
</svg>