<svg xmlns="http://www.w3.org/2000/svg" width="336.8" height="188.0" xmlns:xlink="http://www.w3.org/1999/xlink">
<rect x="0" y="0.0" width="336.8" height="188.0" fill="#ffffff" />
<text x="20.0" y="40.0" font-size="16px" dominant-baseline="middle" text-anchor="start" font-family="Arial" font-weight="normal" fill="#252b3a" >
q0:
 </text>
<text x="20.0" y="100.0" font-size="16px" dominant-baseline="middle" text-anchor="start" font-family="Arial" font-weight="normal" fill="#252b3a" >
q1:
 </text>
<text x="20.0" y="160.0" font-size="16px" dominant-baseline="middle" text-anchor="start" font-family="Arial" font-weight="normal" fill="#252b3a" >
q2:
 </text>
<line x1="48.8" x2="316.8" y1="40.0" y2="40.0" stroke="#adb0b8" stroke-width="1" />
<line x1="48.8" x2="316.8" y1="100.0" y2="100.0" stroke="#adb0b8" stroke-width="1" />
<line x1="48.8" x2="316.8" y1="160.0" y2="160.0" stroke="#adb0b8" stroke-width="1" />
<circle cx="92.8" cy="160.0" r="4" fill="#5e7ce0" />
<line x1="92.8" x2="92.8" y1="40.0" y2="160.0" stroke="#5e7ce0" stroke-width="3" />
<rect x="72.8" y="20.0" width="40.0" height="40" rx="4" ry="4" stroke="#ffffff" stroke-width="0" fill="#5e7ce0" fill-opacity="1" />
<text x="92.8" y="40.0" font-size="20px" dominant-baseline="middle" text-anchor="middle" font-family="Arial" font-weight="normal" fill="#ffffff" >
H
 </text>

<circle cx="152.8" cy="100.0" r="4" fill="#fac209" />
<circle cx="152.8" cy="160.0" r="4" fill="#fac209" />
<line x1="152.8" x2="152.8" y1="40.0" y2="160.0" stroke="#fac209" stroke-width="3" />
<rect x="132.8" y="20.0" width="40.0" height="40" rx="4" ry="4" stroke="#ffffff" stroke-width="0" fill="#fac209" fill-opacity="1" />
<text x="152.8" y="36.0" font-size="20px" dominant-baseline="middle" text-anchor="middle" font-family="Arial" font-weight="normal" fill="#ffffff" >
PS
 </text>
<text x="152.8" y="52.0" font-size="14.0px" dominant-baseline="middle" text-anchor="middle" font-family="Arial" font-weight="normal" fill="#ffffff" >
π/2
 </text>

<circle cx="212.8" cy="160.0" r="4" fill="#5e7ce0" />
<line x1="212.8" x2="212.8" y1="100.0" y2="160.0" stroke="#5e7ce0" stroke-width="3" />
<rect x="192.8" y="80.0" width="40.0" height="40" rx="4" ry="4" stroke="#ffffff" stroke-width="0" fill="#5e7ce0" fill-opacity="1" />
<text x="212.8" y="100.0" font-size="20px" dominant-baseline="middle" text-anchor="middle" font-family="Arial" font-weight="normal" fill="#ffffff" >
H
 </text>

<line x1="272.8" x2="272.8" y1="20.0" y2="120.0" stroke-width="3" stroke="#16acff" />
<circle cx="272.8" cy="160.0" r="4" fill="#16acff" />
<line x1="272.8" x2="272.8" y1="40.0" y2="160.0" stroke="#16acff" stroke-width="3" />
<rect x="252.8" y="20.0" width="40" height="40" rx="4" ry="4" fill="#16acff" fill-opacity="1" stroke="#ffffff" stroke-width="0" />
<path d="M 263.2 36.31384387633061 L 268.0 28.0 L 272.8 36.31384387633061 L 269.44 36.31384387633061 L 269.44 52.0 L 266.56 52.0 L 266.56 36.31384387633061 Z" fill="#ffffff" />
<path d="M 282.4 43.68615612366939 L 277.6 52.0 L 272.8 43.68615612366939 L 276.16 43.68615612366939 L 276.16 28.0 L 279.04 28.0 L 279.04 43.68615612366939 Z" fill="#ffffff" />
<rect x="252.8" y="80.0" width="40" height="40" rx="4" ry="4" fill="#16acff" fill-opacity="1" stroke="#ffffff" stroke-width="0" />
<path d="M 263.2 96.31384387633061 L 268.0 88.0 L 272.8 96.31384387633061 L 269.44 96.31384387633061 L 269.44 112.0 L 266.56 112.0 L 266.56 96.31384387633061 Z" fill="#ffffff" />
<path d="M 282.4 103.68615612366939 L 277.6 112.0 L 272.8 103.68615612366939 L 276.16 103.68615612366939 L 276.16 88.0 L 279.04 88.0 L 279.04 103.68615612366939 Z" fill="#ffffff" />
</svg>