<svg xmlns="http://www.w3.org/2000/svg" width="1676.8" height="260.0" xmlns:xlink="http://www.w3.org/1999/xlink"><rect x="0" y="0.0" width="1676.8" height="260.0" fill="#ffffff" /><text x="20.0" y="40.0" font-size="16px" dominant-baseline="middle" text-anchor="start" font-family="Arial" font-weight="normal" fill="#252b3a" >q0: </text><text x="20.0" y="100.0" font-size="16px" dominant-baseline="middle" text-anchor="start" font-family="Arial" font-weight="normal" fill="#252b3a" >q1: </text><text x="20.0" y="160.0" font-size="16px" dominant-baseline="middle" text-anchor="start" font-family="Arial" font-weight="normal" fill="#252b3a" >q2: </text><text x="20.0" y="220.0" font-size="16px" dominant-baseline="middle" text-anchor="start" font-family="Arial" font-weight="normal" fill="#252b3a" >q3: </text><line x1="48.8" x2="1656.8" y1="40.0" y2="40.0" stroke="#adb0b8" stroke-width="1" /><line x1="48.8" x2="1656.8" y1="100.0" y2="100.0" stroke="#adb0b8" stroke-width="1" /><line x1="48.8" x2="1656.8" y1="160.0" y2="160.0" stroke="#adb0b8" stroke-width="1" /><line x1="48.8" x2="1656.8" y1="220.0" y2="220.0" stroke="#adb0b8" stroke-width="1" /><rect x="72.8" y="20.0" width="40.0" height="40" rx="4" ry="4" stroke="#ffffff" stroke-width="0" fill="#5e7ce0" fill-opacity="1" /><text x="92.8" y="40.0" font-size="20px" dominant-baseline="middle" text-anchor="middle" font-family="Arial" font-weight="normal" fill="#ffffff" >H </text><rect x="72.8" y="80.0" width="40.0" height="40" rx="4" ry="4" stroke="#ffffff" stroke-width="0" fill="#5e7ce0" fill-opacity="1" /><text x="92.8" y="100.0" font-size="20px" dominant-baseline="middle" text-anchor="middle" font-family="Arial" font-weight="normal" fill="#ffffff" >H </text><rect x="72.8" y="140.0" width="40.0" height="40" rx="4" ry="4" stroke="#ffffff" stroke-width="0" fill="#5e7ce0" fill-opacity="1" /><text x="92.8" y="160.0" font-size="20px" dominant-baseline="middle" text-anchor="middle" font-family="Arial" font-weight="normal" fill="#ffffff" >H </text><rect x="72.8" y="200.0" width="40.0" height="40" rx="4" ry="4" stroke="#ffffff" stroke-width="0" fill="#5e7ce0" fill-opacity="1" /><text x="92.8" y="220.0" font-size="20px" dominant-baseline="middle" text-anchor="middle" font-family="Arial" font-weight="normal" fill="#ffffff" >H </text><rect x="132.8" y="20.0" width="80.0" height="40" rx="4" ry="4" stroke="#ffffff" stroke-width="0" fill="#fac209" fill-opacity="1" /><text x="172.8" y="36.0" font-size="20px" dominant-baseline="middle" text-anchor="middle" font-family="Arial" font-weight="normal" fill="#ffffff" >RZ </text><text x="172.8" y="52.0" font-size="14.0px" dominant-baseline="middle" text-anchor="middle" font-family="Arial" font-weight="normal" fill="#ffffff" >alpha0 </text><rect x="132.8" y="80.0" width="80.0" height="40" rx="4" ry="4" stroke="#ffffff" stroke-width="0" fill="#fac209" fill-opacity="1" /><text x="172.8" y="96.0" font-size="20px" dominant-baseline="middle" text-anchor="middle" font-family="Arial" font-weight="normal" fill="#ffffff" >RZ </text><text x="172.8" y="112.0" font-size="14.0px" dominant-baseline="middle" text-anchor="middle" font-family="Arial" font-weight="normal" fill="#ffffff" >alpha1 </text><rect x="132.8" y="140.0" width="80.0" height="40" rx="4" ry="4" stroke="#ffffff" stroke-width="0" fill="#fac209" fill-opacity="1" /><text x="172.8" y="156.0" font-size="20px" dominant-baseline="middle" text-anchor="middle" font-family="Arial" font-weight="normal" fill="#ffffff" >RZ </text><text x="172.8" y="172.0" font-size="14.0px" dominant-baseline="middle" text-anchor="middle" font-family="Arial" font-weight="normal" fill="#ffffff" >alpha2 </text><rect x="132.8" y="200.0" width="80.0" height="40" rx="4" ry="4" stroke="#ffffff" stroke-width="0" fill="#fac209" fill-opacity="1" /><text x="172.8" y="216.0" font-size="20px" dominant-baseline="middle" text-anchor="middle" font-family="Arial" font-weight="normal" fill="#ffffff" >RZ </text><text x="172.8" y="232.0" font-size="14.0px" dominant-baseline="middle" text-anchor="middle" font-family="Arial" font-weight="normal" fill="#ffffff" >alpha3 </text><circle cx="252.8" cy="40.0" r="4" fill="#16acff" /><line x1="252.8" x2="252.8" y1="40.0" y2="100.0" stroke="#16acff" stroke-width="3" /><rect x="232.8" y="80.0" width="40" height="40" rx="4" ry="4" stroke="#ffffff" stroke-width="0" fill="#16acff" fill-opacity="1" /><line x1="238.8" x2="266.8" y1="100.0" y2="100.0" stroke="#ffffff" stroke-width="4" /><line x1="252.8" x2="252.8" y1="86.0" y2="114.0" stroke="#ffffff" stroke-width="4" /><rect x="292.8" y="80.0" width="80.0" height="40" rx="4" ry="4" stroke="#ffffff" stroke-width="0" fill="#fac209" fill-opacity="1" /><text x="332.8" y="96.0" font-size="20px" dominant-baseline="middle" text-anchor="middle" font-family="Arial" font-weight="normal" fill="#ffffff" >RZ </text><text x="332.8" y="112.0" font-size="14.0px" dominant-baseline="middle" text-anchor="middle" font-family="Arial" font-weight="normal" fill="#ffffff" >alpha4 </text><circle cx="412.8" cy="40.0" r="4" fill="#16acff" /><line x1="412.8" x2="412.8" y1="40.0" y2="100.0" stroke="#16acff" stroke-width="3" /><rect x="392.8" y="80.0" width="40" height="40" rx="4" ry="4" stroke="#ffffff" stroke-width="0" fill="#16acff" fill-opacity="1" /><line x1="398.8" x2="426.8" y1="100.0" y2="100.0" stroke="#ffffff" stroke-width="4" /><line x1="412.8" x2="412.8" y1="86.0" y2="114.0" stroke="#ffffff" stroke-width="4" /><circle cx="472.8" cy="100.0" r="4" fill="#16acff" /><line x1="472.8" x2="472.8" y1="100.0" y2="160.0" stroke="#16acff" stroke-width="3" /><rect x="452.8" y="140.0" width="40" height="40" rx="4" ry="4" stroke="#ffffff" stroke-width="0" fill="#16acff" fill-opacity="1" /><line x1="458.8" x2="486.8" y1="160.0" y2="160.0" stroke="#ffffff" stroke-width="4" /><line x1="472.8" x2="472.8" y1="146.0" y2="174.0" stroke="#ffffff" stroke-width="4" /><rect x="512.8" y="140.0" width="80.0" height="40" rx="4" ry="4" stroke="#ffffff" stroke-width="0" fill="#fac209" fill-opacity="1" /><text x="552.8" y="156.0" font-size="20px" dominant-baseline="middle" text-anchor="middle" font-family="Arial" font-weight="normal" fill="#ffffff" >RZ </text><text x="552.8" y="172.0" font-size="14.0px" dominant-baseline="middle" text-anchor="middle" font-family="Arial" font-weight="normal" fill="#ffffff" >alpha5 </text><circle cx="632.8" cy="100.0" r="4" fill="#16acff" /><line x1="632.8" x2="632.8" y1="100.0" y2="160.0" stroke="#16acff" stroke-width="3" /><rect x="612.8" y="140.0" width="40" height="40" rx="4" ry="4" stroke="#ffffff" stroke-width="0" fill="#16acff" fill-opacity="1" /><line x1="618.8" x2="646.8" y1="160.0" y2="160.0" stroke="#ffffff" stroke-width="4" /><line x1="632.8" x2="632.8" y1="146.0" y2="174.0" stroke="#ffffff" stroke-width="4" /><circle cx="692.8" cy="160.0" r="4" fill="#16acff" /><line x1="692.8" x2="692.8" y1="160.0" y2="220.0" stroke="#16acff" stroke-width="3" /><rect x="672.8" y="200.0" width="40" height="40" rx="4" ry="4" stroke="#ffffff" stroke-width="0" fill="#16acff" fill-opacity="1" /><line x1="678.8" x2="706.8" y1="220.0" y2="220.0" stroke="#ffffff" stroke-width="4" /><line x1="692.8" x2="692.8" y1="206.0" y2="234.0" stroke="#ffffff" stroke-width="4" /><rect x="732.8" y="200.0" width="80.0" height="40" rx="4" ry="4" stroke="#ffffff" stroke-width="0" fill="#fac209" fill-opacity="1" /><text x="772.8" y="216.0" font-size="20px" dominant-baseline="middle" text-anchor="middle" font-family="Arial" font-weight="normal" fill="#ffffff" >RZ </text><text x="772.8" y="232.0" font-size="14.0px" dominant-baseline="middle" text-anchor="middle" font-family="Arial" font-weight="normal" fill="#ffffff" >alpha6 </text><circle cx="852.8" cy="160.0" r="4" fill="#16acff" /><line x1="852.8" x2="852.8" y1="160.0" y2="220.0" stroke="#16acff" stroke-width="3" /><rect x="832.8" y="200.0" width="40" height="40" rx="4" ry="4" stroke="#ffffff" stroke-width="0" fill="#16acff" fill-opacity="1" /><line x1="838.8" x2="866.8" y1="220.0" y2="220.0" stroke="#ffffff" stroke-width="4" /><line x1="852.8" x2="852.8" y1="206.0" y2="234.0" stroke="#ffffff" stroke-width="4" /><rect x="452.8" y="20.0" width="80.0" height="40" rx="4" ry="4" stroke="#ffffff" stroke-width="0" fill="#fac209" fill-opacity="1" /><text x="492.8" y="36.0" font-size="20px" dominant-baseline="middle" text-anchor="middle" font-family="Arial" font-weight="normal" fill="#ffffff" >RY </text><text x="492.8" y="52.0" font-size="14.0px" dominant-baseline="middle" text-anchor="middle" font-family="Arial" font-weight="normal" fill="#ffffff" >d0_n0_0 </text><rect x="672.8" y="80.0" width="80.0" height="40" rx="4" ry="4" stroke="#ffffff" stroke-width="0" fill="#fac209" fill-opacity="1" /><text x="712.8" y="96.0" font-size="20px" dominant-baseline="middle" text-anchor="middle" font-family="Arial" font-weight="normal" fill="#ffffff" >RY </text><text x="712.8" y="112.0" font-size="14.0px" dominant-baseline="middle" text-anchor="middle" font-family="Arial" font-weight="normal" fill="#ffffff" >d0_n1_0 </text><rect x="892.8" y="140.0" width="80.0" height="40" rx="4" ry="4" stroke="#ffffff" stroke-width="0" fill="#fac209" fill-opacity="1" /><text x="932.8" y="156.0" font-size="20px" dominant-baseline="middle" text-anchor="middle" font-family="Arial" font-weight="normal" fill="#ffffff" >RY </text><text x="932.8" y="172.0" font-size="14.0px" dominant-baseline="middle" text-anchor="middle" font-family="Arial" font-weight="normal" fill="#ffffff" >d0_n2_0 </text><rect x="892.8" y="200.0" width="80.0" height="40" rx="4" ry="4" stroke="#ffffff" stroke-width="0" fill="#fac209" fill-opacity="1" /><text x="932.8" y="216.0" font-size="20px" dominant-baseline="middle" text-anchor="middle" font-family="Arial" font-weight="normal" fill="#ffffff" >RY </text><text x="932.8" y="232.0" font-size="14.0px" dominant-baseline="middle" text-anchor="middle" font-family="Arial" font-weight="normal" fill="#ffffff" >d0_n3_0 </text><circle cx="792.8" cy="40.0" r="4" fill="#16acff" /><line x1="792.8" x2="792.8" y1="40.0" y2="100.0" stroke="#16acff" stroke-width="3" /><rect x="772.8" y="80.0" width="40" height="40" rx="4" ry="4" stroke="#ffffff" stroke-width="0" fill="#16acff" fill-opacity="1" /><line x1="778.8" x2="806.8" y1="100.0" y2="100.0" stroke="#ffffff" stroke-width="4" /><line x1="792.8" x2="792.8" y1="86.0" y2="114.0" stroke="#ffffff" stroke-width="4" /><circle cx="1012.8" cy="100.0" r="4" fill="#16acff" /><line x1="1012.8" x2="1012.8" y1="100.0" y2="160.0" stroke="#16acff" stroke-width="3" /><rect x="992.8" y="140.0" width="40" height="40" rx="4" ry="4" stroke="#ffffff" stroke-width="0" fill="#16acff" fill-opacity="1" /><line x1="998.8" x2="1026.8" y1="160.0" y2="160.0" stroke="#ffffff" stroke-width="4" /><line x1="1012.8" x2="1012.8" y1="146.0" y2="174.0" stroke="#ffffff" stroke-width="4" /><circle cx="1072.8" cy="160.0" r="4" fill="#16acff" /><line x1="1072.8" x2="1072.8" y1="160.0" y2="220.0" stroke="#16acff" stroke-width="3" /><rect x="1052.8" y="200.0" width="40" height="40" rx="4" ry="4" stroke="#ffffff" stroke-width="0" fill="#16acff" fill-opacity="1" /><line x1="1058.8" x2="1086.8" y1="220.0" y2="220.0" stroke="#ffffff" stroke-width="4" /><line x1="1072.8" x2="1072.8" y1="206.0" y2="234.0" stroke="#ffffff" stroke-width="4" /><rect x="832.8" y="20.0" width="80.0" height="40" rx="4" ry="4" stroke="#ffffff" stroke-width="0" fill="#fac209" fill-opacity="1" /><text x="872.8" y="36.0" font-size="20px" dominant-baseline="middle" text-anchor="middle" font-family="Arial" font-weight="normal" fill="#ffffff" >RY </text><text x="872.8" y="52.0" font-size="14.0px" dominant-baseline="middle" text-anchor="middle" font-family="Arial" font-weight="normal" fill="#ffffff" >d1_n0_0 </text><rect x="1052.8" y="80.0" width="80.0" height="40" rx="4" ry="4" stroke="#ffffff" stroke-width="0" fill="#fac209" fill-opacity="1" /><text x="1092.8" y="96.0" font-size="20px" dominant-baseline="middle" text-anchor="middle" font-family="Arial" font-weight="normal" fill="#ffffff" >RY </text><text x="1092.8" y="112.0" font-size="14.0px" dominant-baseline="middle" text-anchor="middle" font-family="Arial" font-weight="normal" fill="#ffffff" >d1_n1_0 </text><rect x="1112.8" y="140.0" width="80.0" height="40" rx="4" ry="4" stroke="#ffffff" stroke-width="0" fill="#fac209" fill-opacity="1" /><text x="1152.8" y="156.0" font-size="20px" dominant-baseline="middle" text-anchor="middle" font-family="Arial" font-weight="normal" fill="#ffffff" >RY </text><text x="1152.8" y="172.0" font-size="14.0px" dominant-baseline="middle" text-anchor="middle" font-family="Arial" font-weight="normal" fill="#ffffff" >d1_n2_0 </text><rect x="1112.8" y="200.0" width="80.0" height="40" rx="4" ry="4" stroke="#ffffff" stroke-width="0" fill="#fac209" fill-opacity="1" /><text x="1152.8" y="216.0" font-size="20px" dominant-baseline="middle" text-anchor="middle" font-family="Arial" font-weight="normal" fill="#ffffff" >RY </text><text x="1152.8" y="232.0" font-size="14.0px" dominant-baseline="middle" text-anchor="middle" font-family="Arial" font-weight="normal" fill="#ffffff" >d1_n3_0 </text><circle cx="1172.8" cy="40.0" r="4" fill="#16acff" /><line x1="1172.8" x2="1172.8" y1="40.0" y2="100.0" stroke="#16acff" stroke-width="3" /><rect x="1152.8" y="80.0" width="40" height="40" rx="4" ry="4" stroke="#ffffff" stroke-width="0" fill="#16acff" fill-opacity="1" /><line x1="1158.8" x2="1186.8" y1="100.0" y2="100.0" stroke="#ffffff" stroke-width="4" /><line x1="1172.8" x2="1172.8" y1="86.0" y2="114.0" stroke="#ffffff" stroke-width="4" /><circle cx="1232.8" cy="100.0" r="4" fill="#16acff" /><line x1="1232.8" x2="1232.8" y1="100.0" y2="160.0" stroke="#16acff" stroke-width="3" /><rect x="1212.8" y="140.0" width="40" height="40" rx="4" ry="4" stroke="#ffffff" stroke-width="0" fill="#16acff" fill-opacity="1" /><line x1="1218.8" x2="1246.8" y1="160.0" y2="160.0" stroke="#ffffff" stroke-width="4" /><line x1="1232.8" x2="1232.8" y1="146.0" y2="174.0" stroke="#ffffff" stroke-width="4" /><circle cx="1292.8" cy="160.0" r="4" fill="#16acff" /><line x1="1292.8" x2="1292.8" y1="160.0" y2="220.0" stroke="#16acff" stroke-width="3" /><rect x="1272.8" y="200.0" width="40" height="40" rx="4" ry="4" stroke="#ffffff" stroke-width="0" fill="#16acff" fill-opacity="1" /><line x1="1278.8" x2="1306.8" y1="220.0" y2="220.0" stroke="#ffffff" stroke-width="4" /><line x1="1292.8" x2="1292.8" y1="206.0" y2="234.0" stroke="#ffffff" stroke-width="4" /><rect x="1212.8" y="20.0" width="80.0" height="40" rx="4" ry="4" stroke="#ffffff" stroke-width="0" fill="#fac209" fill-opacity="1" /><text x="1252.8" y="36.0" font-size="20px" dominant-baseline="middle" text-anchor="middle" font-family="Arial" font-weight="normal" fill="#ffffff" >RY </text><text x="1252.8" y="52.0" font-size="14.0px" dominant-baseline="middle" text-anchor="middle" font-family="Arial" font-weight="normal" fill="#ffffff" >d2_n0_0 </text><rect x="1272.8" y="80.0" width="80.0" height="40" rx="4" ry="4" stroke="#ffffff" stroke-width="0" fill="#fac209" fill-opacity="1" /><text x="1312.8" y="96.0" font-size="20px" dominant-baseline="middle" text-anchor="middle" font-family="Arial" font-weight="normal" fill="#ffffff" >RY </text><text x="1312.8" y="112.0" font-size="14.0px" dominant-baseline="middle" text-anchor="middle" font-family="Arial" font-weight="normal" fill="#ffffff" >d2_n1_0 </text><rect x="1332.8" y="140.0" width="80.0" height="40" rx="4" ry="4" stroke="#ffffff" stroke-width="0" fill="#fac209" fill-opacity="1" /><text x="1372.8" y="156.0" font-size="20px" dominant-baseline="middle" text-anchor="middle" font-family="Arial" font-weight="normal" fill="#ffffff" >RY </text><text x="1372.8" y="172.0" font-size="14.0px" dominant-baseline="middle" text-anchor="middle" font-family="Arial" font-weight="normal" fill="#ffffff" >d2_n2_0 </text><rect x="1332.8" y="200.0" width="80.0" height="40" rx="4" ry="4" stroke="#ffffff" stroke-width="0" fill="#fac209" fill-opacity="1" /><text x="1372.8" y="216.0" font-size="20px" dominant-baseline="middle" text-anchor="middle" font-family="Arial" font-weight="normal" fill="#ffffff" >RY </text><text x="1372.8" y="232.0" font-size="14.0px" dominant-baseline="middle" text-anchor="middle" font-family="Arial" font-weight="normal" fill="#ffffff" >d2_n3_0 </text><circle cx="1392.8" cy="40.0" r="4" fill="#16acff" /><line x1="1392.8" x2="1392.8" y1="40.0" y2="100.0" stroke="#16acff" stroke-width="3" /><rect x="1372.8" y="80.0" width="40" height="40" rx="4" ry="4" stroke="#ffffff" stroke-width="0" fill="#16acff" fill-opacity="1" /><line x1="1378.8" x2="1406.8" y1="100.0" y2="100.0" stroke="#ffffff" stroke-width="4" /><line x1="1392.8" x2="1392.8" y1="86.0" y2="114.0" stroke="#ffffff" stroke-width="4" /><circle cx="1452.8" cy="100.0" r="4" fill="#16acff" /><line x1="1452.8" x2="1452.8" y1="100.0" y2="160.0" stroke="#16acff" stroke-width="3" /><rect x="1432.8" y="140.0" width="40" height="40" rx="4" ry="4" stroke="#ffffff" stroke-width="0" fill="#16acff" fill-opacity="1" /><line x1="1438.8" x2="1466.8" y1="160.0" y2="160.0" stroke="#ffffff" stroke-width="4" /><line x1="1452.8" x2="1452.8" y1="146.0" y2="174.0" stroke="#ffffff" stroke-width="4" /><circle cx="1512.8" cy="160.0" r="4" fill="#16acff" /><line x1="1512.8" x2="1512.8" y1="160.0" y2="220.0" stroke="#16acff" stroke-width="3" /><rect x="1492.8" y="200.0" width="40" height="40" rx="4" ry="4" stroke="#ffffff" stroke-width="0" fill="#16acff" fill-opacity="1" /><line x1="1498.8" x2="1526.8" y1="220.0" y2="220.0" stroke="#ffffff" stroke-width="4" /><line x1="1512.8" x2="1512.8" y1="206.0" y2="234.0" stroke="#ffffff" stroke-width="4" /><rect x="1432.8" y="20.0" width="80.0" height="40" rx="4" ry="4" stroke="#ffffff" stroke-width="0" fill="#fac209" fill-opacity="1" /><text x="1472.8" y="36.0" font-size="20px" dominant-baseline="middle" text-anchor="middle" font-family="Arial" font-weight="normal" fill="#ffffff" >RY </text><text x="1472.8" y="52.0" font-size="14.0px" dominant-baseline="middle" text-anchor="middle" font-family="Arial" font-weight="normal" fill="#ffffff" >d3_n0_0 </text><rect x="1492.8" y="80.0" width="80.0" height="40" rx="4" ry="4" stroke="#ffffff" stroke-width="0" fill="#fac209" fill-opacity="1" /><text x="1532.8" y="96.0" font-size="20px" dominant-baseline="middle" text-anchor="middle" font-family="Arial" font-weight="normal" fill="#ffffff" >RY </text><text x="1532.8" y="112.0" font-size="14.0px" dominant-baseline="middle" text-anchor="middle" font-family="Arial" font-weight="normal" fill="#ffffff" >d3_n1_0 </text><rect x="1552.8" y="140.0" width="80.0" height="40" rx="4" ry="4" stroke="#ffffff" stroke-width="0" fill="#fac209" fill-opacity="1" /><text x="1592.8" y="156.0" font-size="20px" dominant-baseline="middle" text-anchor="middle" font-family="Arial" font-weight="normal" fill="#ffffff" >RY </text><text x="1592.8" y="172.0" font-size="14.0px" dominant-baseline="middle" text-anchor="middle" font-family="Arial" font-weight="normal" fill="#ffffff" >d3_n2_0 </text><rect x="1552.8" y="200.0" width="80.0" height="40" rx="4" ry="4" stroke="#ffffff" stroke-width="0" fill="#fac209" fill-opacity="1" /><text x="1592.8" y="216.0" font-size="20px" dominant-baseline="middle" text-anchor="middle" font-family="Arial" font-weight="normal" fill="#ffffff" >RY </text><text x="1592.8" y="232.0" font-size="14.0px" dominant-baseline="middle" text-anchor="middle" font-family="Arial" font-weight="normal" fill="#ffffff" >d3_n3_0 </text></svg>