<svg xmlns="http://www.w3.org/2000/svg" width="816.8" height="200.0" xmlns:xlink="http://www.w3.org/1999/xlink">
<rect x="0" y="0.0" width="816.8" height="200.0" fill="#ffffff" />
<text x="20.0" y="40.0" font-size="16px" dominant-baseline="middle" text-anchor="start" font-family="Arial" font-weight="normal" fill="#252b3a" >
q0:
 </text>
<text x="20.0" y="100.0" font-size="16px" dominant-baseline="middle" text-anchor="start" font-family="Arial" font-weight="normal" fill="#252b3a" >
q1:
 </text>
<text x="20.0" y="160.0" font-size="16px" dominant-baseline="middle" text-anchor="start" font-family="Arial" font-weight="normal" fill="#252b3a" >
q2:
 </text>
<line x1="48.8" x2="796.8" y1="40.0" y2="40.0" stroke="#adb0b8" stroke-width="1" />
<line x1="48.8" x2="796.8" y1="100.0" y2="100.0" stroke="#adb0b8" stroke-width="1" />
<line x1="48.8" x2="796.8" y1="160.0" y2="160.0" stroke="#adb0b8" stroke-width="1" />

<rect x="72.8" y="140.0" width="80.0" height="40" rx="4" ry="4" stroke="#ffffff" stroke-width="0" fill="#fac209" fill-opacity="1" />
<text x="112.8" y="156.0" font-size="20px" dominant-baseline="middle" text-anchor="middle" font-family="Arial" font-weight="normal" fill="#ffffff" >
RX
 </text>
<text x="112.8" y="172.0" font-size="14.0px" dominant-baseline="middle" text-anchor="middle" font-family="Arial" font-weight="normal" fill="#ffffff" >
-theta2
 </text>

<circle cx="92.8" cy="100.0" r="4" fill="#16acff" />
<line x1="92.8" x2="92.8" y1="40.0" y2="100.0" stroke="#16acff" stroke-width="3" />
<rect x="72.8" y="20.0" width="40" height="40" rx="4" ry="4" stroke="#ffffff" stroke-width="0" fill="#16acff" fill-opacity="1" />
<line x1="78.8" x2="106.8" y1="40.0" y2="40.0" stroke="#ffffff" stroke-width="4" />
<line x1="92.8" x2="92.8" y1="26.0" y2="54.0" stroke="#ffffff" stroke-width="4" />
<circle cx="192.8" cy="100.0" r="4" fill="#16acff" />
<line x1="192.8" x2="192.8" y1="100.0" y2="160.0" stroke="#16acff" stroke-width="3" />
<rect x="172.8" y="140.0" width="40" height="40" rx="4" ry="4" stroke="#ffffff" stroke-width="0" fill="#16acff" fill-opacity="1" />
<line x1="178.8" x2="206.8" y1="160.0" y2="160.0" stroke="#ffffff" stroke-width="4" />
<line x1="192.8" x2="192.8" y1="146.0" y2="174.0" stroke="#ffffff" stroke-width="4" />

<rect x="132.8" y="20.0" width="80.0" height="40" rx="4" ry="4" stroke="#ffffff" stroke-width="0" fill="#fac209" fill-opacity="1" />
<text x="172.8" y="36.0" font-size="20px" dominant-baseline="middle" text-anchor="middle" font-family="Arial" font-weight="normal" fill="#ffffff" >
RZ
 </text>
<text x="172.8" y="52.0" font-size="14.0px" dominant-baseline="middle" text-anchor="middle" font-family="Arial" font-weight="normal" fill="#ffffff" >
-theta1
 </text>

<circle cx="252.8" cy="100.0" r="4" fill="#16acff" />
<line x1="252.8" x2="252.8" y1="40.0" y2="100.0" stroke="#16acff" stroke-width="3" />
<rect x="232.8" y="20.0" width="40" height="40" rx="4" ry="4" stroke="#ffffff" stroke-width="0" fill="#16acff" fill-opacity="1" />
<line x1="238.8" x2="266.8" y1="40.0" y2="40.0" stroke="#ffffff" stroke-width="4" />
<line x1="252.8" x2="252.8" y1="26.0" y2="54.0" stroke="#ffffff" stroke-width="4" />

<rect x="232.8" y="140.0" width="80.0" height="40" rx="4" ry="4" stroke="#ffffff" stroke-width="0" fill="#fac209" fill-opacity="1" />
<text x="272.8" y="156.0" font-size="20px" dominant-baseline="middle" text-anchor="middle" font-family="Arial" font-weight="normal" fill="#ffffff" >
RX
 </text>
<text x="272.8" y="172.0" font-size="14.0px" dominant-baseline="middle" text-anchor="middle" font-family="Arial" font-weight="normal" fill="#ffffff" >
-theta0
 </text>


<rect x="292.8" y="80.0" width="40.0" height="40" rx="4" ry="4" stroke="#ffffff" stroke-width="0" fill="#5e7ce0" fill-opacity="1" />
<text x="312.8" y="100.0" font-size="20px" dominant-baseline="middle" text-anchor="middle" font-family="Arial" font-weight="normal" fill="#ffffff" >
H
 </text>


<rect x="352.8" y="80.0" width="40.0" height="40" rx="4" ry="4" stroke="#ffffff" stroke-width="0" fill="#5e7ce0" fill-opacity="1" />
<text x="372.8" y="100.0" font-size="20px" dominant-baseline="middle" text-anchor="middle" font-family="Arial" font-weight="normal" fill="#ffffff" >
H
 </text>


<rect x="332.8" y="140.0" width="80.0" height="40" rx="4" ry="4" stroke="#ffffff" stroke-width="0" fill="#fac209" fill-opacity="1" />
<text x="372.8" y="156.0" font-size="20px" dominant-baseline="middle" text-anchor="middle" font-family="Arial" font-weight="normal" fill="#ffffff" >
RX
 </text>
<text x="372.8" y="172.0" font-size="14.0px" dominant-baseline="middle" text-anchor="middle" font-family="Arial" font-weight="normal" fill="#ffffff" >
theta0
 </text>

<circle cx="432.8" cy="100.0" r="4" fill="#16acff" />
<line x1="432.8" x2="432.8" y1="40.0" y2="100.0" stroke="#16acff" stroke-width="3" />
<rect x="412.8" y="20.0" width="40" height="40" rx="4" ry="4" stroke="#ffffff" stroke-width="0" fill="#16acff" fill-opacity="1" />
<line x1="418.8" x2="446.8" y1="40.0" y2="40.0" stroke="#ffffff" stroke-width="4" />
<line x1="432.8" x2="432.8" y1="26.0" y2="54.0" stroke="#ffffff" stroke-width="4" />

<rect x="472.8" y="20.0" width="80.0" height="40" rx="4" ry="4" stroke="#ffffff" stroke-width="0" fill="#fac209" fill-opacity="1" />
<text x="512.8" y="36.0" font-size="20px" dominant-baseline="middle" text-anchor="middle" font-family="Arial" font-weight="normal" fill="#ffffff" >
RZ
 </text>
<text x="512.8" y="52.0" font-size="14.0px" dominant-baseline="middle" text-anchor="middle" font-family="Arial" font-weight="normal" fill="#ffffff" >
theta1
 </text>

<circle cx="492.8" cy="100.0" r="4" fill="#16acff" />
<line x1="492.8" x2="492.8" y1="100.0" y2="160.0" stroke="#16acff" stroke-width="3" />
<rect x="472.8" y="140.0" width="40" height="40" rx="4" ry="4" stroke="#ffffff" stroke-width="0" fill="#16acff" fill-opacity="1" />
<line x1="478.8" x2="506.8" y1="160.0" y2="160.0" stroke="#ffffff" stroke-width="4" />
<line x1="492.8" x2="492.8" y1="146.0" y2="174.0" stroke="#ffffff" stroke-width="4" />
<circle cx="592.8" cy="100.0" r="4" fill="#16acff" />
<line x1="592.8" x2="592.8" y1="40.0" y2="100.0" stroke="#16acff" stroke-width="3" />
<rect x="572.8" y="20.0" width="40" height="40" rx="4" ry="4" stroke="#ffffff" stroke-width="0" fill="#16acff" fill-opacity="1" />
<line x1="578.8" x2="606.8" y1="40.0" y2="40.0" stroke="#ffffff" stroke-width="4" />
<line x1="592.8" x2="592.8" y1="26.0" y2="54.0" stroke="#ffffff" stroke-width="4" />

<rect x="532.8" y="140.0" width="240.0" height="40" rx="4" ry="4" stroke="#ffffff" stroke-width="0" fill="#fac209" fill-opacity="1" />
<text x="652.8" y="156.0" font-size="20px" dominant-baseline="middle" text-anchor="middle" font-family="Arial" font-weight="normal" fill="#ffffff" >
RX
 </text>
<text x="652.8" y="172.0" font-size="14.0px" dominant-baseline="middle" text-anchor="middle" font-family="Arial" font-weight="normal" fill="#ffffff" >
theta0 + theta1 + theta2
 </text>

</svg>