<svg xmlns="http://www.w3.org/2000/svg" width="316.8" height="80.0" xmlns:xlink="http://www.w3.org/1999/xlink"><rect x="0" y="0.0" width="316.8" height="80.0" fill="#ffffff" /><text x="20.0" y="40.0" font-size="16px" dominant-baseline="middle" text-anchor="start" font-family="Arial" font-weight="normal" fill="#252b3a" >q0: </text><line x1="48.8" x2="296.8" y1="40.0" y2="40.0" stroke="#adb0b8" stroke-width="1" /><rect x="72.8" y="20.0" width="40.0" height="40" rx="4" ry="4" stroke="#ffffff" stroke-width="0" fill="#5e7ce0" fill-opacity="1" /><text x="92.8" y="40.0" font-size="20px" dominant-baseline="middle" text-anchor="middle" font-family="Arial" font-weight="normal" fill="#ffffff" >X </text><rect x="132.8" y="20.0" width="80.0" height="40" rx="4" ry="4" stroke="#ffffff" stroke-width="0" fill="#c77532" fill-opacity="1" /><text x="172.8" y="36.0" font-size="20px" dominant-baseline="middle" text-anchor="middle" font-family="Arial" font-weight="normal" fill="#ffffff" >DC </text><text x="172.8" y="52.0" font-size="14.0px" dominant-baseline="middle" text-anchor="middle" font-family="Arial" font-weight="normal" fill="#ffffff" >p=1/10 </text><rect x="232.8" y="20.0" width="40" height="40" rx="4" ry="4" stroke="#ffffff" stroke-width="0" fill="#ff7272" fill-opacity="1" /><circle cx="252.8" cy="50.4" r="1.6" fill="#ffffff" /><path d="M 240.0 50.4 A 12.8 12.8 0 0 1 265.6 50.4" stroke="#ffffff" stroke-width="2.4000000000000004" fill-opacity="0" /><path d="M 256.9018483174859 33.93539030917347 L 265.21569219381655 29.135390309173467 L 265.21569219381655 38.73539030917347 L 261.8901546432843 36.815390309173466 L 254.04707658144957 50.4 L 252.38430780618347 49.44 L 260.2273858680182 35.85539030917347 Z" fill="#ffffff" /></svg>