<svg xmlns="http://www.w3.org/2000/svg" width="1920.8" height="320.0" xmlns:xlink="http://www.w3.org/1999/xlink"><rect x="0" y="0.0" width="1920.8" height="320.0" fill="#ffffff" /><text x="20.0" y="40.0" font-size="16px" dominant-baseline="middle" text-anchor="start" font-family="Arial" font-weight="normal" fill="#252b3a" >q0: </text><text x="20.0" y="100.0" font-size="16px" dominant-baseline="middle" text-anchor="start" font-family="Arial" font-weight="normal" fill="#252b3a" >q1: </text><text x="20.0" y="160.0" font-size="16px" dominant-baseline="middle" text-anchor="start" font-family="Arial" font-weight="normal" fill="#252b3a" >q2: </text><text x="20.0" y="220.0" font-size="16px" dominant-baseline="middle" text-anchor="start" font-family="Arial" font-weight="normal" fill="#252b3a" >q3: </text><text x="20.0" y="280.0" font-size="16px" dominant-baseline="middle" text-anchor="start" font-family="Arial" font-weight="normal" fill="#252b3a" >q4: </text><line x1="48.8" x2="1900.8" y1="40.0" y2="40.0" stroke="#adb0b8" stroke-width="1" /><line x1="48.8" x2="1900.8" y1="100.0" y2="100.0" stroke="#adb0b8" stroke-width="1" /><line x1="48.8" x2="1900.8" y1="160.0" y2="160.0" stroke="#adb0b8" stroke-width="1" /><line x1="48.8" x2="1900.8" y1="220.0" y2="220.0" stroke="#adb0b8" stroke-width="1" /><line x1="48.8" x2="1900.8" y1="280.0" y2="280.0" stroke="#adb0b8" stroke-width="1" /><rect x="72.8" y="20.0" width="40.0" height="40" rx="4" ry="4" stroke="#ffffff" stroke-width="0" fill="#5e7ce0" fill-opacity="1" /><text x="92.8" y="40.0" font-size="20px" dominant-baseline="middle" text-anchor="middle" font-family="Arial" font-weight="normal" fill="#ffffff" >H </text><rect x="72.8" y="80.0" width="40.0" height="40" rx="4" ry="4" stroke="#ffffff" stroke-width="0" fill="#5e7ce0" fill-opacity="1" /><text x="92.8" y="100.0" font-size="20px" dominant-baseline="middle" text-anchor="middle" font-family="Arial" font-weight="normal" fill="#ffffff" >H </text><rect x="72.8" y="140.0" width="40.0" height="40" rx="4" ry="4" stroke="#ffffff" stroke-width="0" fill="#5e7ce0" fill-opacity="1" /><text x="92.8" y="160.0" font-size="20px" dominant-baseline="middle" text-anchor="middle" font-family="Arial" font-weight="normal" fill="#ffffff" >H </text><rect x="72.8" y="200.0" width="40.0" height="40" rx="4" ry="4" stroke="#ffffff" stroke-width="0" fill="#5e7ce0" fill-opacity="1" /><text x="92.8" y="220.0" font-size="20px" dominant-baseline="middle" text-anchor="middle" font-family="Arial" font-weight="normal" fill="#ffffff" >H </text><rect x="72.8" y="260.0" width="40.0" height="40" rx="4" ry="4" stroke="#ffffff" stroke-width="0" fill="#5e7ce0" fill-opacity="1" /><text x="92.8" y="280.0" font-size="20px" dominant-baseline="middle" text-anchor="middle" font-family="Arial" font-weight="normal" fill="#ffffff" >H </text><rect x="132.8" y="20.0" width="40.0" height="100" rx="4" ry="4" stroke="#ffffff" stroke-width="0" fill="#fac209" fill-opacity="1" /><text x="152.8" y="66.0" font-size="20px" dominant-baseline="middle" text-anchor="middle" font-family="Arial" font-weight="normal" fill="#ffffff" >Rzz </text><text x="152.8" y="82.0" font-size="14.0px" dominant-baseline="middle" text-anchor="middle" font-family="Arial" font-weight="normal" fill="#ffffff" >g0 </text><rect x="192.8" y="20.0" width="40.0" height="280" rx="4" ry="4" stroke="#ffffff" stroke-width="0" fill="#fac209" fill-opacity="1" /><text x="212.8" y="156.0" font-size="20px" dominant-baseline="middle" text-anchor="middle" font-family="Arial" font-weight="normal" fill="#ffffff" >Rzz </text><text x="212.8" y="172.0" font-size="14.0px" dominant-baseline="middle" text-anchor="middle" font-family="Arial" font-weight="normal" fill="#ffffff" >g0 </text><circle cx="192.8" cy="40.0" r="4" fill="#fac209" /><circle cx="232.8" cy="40.0" r="4" fill="#fac209" /><circle cx="192.8" cy="280.0" r="4" fill="#fac209" /><circle cx="232.8" cy="280.0" r="4" fill="#fac209" /><rect x="260.8" y="20.0" width="40.0" height="160" rx="4" ry="4" stroke="#ffffff" stroke-width="0" fill="#fac209" fill-opacity="1" /><text x="280.8" y="96.0" font-size="20px" dominant-baseline="middle" text-anchor="middle" font-family="Arial" font-weight="normal" fill="#ffffff" >Rzz </text><text x="280.8" y="112.0" font-size="14.0px" dominant-baseline="middle" text-anchor="middle" font-family="Arial" font-weight="normal" fill="#ffffff" >g0 </text><circle cx="260.8" cy="40.0" r="4" fill="#fac209" /><circle cx="300.8" cy="40.0" r="4" fill="#fac209" /><circle cx="260.8" cy="160.0" r="4" fill="#fac209" /><circle cx="300.8" cy="160.0" r="4" fill="#fac209" /><rect x="328.8" y="80.0" width="40.0" height="100" rx="4" ry="4" stroke="#ffffff" stroke-width="0" fill="#fac209" fill-opacity="1" /><text x="348.8" y="126.0" font-size="20px" dominant-baseline="middle" text-anchor="middle" font-family="Arial" font-weight="normal" fill="#ffffff" >Rzz </text><text x="348.8" y="142.0" font-size="14.0px" dominant-baseline="middle" text-anchor="middle" font-family="Arial" font-weight="normal" fill="#ffffff" >g0 </text><rect x="388.8" y="140.0" width="40.0" height="100" rx="4" ry="4" stroke="#ffffff" stroke-width="0" fill="#fac209" fill-opacity="1" /><text x="408.8" y="186.0" font-size="20px" dominant-baseline="middle" text-anchor="middle" font-family="Arial" font-weight="normal" fill="#ffffff" >Rzz </text><text x="408.8" y="202.0" font-size="14.0px" dominant-baseline="middle" text-anchor="middle" font-family="Arial" font-weight="normal" fill="#ffffff" >g0 </text><rect x="448.8" y="200.0" width="40.0" height="100" rx="4" ry="4" stroke="#ffffff" stroke-width="0" fill="#fac209" fill-opacity="1" /><text x="468.8" y="246.0" font-size="20px" dominant-baseline="middle" text-anchor="middle" font-family="Arial" font-weight="normal" fill="#ffffff" >Rzz </text><text x="468.8" y="262.0" font-size="14.0px" dominant-baseline="middle" text-anchor="middle" font-family="Arial" font-weight="normal" fill="#ffffff" >g0 </text><rect x="508.8" y="20.0" width="0" height="280" fill="gray" fill-opacity="0.8" /><rect x="508.8" y="20.0" width="40.0" height="40" rx="4" ry="4" stroke="#ffffff" stroke-width="0" fill="#fac209" fill-opacity="1" /><text x="528.8" y="36.0" font-size="20px" dominant-baseline="middle" text-anchor="middle" font-family="Arial" font-weight="normal" fill="#ffffff" >RX </text><text x="528.8" y="52.0" font-size="14.0px" dominant-baseline="middle" text-anchor="middle" font-family="Arial" font-weight="normal" fill="#ffffff" >b0 </text><rect x="508.8" y="80.0" width="40.0" height="40" rx="4" ry="4" stroke="#ffffff" stroke-width="0" fill="#fac209" fill-opacity="1" /><text x="528.8" y="96.0" font-size="20px" dominant-baseline="middle" text-anchor="middle" font-family="Arial" font-weight="normal" fill="#ffffff" >RX </text><text x="528.8" y="112.0" font-size="14.0px" dominant-baseline="middle" text-anchor="middle" font-family="Arial" font-weight="normal" fill="#ffffff" >b0 </text><rect x="508.8" y="140.0" width="40.0" height="40" rx="4" ry="4" stroke="#ffffff" stroke-width="0" fill="#fac209" fill-opacity="1" /><text x="528.8" y="156.0" font-size="20px" dominant-baseline="middle" text-anchor="middle" font-family="Arial" font-weight="normal" fill="#ffffff" >RX </text><text x="528.8" y="172.0" font-size="14.0px" dominant-baseline="middle" text-anchor="middle" font-family="Arial" font-weight="normal" fill="#ffffff" >b0 </text><rect x="508.8" y="200.0" width="40.0" height="40" rx="4" ry="4" stroke="#ffffff" stroke-width="0" fill="#fac209" fill-opacity="1" /><text x="528.8" y="216.0" font-size="20px" dominant-baseline="middle" text-anchor="middle" font-family="Arial" font-weight="normal" fill="#ffffff" >RX </text><text x="528.8" y="232.0" font-size="14.0px" dominant-baseline="middle" text-anchor="middle" font-family="Arial" font-weight="normal" fill="#ffffff" >b0 </text><rect x="508.8" y="260.0" width="40.0" height="40" rx="4" ry="4" stroke="#ffffff" stroke-width="0" fill="#fac209" fill-opacity="1" /><text x="528.8" y="276.0" font-size="20px" dominant-baseline="middle" text-anchor="middle" font-family="Arial" font-weight="normal" fill="#ffffff" >RX </text><text x="528.8" y="292.0" font-size="14.0px" dominant-baseline="middle" text-anchor="middle" font-family="Arial" font-weight="normal" fill="#ffffff" >b0 </text><rect x="568.8" y="20.0" width="0" height="280" fill="gray" fill-opacity="0.8" /><rect x="568.8" y="20.0" width="40.0" height="100" rx="4" ry="4" stroke="#ffffff" stroke-width="0" fill="#fac209" fill-opacity="1" /><text x="588.8" y="66.0" font-size="20px" dominant-baseline="middle" text-anchor="middle" font-family="Arial" font-weight="normal" fill="#ffffff" >Rzz </text><text x="588.8" y="82.0" font-size="14.0px" dominant-baseline="middle" text-anchor="middle" font-family="Arial" font-weight="normal" fill="#ffffff" >g1 </text><rect x="628.8" y="20.0" width="40.0" height="280" rx="4" ry="4" stroke="#ffffff" stroke-width="0" fill="#fac209" fill-opacity="1" /><text x="648.8" y="156.0" font-size="20px" dominant-baseline="middle" text-anchor="middle" font-family="Arial" font-weight="normal" fill="#ffffff" >Rzz </text><text x="648.8" y="172.0" font-size="14.0px" dominant-baseline="middle" text-anchor="middle" font-family="Arial" font-weight="normal" fill="#ffffff" >g1 </text><circle cx="628.8" cy="40.0" r="4" fill="#fac209" /><circle cx="668.8" cy="40.0" r="4" fill="#fac209" /><circle cx="628.8" cy="280.0" r="4" fill="#fac209" /><circle cx="668.8" cy="280.0" r="4" fill="#fac209" /><rect x="696.8" y="20.0" width="40.0" height="160" rx="4" ry="4" stroke="#ffffff" stroke-width="0" fill="#fac209" fill-opacity="1" /><text x="716.8" y="96.0" font-size="20px" dominant-baseline="middle" text-anchor="middle" font-family="Arial" font-weight="normal" fill="#ffffff" >Rzz </text><text x="716.8" y="112.0" font-size="14.0px" dominant-baseline="middle" text-anchor="middle" font-family="Arial" font-weight="normal" fill="#ffffff" >g1 </text><circle cx="696.8" cy="40.0" r="4" fill="#fac209" /><circle cx="736.8" cy="40.0" r="4" fill="#fac209" /><circle cx="696.8" cy="160.0" r="4" fill="#fac209" /><circle cx="736.8" cy="160.0" r="4" fill="#fac209" /><rect x="764.8" y="80.0" width="40.0" height="100" rx="4" ry="4" stroke="#ffffff" stroke-width="0" fill="#fac209" fill-opacity="1" /><text x="784.8" y="126.0" font-size="20px" dominant-baseline="middle" text-anchor="middle" font-family="Arial" font-weight="normal" fill="#ffffff" >Rzz </text><text x="784.8" y="142.0" font-size="14.0px" dominant-baseline="middle" text-anchor="middle" font-family="Arial" font-weight="normal" fill="#ffffff" >g1 </text><rect x="824.8" y="140.0" width="40.0" height="100" rx="4" ry="4" stroke="#ffffff" stroke-width="0" fill="#fac209" fill-opacity="1" /><text x="844.8" y="186.0" font-size="20px" dominant-baseline="middle" text-anchor="middle" font-family="Arial" font-weight="normal" fill="#ffffff" >Rzz </text><text x="844.8" y="202.0" font-size="14.0px" dominant-baseline="middle" text-anchor="middle" font-family="Arial" font-weight="normal" fill="#ffffff" >g1 </text><rect x="884.8" y="200.0" width="40.0" height="100" rx="4" ry="4" stroke="#ffffff" stroke-width="0" fill="#fac209" fill-opacity="1" /><text x="904.8" y="246.0" font-size="20px" dominant-baseline="middle" text-anchor="middle" font-family="Arial" font-weight="normal" fill="#ffffff" >Rzz </text><text x="904.8" y="262.0" font-size="14.0px" dominant-baseline="middle" text-anchor="middle" font-family="Arial" font-weight="normal" fill="#ffffff" >g1 </text><rect x="944.8" y="20.0" width="0" height="280" fill="gray" fill-opacity="0.8" /><rect x="944.8" y="20.0" width="40.0" height="40" rx="4" ry="4" stroke="#ffffff" stroke-width="0" fill="#fac209" fill-opacity="1" /><text x="964.8" y="36.0" font-size="20px" dominant-baseline="middle" text-anchor="middle" font-family="Arial" font-weight="normal" fill="#ffffff" >RX </text><text x="964.8" y="52.0" font-size="14.0px" dominant-baseline="middle" text-anchor="middle" font-family="Arial" font-weight="normal" fill="#ffffff" >b1 </text><rect x="944.8" y="80.0" width="40.0" height="40" rx="4" ry="4" stroke="#ffffff" stroke-width="0" fill="#fac209" fill-opacity="1" /><text x="964.8" y="96.0" font-size="20px" dominant-baseline="middle" text-anchor="middle" font-family="Arial" font-weight="normal" fill="#ffffff" >RX </text><text x="964.8" y="112.0" font-size="14.0px" dominant-baseline="middle" text-anchor="middle" font-family="Arial" font-weight="normal" fill="#ffffff" >b1 </text><rect x="944.8" y="140.0" width="40.0" height="40" rx="4" ry="4" stroke="#ffffff" stroke-width="0" fill="#fac209" fill-opacity="1" /><text x="964.8" y="156.0" font-size="20px" dominant-baseline="middle" text-anchor="middle" font-family="Arial" font-weight="normal" fill="#ffffff" >RX </text><text x="964.8" y="172.0" font-size="14.0px" dominant-baseline="middle" text-anchor="middle" font-family="Arial" font-weight="normal" fill="#ffffff" >b1 </text><rect x="944.8" y="200.0" width="40.0" height="40" rx="4" ry="4" stroke="#ffffff" stroke-width="0" fill="#fac209" fill-opacity="1" /><text x="964.8" y="216.0" font-size="20px" dominant-baseline="middle" text-anchor="middle" font-family="Arial" font-weight="normal" fill="#ffffff" >RX </text><text x="964.8" y="232.0" font-size="14.0px" dominant-baseline="middle" text-anchor="middle" font-family="Arial" font-weight="normal" fill="#ffffff" >b1 </text><rect x="944.8" y="260.0" width="40.0" height="40" rx="4" ry="4" stroke="#ffffff" stroke-width="0" fill="#fac209" fill-opacity="1" /><text x="964.8" y="276.0" font-size="20px" dominant-baseline="middle" text-anchor="middle" font-family="Arial" font-weight="normal" fill="#ffffff" >RX </text><text x="964.8" y="292.0" font-size="14.0px" dominant-baseline="middle" text-anchor="middle" font-family="Arial" font-weight="normal" fill="#ffffff" >b1 </text><rect x="1004.8" y="20.0" width="0" height="280" fill="gray" fill-opacity="0.8" /><rect x="1004.8" y="20.0" width="40.0" height="100" rx="4" ry="4" stroke="#ffffff" stroke-width="0" fill="#fac209" fill-opacity="1" /><text x="1024.8" y="66.0" font-size="20px" dominant-baseline="middle" text-anchor="middle" font-family="Arial" font-weight="normal" fill="#ffffff" >Rzz </text><text x="1024.8" y="82.0" font-size="14.0px" dominant-baseline="middle" text-anchor="middle" font-family="Arial" font-weight="normal" fill="#ffffff" >g2 </text><rect x="1064.8" y="20.0" width="40.0" height="280" rx="4" ry="4" stroke="#ffffff" stroke-width="0" fill="#fac209" fill-opacity="1" /><text x="1084.8" y="156.0" font-size="20px" dominant-baseline="middle" text-anchor="middle" font-family="Arial" font-weight="normal" fill="#ffffff" >Rzz </text><text x="1084.8" y="172.0" font-size="14.0px" dominant-baseline="middle" text-anchor="middle" font-family="Arial" font-weight="normal" fill="#ffffff" >g2 </text><circle cx="1064.8" cy="40.0" r="4" fill="#fac209" /><circle cx="1104.8" cy="40.0" r="4" fill="#fac209" /><circle cx="1064.8" cy="280.0" r="4" fill="#fac209" /><circle cx="1104.8" cy="280.0" r="4" fill="#fac209" /><rect x="1132.8" y="20.0" width="40.0" height="160" rx="4" ry="4" stroke="#ffffff" stroke-width="0" fill="#fac209" fill-opacity="1" /><text x="1152.8" y="96.0" font-size="20px" dominant-baseline="middle" text-anchor="middle" font-family="Arial" font-weight="normal" fill="#ffffff" >Rzz </text><text x="1152.8" y="112.0" font-size="14.0px" dominant-baseline="middle" text-anchor="middle" font-family="Arial" font-weight="normal" fill="#ffffff" >g2 </text><circle cx="1132.8" cy="40.0" r="4" fill="#fac209" /><circle cx="1172.8" cy="40.0" r="4" fill="#fac209" /><circle cx="1132.8" cy="160.0" r="4" fill="#fac209" /><circle cx="1172.8" cy="160.0" r="4" fill="#fac209" /><rect x="1200.8" y="80.0" width="40.0" height="100" rx="4" ry="4" stroke="#ffffff" stroke-width="0" fill="#fac209" fill-opacity="1" /><text x="1220.8" y="126.0" font-size="20px" dominant-baseline="middle" text-anchor="middle" font-family="Arial" font-weight="normal" fill="#ffffff" >Rzz </text><text x="1220.8" y="142.0" font-size="14.0px" dominant-baseline="middle" text-anchor="middle" font-family="Arial" font-weight="normal" fill="#ffffff" >g2 </text><rect x="1260.8" y="140.0" width="40.0" height="100" rx="4" ry="4" stroke="#ffffff" stroke-width="0" fill="#fac209" fill-opacity="1" /><text x="1280.8" y="186.0" font-size="20px" dominant-baseline="middle" text-anchor="middle" font-family="Arial" font-weight="normal" fill="#ffffff" >Rzz </text><text x="1280.8" y="202.0" font-size="14.0px" dominant-baseline="middle" text-anchor="middle" font-family="Arial" font-weight="normal" fill="#ffffff" >g2 </text><rect x="1320.8" y="200.0" width="40.0" height="100" rx="4" ry="4" stroke="#ffffff" stroke-width="0" fill="#fac209" fill-opacity="1" /><text x="1340.8" y="246.0" font-size="20px" dominant-baseline="middle" text-anchor="middle" font-family="Arial" font-weight="normal" fill="#ffffff" >Rzz </text><text x="1340.8" y="262.0" font-size="14.0px" dominant-baseline="middle" text-anchor="middle" font-family="Arial" font-weight="normal" fill="#ffffff" >g2 </text><rect x="1380.8" y="20.0" width="0" height="280" fill="gray" fill-opacity="0.8" /><rect x="1380.8" y="20.0" width="40.0" height="40" rx="4" ry="4" stroke="#ffffff" stroke-width="0" fill="#fac209" fill-opacity="1" /><text x="1400.8" y="36.0" font-size="20px" dominant-baseline="middle" text-anchor="middle" font-family="Arial" font-weight="normal" fill="#ffffff" >RX </text><text x="1400.8" y="52.0" font-size="14.0px" dominant-baseline="middle" text-anchor="middle" font-family="Arial" font-weight="normal" fill="#ffffff" >b2 </text><rect x="1380.8" y="80.0" width="40.0" height="40" rx="4" ry="4" stroke="#ffffff" stroke-width="0" fill="#fac209" fill-opacity="1" /><text x="1400.8" y="96.0" font-size="20px" dominant-baseline="middle" text-anchor="middle" font-family="Arial" font-weight="normal" fill="#ffffff" >RX </text><text x="1400.8" y="112.0" font-size="14.0px" dominant-baseline="middle" text-anchor="middle" font-family="Arial" font-weight="normal" fill="#ffffff" >b2 </text><rect x="1380.8" y="140.0" width="40.0" height="40" rx="4" ry="4" stroke="#ffffff" stroke-width="0" fill="#fac209" fill-opacity="1" /><text x="1400.8" y="156.0" font-size="20px" dominant-baseline="middle" text-anchor="middle" font-family="Arial" font-weight="normal" fill="#ffffff" >RX </text><text x="1400.8" y="172.0" font-size="14.0px" dominant-baseline="middle" text-anchor="middle" font-family="Arial" font-weight="normal" fill="#ffffff" >b2 </text><rect x="1380.8" y="200.0" width="40.0" height="40" rx="4" ry="4" stroke="#ffffff" stroke-width="0" fill="#fac209" fill-opacity="1" /><text x="1400.8" y="216.0" font-size="20px" dominant-baseline="middle" text-anchor="middle" font-family="Arial" font-weight="normal" fill="#ffffff" >RX </text><text x="1400.8" y="232.0" font-size="14.0px" dominant-baseline="middle" text-anchor="middle" font-family="Arial" font-weight="normal" fill="#ffffff" >b2 </text><rect x="1380.8" y="260.0" width="40.0" height="40" rx="4" ry="4" stroke="#ffffff" stroke-width="0" fill="#fac209" fill-opacity="1" /><text x="1400.8" y="276.0" font-size="20px" dominant-baseline="middle" text-anchor="middle" font-family="Arial" font-weight="normal" fill="#ffffff" >RX </text><text x="1400.8" y="292.0" font-size="14.0px" dominant-baseline="middle" text-anchor="middle" font-family="Arial" font-weight="normal" fill="#ffffff" >b2 </text><rect x="1440.8" y="20.0" width="0" height="280" fill="gray" fill-opacity="0.8" /><rect x="1440.8" y="20.0" width="40.0" height="100" rx="4" ry="4" stroke="#ffffff" stroke-width="0" fill="#fac209" fill-opacity="1" /><text x="1460.8" y="66.0" font-size="20px" dominant-baseline="middle" text-anchor="middle" font-family="Arial" font-weight="normal" fill="#ffffff" >Rzz </text><text x="1460.8" y="82.0" font-size="14.0px" dominant-baseline="middle" text-anchor="middle" font-family="Arial" font-weight="normal" fill="#ffffff" >g3 </text><rect x="1500.8" y="20.0" width="40.0" height="280" rx="4" ry="4" stroke="#ffffff" stroke-width="0" fill="#fac209" fill-opacity="1" /><text x="1520.8" y="156.0" font-size="20px" dominant-baseline="middle" text-anchor="middle" font-family="Arial" font-weight="normal" fill="#ffffff" >Rzz </text><text x="1520.8" y="172.0" font-size="14.0px" dominant-baseline="middle" text-anchor="middle" font-family="Arial" font-weight="normal" fill="#ffffff" >g3 </text><circle cx="1500.8" cy="40.0" r="4" fill="#fac209" /><circle cx="1540.8" cy="40.0" r="4" fill="#fac209" /><circle cx="1500.8" cy="280.0" r="4" fill="#fac209" /><circle cx="1540.8" cy="280.0" r="4" fill="#fac209" /><rect x="1568.8" y="20.0" width="40.0" height="160" rx="4" ry="4" stroke="#ffffff" stroke-width="0" fill="#fac209" fill-opacity="1" /><text x="1588.8" y="96.0" font-size="20px" dominant-baseline="middle" text-anchor="middle" font-family="Arial" font-weight="normal" fill="#ffffff" >Rzz </text><text x="1588.8" y="112.0" font-size="14.0px" dominant-baseline="middle" text-anchor="middle" font-family="Arial" font-weight="normal" fill="#ffffff" >g3 </text><circle cx="1568.8" cy="40.0" r="4" fill="#fac209" /><circle cx="1608.8" cy="40.0" r="4" fill="#fac209" /><circle cx="1568.8" cy="160.0" r="4" fill="#fac209" /><circle cx="1608.8" cy="160.0" r="4" fill="#fac209" /><rect x="1636.8" y="80.0" width="40.0" height="100" rx="4" ry="4" stroke="#ffffff" stroke-width="0" fill="#fac209" fill-opacity="1" /><text x="1656.8" y="126.0" font-size="20px" dominant-baseline="middle" text-anchor="middle" font-family="Arial" font-weight="normal" fill="#ffffff" >Rzz </text><text x="1656.8" y="142.0" font-size="14.0px" dominant-baseline="middle" text-anchor="middle" font-family="Arial" font-weight="normal" fill="#ffffff" >g3 </text><rect x="1696.8" y="140.0" width="40.0" height="100" rx="4" ry="4" stroke="#ffffff" stroke-width="0" fill="#fac209" fill-opacity="1" /><text x="1716.8" y="186.0" font-size="20px" dominant-baseline="middle" text-anchor="middle" font-family="Arial" font-weight="normal" fill="#ffffff" >Rzz </text><text x="1716.8" y="202.0" font-size="14.0px" dominant-baseline="middle" text-anchor="middle" font-family="Arial" font-weight="normal" fill="#ffffff" >g3 </text><rect x="1756.8" y="200.0" width="40.0" height="100" rx="4" ry="4" stroke="#ffffff" stroke-width="0" fill="#fac209" fill-opacity="1" /><text x="1776.8" y="246.0" font-size="20px" dominant-baseline="middle" text-anchor="middle" font-family="Arial" font-weight="normal" fill="#ffffff" >Rzz </text><text x="1776.8" y="262.0" font-size="14.0px" dominant-baseline="middle" text-anchor="middle" font-family="Arial" font-weight="normal" fill="#ffffff" >g3 </text><rect x="1816.8" y="20.0" width="0" height="280" fill="gray" fill-opacity="0.8" /><rect x="1816.8" y="20.0" width="40.0" height="40" rx="4" ry="4" stroke="#ffffff" stroke-width="0" fill="#fac209" fill-opacity="1" /><text x="1836.8" y="36.0" font-size="20px" dominant-baseline="middle" text-anchor="middle" font-family="Arial" font-weight="normal" fill="#ffffff" >RX </text><text x="1836.8" y="52.0" font-size="14.0px" dominant-baseline="middle" text-anchor="middle" font-family="Arial" font-weight="normal" fill="#ffffff" >b3 </text><rect x="1816.8" y="80.0" width="40.0" height="40" rx="4" ry="4" stroke="#ffffff" stroke-width="0" fill="#fac209" fill-opacity="1" /><text x="1836.8" y="96.0" font-size="20px" dominant-baseline="middle" text-anchor="middle" font-family="Arial" font-weight="normal" fill="#ffffff" >RX </text><text x="1836.8" y="112.0" font-size="14.0px" dominant-baseline="middle" text-anchor="middle" font-family="Arial" font-weight="normal" fill="#ffffff" >b3 </text><rect x="1816.8" y="140.0" width="40.0" height="40" rx="4" ry="4" stroke="#ffffff" stroke-width="0" fill="#fac209" fill-opacity="1" /><text x="1836.8" y="156.0" font-size="20px" dominant-baseline="middle" text-anchor="middle" font-family="Arial" font-weight="normal" fill="#ffffff" >RX </text><text x="1836.8" y="172.0" font-size="14.0px" dominant-baseline="middle" text-anchor="middle" font-family="Arial" font-weight="normal" fill="#ffffff" >b3 </text><rect x="1816.8" y="200.0" width="40.0" height="40" rx="4" ry="4" stroke="#ffffff" stroke-width="0" fill="#fac209" fill-opacity="1" /><text x="1836.8" y="216.0" font-size="20px" dominant-baseline="middle" text-anchor="middle" font-family="Arial" font-weight="normal" fill="#ffffff" >RX </text><text x="1836.8" y="232.0" font-size="14.0px" dominant-baseline="middle" text-anchor="middle" font-family="Arial" font-weight="normal" fill="#ffffff" >b3 </text><rect x="1816.8" y="260.0" width="40.0" height="40" rx="4" ry="4" stroke="#ffffff" stroke-width="0" fill="#fac209" fill-opacity="1" /><text x="1836.8" y="276.0" font-size="20px" dominant-baseline="middle" text-anchor="middle" font-family="Arial" font-weight="normal" fill="#ffffff" >RX </text><text x="1836.8" y="292.0" font-size="14.0px" dominant-baseline="middle" text-anchor="middle" font-family="Arial" font-weight="normal" fill="#ffffff" >b3 </text><rect x="1876.8" y="20.0" width="0" height="280" fill="gray" fill-opacity="0.8" /></svg>