<svg xmlns="http://www.w3.org/2000/svg" width="736.8" height="200.0" xmlns:xlink="http://www.w3.org/1999/xlink"><rect x="0" y="0.0" width="736.8" height="200.0" fill="#ffffff" /><text x="20.0" y="40.0" font-size="16px" dominant-baseline="middle" text-anchor="start" font-family="Arial" font-weight="normal" fill="#252b3a" >q0: </text><text x="20.0" y="100.0" font-size="16px" dominant-baseline="middle" text-anchor="start" font-family="Arial" font-weight="normal" fill="#252b3a" >q1: </text><text x="20.0" y="160.0" font-size="16px" dominant-baseline="middle" text-anchor="start" font-family="Arial" font-weight="normal" fill="#252b3a" >q2: </text><line x1="48.8" x2="716.8" y1="40.0" y2="40.0" stroke="#adb0b8" stroke-width="1" /><line x1="48.8" x2="716.8" y1="100.0" y2="100.0" stroke="#adb0b8" stroke-width="1" /><line x1="48.8" x2="716.8" y1="160.0" y2="160.0" stroke="#adb0b8" stroke-width="1" /><rect x="72.8" y="20.0" width="80.0" height="40" rx="4" ry="4" stroke="#ffffff" stroke-width="0" fill="#fac209" fill-opacity="1" /><text x="112.8" y="36.0" font-size="20px" dominant-baseline="middle" text-anchor="middle" font-family="Arial" font-weight="normal" fill="#ffffff" >RX </text><text x="112.8" y="52.0" font-size="14.0px" dominant-baseline="middle" text-anchor="middle" font-family="Arial" font-weight="normal" fill="#ffffff" >2*b_0 </text><rect x="72.8" y="80.0" width="80.0" height="40" rx="4" ry="4" stroke="#ffffff" stroke-width="0" fill="#fac209" fill-opacity="1" /><text x="112.8" y="96.0" font-size="20px" dominant-baseline="middle" text-anchor="middle" font-family="Arial" font-weight="normal" fill="#ffffff" >RX </text><text x="112.8" y="112.0" font-size="14.0px" dominant-baseline="middle" text-anchor="middle" font-family="Arial" font-weight="normal" fill="#ffffff" >2*b_1 </text><rect x="72.8" y="140.0" width="80.0" height="40" rx="4" ry="4" stroke="#ffffff" stroke-width="0" fill="#fac209" fill-opacity="1" /><text x="112.8" y="156.0" font-size="20px" dominant-baseline="middle" text-anchor="middle" font-family="Arial" font-weight="normal" fill="#ffffff" >RX </text><text x="112.8" y="172.0" font-size="14.0px" dominant-baseline="middle" text-anchor="middle" font-family="Arial" font-weight="normal" fill="#ffffff" >2*b_2 </text><rect x="172.8" y="20.0" width="0" height="160" fill="gray" fill-opacity="0.8" /><circle cx="192.8" cy="40.0" r="4" fill="#16acff" /><line x1="192.8" x2="192.8" y1="40.0" y2="100.0" stroke="#16acff" stroke-width="3" /><rect x="172.8" y="80.0" width="40" height="40" rx="4" ry="4" stroke="#ffffff" stroke-width="0" fill="#16acff" fill-opacity="1" /><line x1="178.8" x2="206.8" y1="100.0" y2="100.0" stroke="#ffffff" stroke-width="4" /><line x1="192.8" x2="192.8" y1="86.0" y2="114.0" stroke="#ffffff" stroke-width="4" /><rect x="232.8" y="20.0" width="0" height="160" fill="gray" fill-opacity="0.8" /><rect x="232.8" y="80.0" width="80.0" height="40" rx="4" ry="4" stroke="#ffffff" stroke-width="0" fill="#fac209" fill-opacity="1" /><text x="272.8" y="96.0" font-size="20px" dominant-baseline="middle" text-anchor="middle" font-family="Arial" font-weight="normal" fill="#ffffff" >RZ </text><text x="272.8" y="112.0" font-size="14.0px" dominant-baseline="middle" text-anchor="middle" font-family="Arial" font-weight="normal" fill="#ffffff" >2*a_01 </text><rect x="332.8" y="20.0" width="0" height="160" fill="gray" fill-opacity="0.8" /><circle cx="352.8" cy="40.0" r="4" fill="#16acff" /><line x1="352.8" x2="352.8" y1="40.0" y2="100.0" stroke="#16acff" stroke-width="3" /><rect x="332.8" y="80.0" width="40" height="40" rx="4" ry="4" stroke="#ffffff" stroke-width="0" fill="#16acff" fill-opacity="1" /><line x1="338.8" x2="366.8" y1="100.0" y2="100.0" stroke="#ffffff" stroke-width="4" /><line x1="352.8" x2="352.8" y1="86.0" y2="114.0" stroke="#ffffff" stroke-width="4" /><rect x="392.8" y="20.0" width="0" height="160" fill="gray" fill-opacity="0.8" /><rect x="392.8" y="20.0" width="0" height="160" fill="gray" fill-opacity="0.8" /><circle cx="412.8" cy="100.0" r="4" fill="#16acff" /><line x1="412.8" x2="412.8" y1="100.0" y2="160.0" stroke="#16acff" stroke-width="3" /><rect x="392.8" y="140.0" width="40" height="40" rx="4" ry="4" stroke="#ffffff" stroke-width="0" fill="#16acff" fill-opacity="1" /><line x1="398.8" x2="426.8" y1="160.0" y2="160.0" stroke="#ffffff" stroke-width="4" /><line x1="412.8" x2="412.8" y1="146.0" y2="174.0" stroke="#ffffff" stroke-width="4" /><rect x="452.8" y="20.0" width="0" height="160" fill="gray" fill-opacity="0.8" /><rect x="452.8" y="140.0" width="80.0" height="40" rx="4" ry="4" stroke="#ffffff" stroke-width="0" fill="#fac209" fill-opacity="1" /><text x="492.8" y="156.0" font-size="20px" dominant-baseline="middle" text-anchor="middle" font-family="Arial" font-weight="normal" fill="#ffffff" >RZ </text><text x="492.8" y="172.0" font-size="14.0px" dominant-baseline="middle" text-anchor="middle" font-family="Arial" font-weight="normal" fill="#ffffff" >2*a_12 </text><rect x="552.8" y="20.0" width="0" height="160" fill="gray" fill-opacity="0.8" /><circle cx="572.8" cy="100.0" r="4" fill="#16acff" /><line x1="572.8" x2="572.8" y1="100.0" y2="160.0" stroke="#16acff" stroke-width="3" /><rect x="552.8" y="140.0" width="40" height="40" rx="4" ry="4" stroke="#ffffff" stroke-width="0" fill="#16acff" fill-opacity="1" /><line x1="558.8" x2="586.8" y1="160.0" y2="160.0" stroke="#ffffff" stroke-width="4" /><line x1="572.8" x2="572.8" y1="146.0" y2="174.0" stroke="#ffffff" stroke-width="4" /><rect x="612.8" y="20.0" width="0" height="160" fill="gray" fill-opacity="0.8" /><rect x="612.8" y="20.0" width="20" height="160" fill="gray" fill-opacity="0.8" /><rect x="652.8" y="20.0" width="40" height="40" rx="4" ry="4" stroke="#ffffff" stroke-width="0" fill="#ff7272" fill-opacity="1" /><circle cx="672.8" cy="50.4" r="1.6" fill="#ffffff" /><path d="M 660.0 50.4 A 12.8 12.8 0 0 1 685.5999999999999 50.4" stroke="#ffffff" stroke-width="2.4000000000000004" fill-opacity="0" /><path d="M 676.9018483174859 33.93539030917347 L 685.2156921938165 29.135390309173467 L 685.2156921938165 38.73539030917347 L 681.8901546432843 36.815390309173466 L 674.0470765814496 50.4 L 672.3843078061834 49.44 L 680.2273858680181 35.85539030917347 Z" fill="#ffffff" /><rect x="652.8" y="80.0" width="40" height="40" rx="4" ry="4" stroke="#ffffff" stroke-width="0" fill="#ff7272" fill-opacity="1" /><circle cx="672.8" cy="110.4" r="1.6" fill="#ffffff" /><path d="M 660.0 110.4 A 12.8 12.8 0 0 1 685.5999999999999 110.4" stroke="#ffffff" stroke-width="2.4000000000000004" fill-opacity="0" /><path d="M 676.9018483174859 93.93539030917347 L 685.2156921938165 89.13539030917347 L 685.2156921938165 98.73539030917347 L 681.8901546432843 96.81539030917347 L 674.0470765814496 110.4 L 672.3843078061834 109.44 L 680.2273858680181 95.85539030917347 Z" fill="#ffffff" /><rect x="652.8" y="140.0" width="40" height="40" rx="4" ry="4" stroke="#ffffff" stroke-width="0" fill="#ff7272" fill-opacity="1" /><circle cx="672.8" cy="170.4" r="1.6" fill="#ffffff" /><path d="M 660.0 170.4 A 12.8 12.8 0 0 1 685.5999999999999 170.4" stroke="#ffffff" stroke-width="2.4000000000000004" fill-opacity="0" /><path d="M 676.9018483174859 153.93539030917347 L 685.2156921938165 149.13539030917346 L 685.2156921938165 158.73539030917345 L 681.8901546432843 156.81539030917347 L 674.0470765814496 170.4 L 672.3843078061834 169.44 L 680.2273858680181 155.85539030917346 Z" fill="#ffffff" /></svg>