<svg xmlns="http://www.w3.org/2000/svg" width="376.8" height="140.0" xmlns:xlink="http://www.w3.org/1999/xlink"><rect x="0" y="0.0" width="376.8" height="140.0" fill="#ffffff" /><text x="20.0" y="40.0" font-size="16px" dominant-baseline="middle" text-anchor="start" font-family="Arial" font-weight="normal" fill="#252b3a" >q0: </text><text x="20.0" y="100.0" font-size="16px" dominant-baseline="middle" text-anchor="start" font-family="Arial" font-weight="normal" fill="#252b3a" >q1: </text><line x1="48.8" x2="356.8" y1="40.0" y2="40.0" stroke="#adb0b8" stroke-width="1" /><line x1="48.8" x2="356.8" y1="100.0" y2="100.0" stroke="#adb0b8" stroke-width="1" /><rect x="72.8" y="20.0" width="40.0" height="40" rx="4" ry="4" stroke="#ffffff" stroke-width="0" fill="#5e7ce0" fill-opacity="1" /><text x="92.8" y="40.0" font-size="20px" dominant-baseline="middle" text-anchor="middle" font-family="Arial" font-weight="normal" fill="#ffffff" >H </text><rect x="72.8" y="80.0" width="40.0" height="40" rx="4" ry="4" stroke="#ffffff" stroke-width="0" fill="#fac209" fill-opacity="1" /><text x="92.8" y="96.0" font-size="20px" dominant-baseline="middle" text-anchor="middle" font-family="Arial" font-weight="normal" fill="#ffffff" >RX </text><text x="92.8" y="112.0" font-size="14.0px" dominant-baseline="middle" text-anchor="middle" font-family="Arial" font-weight="normal" fill="#ffffff" >a </text><circle cx="152.8" cy="40.0" r="4" fill="#5e7ce0" /><line x1="152.8" x2="152.8" y1="40.0" y2="100.0" stroke="#5e7ce0" stroke-width="3" /><rect x="132.8" y="80.0" width="40.0" height="40" rx="4" ry="4" stroke="#ffffff" stroke-width="0" fill="#5e7ce0" fill-opacity="1" /><text x="152.8" y="100.0" font-size="20px" dominant-baseline="middle" text-anchor="middle" font-family="Arial" font-weight="normal" fill="#ffffff" >Z </text><rect x="192.8" y="20.0" width="80.0" height="40" rx="4" ry="4" stroke="#ffffff" stroke-width="0" fill="#c77532" fill-opacity="1" /><text x="232.8" y="36.0" font-size="20px" dominant-baseline="middle" text-anchor="middle" font-family="Arial" font-weight="normal" fill="#ffffff" >BFC </text><text x="232.8" y="52.0" font-size="14.0px" dominant-baseline="middle" text-anchor="middle" font-family="Arial" font-weight="normal" fill="#ffffff" >p=1/100 </text><rect x="292.8" y="20.0" width="40" height="40" rx="4" ry="4" stroke="#ffffff" stroke-width="0" fill="#ff7272" fill-opacity="1" /><circle cx="312.8" cy="50.4" r="1.6" fill="#ffffff" /><path d="M 300.0 50.4 A 12.8 12.8 0 0 1 325.6 50.4" stroke="#ffffff" stroke-width="2.4000000000000004" fill-opacity="0" /><path d="M 316.9018483174859 33.93539030917347 L 325.21569219381655 29.135390309173467 L 325.21569219381655 38.73539030917347 L 321.8901546432843 36.815390309173466 L 314.0470765814496 50.4 L 312.3843078061835 49.44 L 320.2273858680182 35.85539030917347 Z" fill="#ffffff" /></svg>