<svg xmlns="http://www.w3.org/2000/svg" width="1198.8" height="672.0" xmlns:xlink="http://www.w3.org/1999/xlink"><rect x="0" y="0.0" width="1198.8" height="672.0" fill="#ffffff" /><text x="20.0" y="40.0" font-size="16px" dominant-baseline="middle" text-anchor="start" font-family="Arial" font-weight="normal" fill="#252b3a" >q0: </text><text x="20.0" y="100.0" font-size="16px" dominant-baseline="middle" text-anchor="start" font-family="Arial" font-weight="normal" fill="#252b3a" >q1: </text><text x="20.0" y="160.0" font-size="16px" dominant-baseline="middle" text-anchor="start" font-family="Arial" font-weight="normal" fill="#252b3a" >q2: </text><text x="20.0" y="220.0" font-size="16px" dominant-baseline="middle" text-anchor="start" font-family="Arial" font-weight="normal" fill="#252b3a" >q3: </text><text x="20.0" y="280.0" font-size="16px" dominant-baseline="middle" text-anchor="start" font-family="Arial" font-weight="normal" fill="#252b3a" >q4: </text><line x1="48.8" x2="1168.8" y1="40.0" y2="40.0" stroke="#adb0b8" stroke-width="1" /><line x1="48.8" x2="1168.8" y1="100.0" y2="100.0" stroke="#adb0b8" stroke-width="1" /><line x1="48.8" x2="1168.8" y1="160.0" y2="160.0" stroke="#adb0b8" stroke-width="1" /><line x1="48.8" x2="1168.8" y1="220.0" y2="220.0" stroke="#adb0b8" stroke-width="1" /><line x1="48.8" x2="1168.8" y1="280.0" y2="280.0" stroke="#adb0b8" stroke-width="1" /><rect x="72.8" y="20.0" width="40.0" height="40" rx="4" ry="4" stroke="#ffffff" stroke-width="0" fill="#5e7ce0" fill-opacity="1" /><text x="92.8" y="40.0" font-size="20px" dominant-baseline="middle" text-anchor="middle" font-family="Arial" font-weight="normal" fill="#ffffff" >H </text><rect x="72.8" y="80.0" width="40.0" height="40" rx="4" ry="4" stroke="#ffffff" stroke-width="0" fill="#5e7ce0" fill-opacity="1" /><text x="92.8" y="100.0" font-size="20px" dominant-baseline="middle" text-anchor="middle" font-family="Arial" font-weight="normal" fill="#ffffff" >H </text><rect x="72.8" y="140.0" width="40.0" height="40" rx="4" ry="4" stroke="#ffffff" stroke-width="0" fill="#5e7ce0" fill-opacity="1" /><text x="92.8" y="160.0" font-size="20px" dominant-baseline="middle" text-anchor="middle" font-family="Arial" font-weight="normal" fill="#ffffff" >H </text><rect x="72.8" y="200.0" width="40.0" height="40" rx="4" ry="4" stroke="#ffffff" stroke-width="0" fill="#5e7ce0" fill-opacity="1" /><text x="92.8" y="220.0" font-size="20px" dominant-baseline="middle" text-anchor="middle" font-family="Arial" font-weight="normal" fill="#ffffff" >H </text><rect x="72.8" y="260.0" width="40.0" height="40" rx="4" ry="4" stroke="#ffffff" stroke-width="0" fill="#5e7ce0" fill-opacity="1" /><text x="92.8" y="280.0" font-size="20px" dominant-baseline="middle" text-anchor="middle" font-family="Arial" font-weight="normal" fill="#ffffff" >H </text><rect x="132.8" y="20.0" width="40.0" height="100" rx="4" ry="4" stroke="#ffffff" stroke-width="0" fill="#fac209" fill-opacity="1" /><text x="152.8" y="66.0" font-size="20px" dominant-baseline="middle" text-anchor="middle" font-family="Arial" font-weight="normal" fill="#ffffff" >Rzz </text><text x="152.8" y="82.0" font-size="14.0px" dominant-baseline="middle" text-anchor="middle" font-family="Arial" font-weight="normal" fill="#ffffff" >g0 </text><rect x="192.8" y="20.0" width="40.0" height="280" rx="4" ry="4" stroke="#ffffff" stroke-width="0" fill="#fac209" fill-opacity="1" /><text x="212.8" y="156.0" font-size="20px" dominant-baseline="middle" text-anchor="middle" font-family="Arial" font-weight="normal" fill="#ffffff" >Rzz </text><text x="212.8" y="172.0" font-size="14.0px" dominant-baseline="middle" text-anchor="middle" font-family="Arial" font-weight="normal" fill="#ffffff" >g0 </text><circle cx="192.8" cy="40.0" r="4" fill="#fac209" /><circle cx="232.8" cy="40.0" r="4" fill="#fac209" /><circle cx="192.8" cy="280.0" r="4" fill="#fac209" /><circle cx="232.8" cy="280.0" r="4" fill="#fac209" /><rect x="260.8" y="20.0" width="40.0" height="160" rx="4" ry="4" stroke="#ffffff" stroke-width="0" fill="#fac209" fill-opacity="1" /><text x="280.8" y="96.0" font-size="20px" dominant-baseline="middle" text-anchor="middle" font-family="Arial" font-weight="normal" fill="#ffffff" >Rzz </text><text x="280.8" y="112.0" font-size="14.0px" dominant-baseline="middle" text-anchor="middle" font-family="Arial" font-weight="normal" fill="#ffffff" >g0 </text><circle cx="260.8" cy="40.0" r="4" fill="#fac209" /><circle cx="300.8" cy="40.0" r="4" fill="#fac209" /><circle cx="260.8" cy="160.0" r="4" fill="#fac209" /><circle cx="300.8" cy="160.0" r="4" fill="#fac209" /><rect x="328.8" y="80.0" width="40.0" height="100" rx="4" ry="4" stroke="#ffffff" stroke-width="0" fill="#fac209" fill-opacity="1" /><text x="348.8" y="126.0" font-size="20px" dominant-baseline="middle" text-anchor="middle" font-family="Arial" font-weight="normal" fill="#ffffff" >Rzz </text><text x="348.8" y="142.0" font-size="14.0px" dominant-baseline="middle" text-anchor="middle" font-family="Arial" font-weight="normal" fill="#ffffff" >g0 </text><rect x="388.8" y="140.0" width="40.0" height="100" rx="4" ry="4" stroke="#ffffff" stroke-width="0" fill="#fac209" fill-opacity="1" /><text x="408.8" y="186.0" font-size="20px" dominant-baseline="middle" text-anchor="middle" font-family="Arial" font-weight="normal" fill="#ffffff" >Rzz </text><text x="408.8" y="202.0" font-size="14.0px" dominant-baseline="middle" text-anchor="middle" font-family="Arial" font-weight="normal" fill="#ffffff" >g0 </text><rect x="448.8" y="200.0" width="40.0" height="100" rx="4" ry="4" stroke="#ffffff" stroke-width="0" fill="#fac209" fill-opacity="1" /><text x="468.8" y="246.0" font-size="20px" dominant-baseline="middle" text-anchor="middle" font-family="Arial" font-weight="normal" fill="#ffffff" >Rzz </text><text x="468.8" y="262.0" font-size="14.0px" dominant-baseline="middle" text-anchor="middle" font-family="Arial" font-weight="normal" fill="#ffffff" >g0 </text><rect x="508.8" y="20.0" width="20" height="280" fill="gray" fill-opacity="0.8" /><rect x="548.8" y="20.0" width="40.0" height="40" rx="4" ry="4" stroke="#ffffff" stroke-width="0" fill="#fac209" fill-opacity="1" /><text x="568.8" y="36.0" font-size="20px" dominant-baseline="middle" text-anchor="middle" font-family="Arial" font-weight="normal" fill="#ffffff" >RX </text><text x="568.8" y="52.0" font-size="14.0px" dominant-baseline="middle" text-anchor="middle" font-family="Arial" font-weight="normal" fill="#ffffff" >b0 </text><rect x="548.8" y="80.0" width="40.0" height="40" rx="4" ry="4" stroke="#ffffff" stroke-width="0" fill="#fac209" fill-opacity="1" /><text x="568.8" y="96.0" font-size="20px" dominant-baseline="middle" text-anchor="middle" font-family="Arial" font-weight="normal" fill="#ffffff" >RX </text><text x="568.8" y="112.0" font-size="14.0px" dominant-baseline="middle" text-anchor="middle" font-family="Arial" font-weight="normal" fill="#ffffff" >b0 </text><rect x="548.8" y="140.0" width="40.0" height="40" rx="4" ry="4" stroke="#ffffff" stroke-width="0" fill="#fac209" fill-opacity="1" /><text x="568.8" y="156.0" font-size="20px" dominant-baseline="middle" text-anchor="middle" font-family="Arial" font-weight="normal" fill="#ffffff" >RX </text><text x="568.8" y="172.0" font-size="14.0px" dominant-baseline="middle" text-anchor="middle" font-family="Arial" font-weight="normal" fill="#ffffff" >b0 </text><rect x="548.8" y="200.0" width="40.0" height="40" rx="4" ry="4" stroke="#ffffff" stroke-width="0" fill="#fac209" fill-opacity="1" /><text x="568.8" y="216.0" font-size="20px" dominant-baseline="middle" text-anchor="middle" font-family="Arial" font-weight="normal" fill="#ffffff" >RX </text><text x="568.8" y="232.0" font-size="14.0px" dominant-baseline="middle" text-anchor="middle" font-family="Arial" font-weight="normal" fill="#ffffff" >b0 </text><rect x="548.8" y="260.0" width="40.0" height="40" rx="4" ry="4" stroke="#ffffff" stroke-width="0" fill="#fac209" fill-opacity="1" /><text x="568.8" y="276.0" font-size="20px" dominant-baseline="middle" text-anchor="middle" font-family="Arial" font-weight="normal" fill="#ffffff" >RX </text><text x="568.8" y="292.0" font-size="14.0px" dominant-baseline="middle" text-anchor="middle" font-family="Arial" font-weight="normal" fill="#ffffff" >b0 </text><rect x="608.8" y="20.0" width="20" height="280" fill="gray" fill-opacity="0.8" /><rect x="648.8" y="20.0" width="40.0" height="100" rx="4" ry="4" stroke="#ffffff" stroke-width="0" fill="#fac209" fill-opacity="1" /><text x="668.8" y="66.0" font-size="20px" dominant-baseline="middle" text-anchor="middle" font-family="Arial" font-weight="normal" fill="#ffffff" >Rzz </text><text x="668.8" y="82.0" font-size="14.0px" dominant-baseline="middle" text-anchor="middle" font-family="Arial" font-weight="normal" fill="#ffffff" >g1 </text><rect x="708.8" y="20.0" width="40.0" height="280" rx="4" ry="4" stroke="#ffffff" stroke-width="0" fill="#fac209" fill-opacity="1" /><text x="728.8" y="156.0" font-size="20px" dominant-baseline="middle" text-anchor="middle" font-family="Arial" font-weight="normal" fill="#ffffff" >Rzz </text><text x="728.8" y="172.0" font-size="14.0px" dominant-baseline="middle" text-anchor="middle" font-family="Arial" font-weight="normal" fill="#ffffff" >g1 </text><circle cx="708.8" cy="40.0" r="4" fill="#fac209" /><circle cx="748.8" cy="40.0" r="4" fill="#fac209" /><circle cx="708.8" cy="280.0" r="4" fill="#fac209" /><circle cx="748.8" cy="280.0" r="4" fill="#fac209" /><rect x="776.8" y="20.0" width="40.0" height="160" rx="4" ry="4" stroke="#ffffff" stroke-width="0" fill="#fac209" fill-opacity="1" /><text x="796.8" y="96.0" font-size="20px" dominant-baseline="middle" text-anchor="middle" font-family="Arial" font-weight="normal" fill="#ffffff" >Rzz </text><text x="796.8" y="112.0" font-size="14.0px" dominant-baseline="middle" text-anchor="middle" font-family="Arial" font-weight="normal" fill="#ffffff" >g1 </text><circle cx="776.8" cy="40.0" r="4" fill="#fac209" /><circle cx="816.8" cy="40.0" r="4" fill="#fac209" /><circle cx="776.8" cy="160.0" r="4" fill="#fac209" /><circle cx="816.8" cy="160.0" r="4" fill="#fac209" /><rect x="844.8" y="80.0" width="40.0" height="100" rx="4" ry="4" stroke="#ffffff" stroke-width="0" fill="#fac209" fill-opacity="1" /><text x="864.8" y="126.0" font-size="20px" dominant-baseline="middle" text-anchor="middle" font-family="Arial" font-weight="normal" fill="#ffffff" >Rzz </text><text x="864.8" y="142.0" font-size="14.0px" dominant-baseline="middle" text-anchor="middle" font-family="Arial" font-weight="normal" fill="#ffffff" >g1 </text><rect x="904.8" y="140.0" width="40.0" height="100" rx="4" ry="4" stroke="#ffffff" stroke-width="0" fill="#fac209" fill-opacity="1" /><text x="924.8" y="186.0" font-size="20px" dominant-baseline="middle" text-anchor="middle" font-family="Arial" font-weight="normal" fill="#ffffff" >Rzz </text><text x="924.8" y="202.0" font-size="14.0px" dominant-baseline="middle" text-anchor="middle" font-family="Arial" font-weight="normal" fill="#ffffff" >g1 </text><rect x="964.8" y="200.0" width="40.0" height="100" rx="4" ry="4" stroke="#ffffff" stroke-width="0" fill="#fac209" fill-opacity="1" /><text x="984.8" y="246.0" font-size="20px" dominant-baseline="middle" text-anchor="middle" font-family="Arial" font-weight="normal" fill="#ffffff" >Rzz </text><text x="984.8" y="262.0" font-size="14.0px" dominant-baseline="middle" text-anchor="middle" font-family="Arial" font-weight="normal" fill="#ffffff" >g1 </text><rect x="1024.8" y="20.0" width="20" height="280" fill="gray" fill-opacity="0.8" /><rect x="1064.8" y="20.0" width="40.0" height="40" rx="4" ry="4" stroke="#ffffff" stroke-width="0" fill="#fac209" fill-opacity="1" /><text x="1084.8" y="36.0" font-size="20px" dominant-baseline="middle" text-anchor="middle" font-family="Arial" font-weight="normal" fill="#ffffff" >RX </text><text x="1084.8" y="52.0" font-size="14.0px" dominant-baseline="middle" text-anchor="middle" font-family="Arial" font-weight="normal" fill="#ffffff" >b1 </text><rect x="1064.8" y="80.0" width="40.0" height="40" rx="4" ry="4" stroke="#ffffff" stroke-width="0" fill="#fac209" fill-opacity="1" /><text x="1084.8" y="96.0" font-size="20px" dominant-baseline="middle" text-anchor="middle" font-family="Arial" font-weight="normal" fill="#ffffff" >RX </text><text x="1084.8" y="112.0" font-size="14.0px" dominant-baseline="middle" text-anchor="middle" font-family="Arial" font-weight="normal" fill="#ffffff" >b1 </text><rect x="1064.8" y="140.0" width="40.0" height="40" rx="4" ry="4" stroke="#ffffff" stroke-width="0" fill="#fac209" fill-opacity="1" /><text x="1084.8" y="156.0" font-size="20px" dominant-baseline="middle" text-anchor="middle" font-family="Arial" font-weight="normal" fill="#ffffff" >RX </text><text x="1084.8" y="172.0" font-size="14.0px" dominant-baseline="middle" text-anchor="middle" font-family="Arial" font-weight="normal" fill="#ffffff" >b1 </text><rect x="1064.8" y="200.0" width="40.0" height="40" rx="4" ry="4" stroke="#ffffff" stroke-width="0" fill="#fac209" fill-opacity="1" /><text x="1084.8" y="216.0" font-size="20px" dominant-baseline="middle" text-anchor="middle" font-family="Arial" font-weight="normal" fill="#ffffff" >RX </text><text x="1084.8" y="232.0" font-size="14.0px" dominant-baseline="middle" text-anchor="middle" font-family="Arial" font-weight="normal" fill="#ffffff" >b1 </text><rect x="1064.8" y="260.0" width="40.0" height="40" rx="4" ry="4" stroke="#ffffff" stroke-width="0" fill="#fac209" fill-opacity="1" /><text x="1084.8" y="276.0" font-size="20px" dominant-baseline="middle" text-anchor="middle" font-family="Arial" font-weight="normal" fill="#ffffff" >RX </text><text x="1084.8" y="292.0" font-size="14.0px" dominant-baseline="middle" text-anchor="middle" font-family="Arial" font-weight="normal" fill="#ffffff" >b1 </text><rect x="1124.8" y="20.0" width="20" height="280" fill="gray" fill-opacity="0.8" /><line x1="58.8" x2="1178.8" y1="336.0" y2="336.0" stroke="#adb0b8" stroke-width="1" stroke-dasharray="5 5" /><line x1="1178.8" x2="1178.8" y1="312.0" y2="336.0" stroke="#adb0b8" stroke-width="1" stroke-dasharray="5 5" /><line x1="58.8" x2="58.8" y1="336.0" y2="360.0" stroke="#adb0b8" stroke-width="1" stroke-dasharray="5 5" /><line x1="48.8" x2="58.8" y1="350.0" y2="360.0" stroke="#adb0b8" stroke-width="2" /><line x1="68.8" x2="58.8" y1="350.0" y2="360.0" stroke="#adb0b8" stroke-width="2" /><text x="20.0" y="392.0" font-size="16px" dominant-baseline="middle" text-anchor="start" font-family="Arial" font-weight="normal" fill="#252b3a" >q0: </text><text x="20.0" y="452.0" font-size="16px" dominant-baseline="middle" text-anchor="start" font-family="Arial" font-weight="normal" fill="#252b3a" >q1: </text><text x="20.0" y="512.0" font-size="16px" dominant-baseline="middle" text-anchor="start" font-family="Arial" font-weight="normal" fill="#252b3a" >q2: </text><text x="20.0" y="572.0" font-size="16px" dominant-baseline="middle" text-anchor="start" font-family="Arial" font-weight="normal" fill="#252b3a" >q3: </text><text x="20.0" y="632.0" font-size="16px" dominant-baseline="middle" text-anchor="start" font-family="Arial" font-weight="normal" fill="#252b3a" >q4: </text><line x1="48.8" x2="1168.8" y1="392.0" y2="392.0" stroke="#adb0b8" stroke-width="1" /><line x1="48.8" x2="1168.8" y1="452.0" y2="452.0" stroke="#adb0b8" stroke-width="1" /><line x1="48.8" x2="1168.8" y1="512.0" y2="512.0" stroke="#adb0b8" stroke-width="1" /><line x1="48.8" x2="1168.8" y1="572.0" y2="572.0" stroke="#adb0b8" stroke-width="1" /><line x1="48.8" x2="1168.8" y1="632.0" y2="632.0" stroke="#adb0b8" stroke-width="1" /><rect x="72.8" y="372.0" width="40.0" height="100" rx="4" ry="4" stroke="#ffffff" stroke-width="0" fill="#fac209" fill-opacity="1" /><text x="92.8" y="418.0" font-size="20px" dominant-baseline="middle" text-anchor="middle" font-family="Arial" font-weight="normal" fill="#ffffff" >Rzz </text><text x="92.8" y="434.0" font-size="14.0px" dominant-baseline="middle" text-anchor="middle" font-family="Arial" font-weight="normal" fill="#ffffff" >g2 </text><rect x="132.8" y="372.0" width="40.0" height="280" rx="4" ry="4" stroke="#ffffff" stroke-width="0" fill="#fac209" fill-opacity="1" /><text x="152.8" y="508.0" font-size="20px" dominant-baseline="middle" text-anchor="middle" font-family="Arial" font-weight="normal" fill="#ffffff" >Rzz </text><text x="152.8" y="524.0" font-size="14.0px" dominant-baseline="middle" text-anchor="middle" font-family="Arial" font-weight="normal" fill="#ffffff" >g2 </text><circle cx="132.8" cy="392.0" r="4" fill="#fac209" /><circle cx="172.8" cy="392.0" r="4" fill="#fac209" /><circle cx="132.8" cy="632.0" r="4" fill="#fac209" /><circle cx="172.8" cy="632.0" r="4" fill="#fac209" /><rect x="200.8" y="372.0" width="40.0" height="160" rx="4" ry="4" stroke="#ffffff" stroke-width="0" fill="#fac209" fill-opacity="1" /><text x="220.8" y="448.0" font-size="20px" dominant-baseline="middle" text-anchor="middle" font-family="Arial" font-weight="normal" fill="#ffffff" >Rzz </text><text x="220.8" y="464.0" font-size="14.0px" dominant-baseline="middle" text-anchor="middle" font-family="Arial" font-weight="normal" fill="#ffffff" >g2 </text><circle cx="200.8" cy="392.0" r="4" fill="#fac209" /><circle cx="240.8" cy="392.0" r="4" fill="#fac209" /><circle cx="200.8" cy="512.0" r="4" fill="#fac209" /><circle cx="240.8" cy="512.0" r="4" fill="#fac209" /><rect x="268.8" y="432.0" width="40.0" height="100" rx="4" ry="4" stroke="#ffffff" stroke-width="0" fill="#fac209" fill-opacity="1" /><text x="288.8" y="478.0" font-size="20px" dominant-baseline="middle" text-anchor="middle" font-family="Arial" font-weight="normal" fill="#ffffff" >Rzz </text><text x="288.8" y="494.0" font-size="14.0px" dominant-baseline="middle" text-anchor="middle" font-family="Arial" font-weight="normal" fill="#ffffff" >g2 </text><rect x="328.8" y="492.0" width="40.0" height="100" rx="4" ry="4" stroke="#ffffff" stroke-width="0" fill="#fac209" fill-opacity="1" /><text x="348.8" y="538.0" font-size="20px" dominant-baseline="middle" text-anchor="middle" font-family="Arial" font-weight="normal" fill="#ffffff" >Rzz </text><text x="348.8" y="554.0" font-size="14.0px" dominant-baseline="middle" text-anchor="middle" font-family="Arial" font-weight="normal" fill="#ffffff" >g2 </text><rect x="388.8" y="552.0" width="40.0" height="100" rx="4" ry="4" stroke="#ffffff" stroke-width="0" fill="#fac209" fill-opacity="1" /><text x="408.8" y="598.0" font-size="20px" dominant-baseline="middle" text-anchor="middle" font-family="Arial" font-weight="normal" fill="#ffffff" >Rzz </text><text x="408.8" y="614.0" font-size="14.0px" dominant-baseline="middle" text-anchor="middle" font-family="Arial" font-weight="normal" fill="#ffffff" >g2 </text><rect x="448.8" y="372.0" width="20" height="280" fill="gray" fill-opacity="0.8" /><rect x="488.8" y="372.0" width="40.0" height="40" rx="4" ry="4" stroke="#ffffff" stroke-width="0" fill="#fac209" fill-opacity="1" /><text x="508.8" y="388.0" font-size="20px" dominant-baseline="middle" text-anchor="middle" font-family="Arial" font-weight="normal" fill="#ffffff" >RX </text><text x="508.8" y="404.0" font-size="14.0px" dominant-baseline="middle" text-anchor="middle" font-family="Arial" font-weight="normal" fill="#ffffff" >b2 </text><rect x="488.8" y="432.0" width="40.0" height="40" rx="4" ry="4" stroke="#ffffff" stroke-width="0" fill="#fac209" fill-opacity="1" /><text x="508.8" y="448.0" font-size="20px" dominant-baseline="middle" text-anchor="middle" font-family="Arial" font-weight="normal" fill="#ffffff" >RX </text><text x="508.8" y="464.0" font-size="14.0px" dominant-baseline="middle" text-anchor="middle" font-family="Arial" font-weight="normal" fill="#ffffff" >b2 </text><rect x="488.8" y="492.0" width="40.0" height="40" rx="4" ry="4" stroke="#ffffff" stroke-width="0" fill="#fac209" fill-opacity="1" /><text x="508.8" y="508.0" font-size="20px" dominant-baseline="middle" text-anchor="middle" font-family="Arial" font-weight="normal" fill="#ffffff" >RX </text><text x="508.8" y="524.0" font-size="14.0px" dominant-baseline="middle" text-anchor="middle" font-family="Arial" font-weight="normal" fill="#ffffff" >b2 </text><rect x="488.8" y="552.0" width="40.0" height="40" rx="4" ry="4" stroke="#ffffff" stroke-width="0" fill="#fac209" fill-opacity="1" /><text x="508.8" y="568.0" font-size="20px" dominant-baseline="middle" text-anchor="middle" font-family="Arial" font-weight="normal" fill="#ffffff" >RX </text><text x="508.8" y="584.0" font-size="14.0px" dominant-baseline="middle" text-anchor="middle" font-family="Arial" font-weight="normal" fill="#ffffff" >b2 </text><rect x="488.8" y="612.0" width="40.0" height="40" rx="4" ry="4" stroke="#ffffff" stroke-width="0" fill="#fac209" fill-opacity="1" /><text x="508.8" y="628.0" font-size="20px" dominant-baseline="middle" text-anchor="middle" font-family="Arial" font-weight="normal" fill="#ffffff" >RX </text><text x="508.8" y="644.0" font-size="14.0px" dominant-baseline="middle" text-anchor="middle" font-family="Arial" font-weight="normal" fill="#ffffff" >b2 </text><rect x="548.8" y="372.0" width="20" height="280" fill="gray" fill-opacity="0.8" /><rect x="588.8" y="372.0" width="40.0" height="100" rx="4" ry="4" stroke="#ffffff" stroke-width="0" fill="#fac209" fill-opacity="1" /><text x="608.8" y="418.0" font-size="20px" dominant-baseline="middle" text-anchor="middle" font-family="Arial" font-weight="normal" fill="#ffffff" >Rzz </text><text x="608.8" y="434.0" font-size="14.0px" dominant-baseline="middle" text-anchor="middle" font-family="Arial" font-weight="normal" fill="#ffffff" >g3 </text><rect x="648.8" y="372.0" width="40.0" height="280" rx="4" ry="4" stroke="#ffffff" stroke-width="0" fill="#fac209" fill-opacity="1" /><text x="668.8" y="508.0" font-size="20px" dominant-baseline="middle" text-anchor="middle" font-family="Arial" font-weight="normal" fill="#ffffff" >Rzz </text><text x="668.8" y="524.0" font-size="14.0px" dominant-baseline="middle" text-anchor="middle" font-family="Arial" font-weight="normal" fill="#ffffff" >g3 </text><circle cx="648.8" cy="392.0" r="4" fill="#fac209" /><circle cx="688.8" cy="392.0" r="4" fill="#fac209" /><circle cx="648.8" cy="632.0" r="4" fill="#fac209" /><circle cx="688.8" cy="632.0" r="4" fill="#fac209" /><rect x="716.8" y="372.0" width="40.0" height="160" rx="4" ry="4" stroke="#ffffff" stroke-width="0" fill="#fac209" fill-opacity="1" /><text x="736.8" y="448.0" font-size="20px" dominant-baseline="middle" text-anchor="middle" font-family="Arial" font-weight="normal" fill="#ffffff" >Rzz </text><text x="736.8" y="464.0" font-size="14.0px" dominant-baseline="middle" text-anchor="middle" font-family="Arial" font-weight="normal" fill="#ffffff" >g3 </text><circle cx="716.8" cy="392.0" r="4" fill="#fac209" /><circle cx="756.8" cy="392.0" r="4" fill="#fac209" /><circle cx="716.8" cy="512.0" r="4" fill="#fac209" /><circle cx="756.8" cy="512.0" r="4" fill="#fac209" /><rect x="784.8" y="432.0" width="40.0" height="100" rx="4" ry="4" stroke="#ffffff" stroke-width="0" fill="#fac209" fill-opacity="1" /><text x="804.8" y="478.0" font-size="20px" dominant-baseline="middle" text-anchor="middle" font-family="Arial" font-weight="normal" fill="#ffffff" >Rzz </text><text x="804.8" y="494.0" font-size="14.0px" dominant-baseline="middle" text-anchor="middle" font-family="Arial" font-weight="normal" fill="#ffffff" >g3 </text><rect x="844.8" y="492.0" width="40.0" height="100" rx="4" ry="4" stroke="#ffffff" stroke-width="0" fill="#fac209" fill-opacity="1" /><text x="864.8" y="538.0" font-size="20px" dominant-baseline="middle" text-anchor="middle" font-family="Arial" font-weight="normal" fill="#ffffff" >Rzz </text><text x="864.8" y="554.0" font-size="14.0px" dominant-baseline="middle" text-anchor="middle" font-family="Arial" font-weight="normal" fill="#ffffff" >g3 </text><rect x="904.8" y="552.0" width="40.0" height="100" rx="4" ry="4" stroke="#ffffff" stroke-width="0" fill="#fac209" fill-opacity="1" /><text x="924.8" y="598.0" font-size="20px" dominant-baseline="middle" text-anchor="middle" font-family="Arial" font-weight="normal" fill="#ffffff" >Rzz </text><text x="924.8" y="614.0" font-size="14.0px" dominant-baseline="middle" text-anchor="middle" font-family="Arial" font-weight="normal" fill="#ffffff" >g3 </text><rect x="964.8" y="372.0" width="20" height="280" fill="gray" fill-opacity="0.8" /><rect x="1004.8" y="372.0" width="40.0" height="40" rx="4" ry="4" stroke="#ffffff" stroke-width="0" fill="#fac209" fill-opacity="1" /><text x="1024.8" y="388.0" font-size="20px" dominant-baseline="middle" text-anchor="middle" font-family="Arial" font-weight="normal" fill="#ffffff" >RX </text><text x="1024.8" y="404.0" font-size="14.0px" dominant-baseline="middle" text-anchor="middle" font-family="Arial" font-weight="normal" fill="#ffffff" >b3 </text><rect x="1004.8" y="432.0" width="40.0" height="40" rx="4" ry="4" stroke="#ffffff" stroke-width="0" fill="#fac209" fill-opacity="1" /><text x="1024.8" y="448.0" font-size="20px" dominant-baseline="middle" text-anchor="middle" font-family="Arial" font-weight="normal" fill="#ffffff" >RX </text><text x="1024.8" y="464.0" font-size="14.0px" dominant-baseline="middle" text-anchor="middle" font-family="Arial" font-weight="normal" fill="#ffffff" >b3 </text><rect x="1004.8" y="492.0" width="40.0" height="40" rx="4" ry="4" stroke="#ffffff" stroke-width="0" fill="#fac209" fill-opacity="1" /><text x="1024.8" y="508.0" font-size="20px" dominant-baseline="middle" text-anchor="middle" font-family="Arial" font-weight="normal" fill="#ffffff" >RX </text><text x="1024.8" y="524.0" font-size="14.0px" dominant-baseline="middle" text-anchor="middle" font-family="Arial" font-weight="normal" fill="#ffffff" >b3 </text><rect x="1004.8" y="552.0" width="40.0" height="40" rx="4" ry="4" stroke="#ffffff" stroke-width="0" fill="#fac209" fill-opacity="1" /><text x="1024.8" y="568.0" font-size="20px" dominant-baseline="middle" text-anchor="middle" font-family="Arial" font-weight="normal" fill="#ffffff" >RX </text><text x="1024.8" y="584.0" font-size="14.0px" dominant-baseline="middle" text-anchor="middle" font-family="Arial" font-weight="normal" fill="#ffffff" >b3 </text><rect x="1004.8" y="612.0" width="40.0" height="40" rx="4" ry="4" stroke="#ffffff" stroke-width="0" fill="#fac209" fill-opacity="1" /><text x="1024.8" y="628.0" font-size="20px" dominant-baseline="middle" text-anchor="middle" font-family="Arial" font-weight="normal" fill="#ffffff" >RX </text><text x="1024.8" y="644.0" font-size="14.0px" dominant-baseline="middle" text-anchor="middle" font-family="Arial" font-weight="normal" fill="#ffffff" >b3 </text><rect x="1064.8" y="372.0" width="20" height="280" fill="gray" fill-opacity="0.8" /></svg>