<svg xmlns="http://www.w3.org/2000/svg" width="396.8" height="260.0" xmlns:xlink="http://www.w3.org/1999/xlink"><rect x="0" y="0.0" width="396.8" height="260.0" fill="#ffffff" /><text x="20.0" y="40.0" font-size="16px" dominant-baseline="middle" text-anchor="start" font-family="Arial" font-weight="normal" fill="#252b3a" >q0: </text><text x="20.0" y="100.0" font-size="16px" dominant-baseline="middle" text-anchor="start" font-family="Arial" font-weight="normal" fill="#252b3a" >q1: </text><text x="20.0" y="160.0" font-size="16px" dominant-baseline="middle" text-anchor="start" font-family="Arial" font-weight="normal" fill="#252b3a" >q2: </text><text x="20.0" y="220.0" font-size="16px" dominant-baseline="middle" text-anchor="start" font-family="Arial" font-weight="normal" fill="#252b3a" >q3: </text><line x1="48.8" x2="376.8" y1="40.0" y2="40.0" stroke="#adb0b8" stroke-width="1" /><line x1="48.8" x2="376.8" y1="100.0" y2="100.0" stroke="#adb0b8" stroke-width="1" /><line x1="48.8" x2="376.8" y1="160.0" y2="160.0" stroke="#adb0b8" stroke-width="1" /><line x1="48.8" x2="376.8" y1="220.0" y2="220.0" stroke="#adb0b8" stroke-width="1" /><rect x="72.8" y="140.0" width="40.0" height="40" rx="4" ry="4" stroke="#ffffff" stroke-width="0" fill="#5e7ce0" fill-opacity="1" /><text x="92.8" y="160.0" font-size="20px" dominant-baseline="middle" text-anchor="middle" font-family="Arial" font-weight="normal" fill="#ffffff" >H </text><rect x="72.8" y="200.0" width="40.0" height="40" rx="4" ry="4" stroke="#ffffff" stroke-width="0" fill="#5e7ce0" fill-opacity="1" /><text x="92.8" y="220.0" font-size="20px" dominant-baseline="middle" text-anchor="middle" font-family="Arial" font-weight="normal" fill="#ffffff" >H </text><rect x="72.8" y="80.0" width="40.0" height="40" rx="4" ry="4" stroke="#ffffff" stroke-width="0" fill="#5e7ce0" fill-opacity="1" /><text x="92.8" y="100.0" font-size="20px" dominant-baseline="middle" text-anchor="middle" font-family="Arial" font-weight="normal" fill="#ffffff" >H </text><circle cx="152.8" cy="160.0" r="4" fill="#16acff" /><line x1="152.8" x2="152.8" y1="160.0" y2="220.0" stroke="#16acff" stroke-width="3" /><rect x="132.8" y="200.0" width="40" height="40" rx="4" ry="4" stroke="#ffffff" stroke-width="0" fill="#16acff" fill-opacity="1" /><line x1="138.8" x2="166.8" y1="220.0" y2="220.0" stroke="#ffffff" stroke-width="4" /><line x1="152.8" x2="152.8" y1="206.0" y2="234.0" stroke="#ffffff" stroke-width="4" /><circle cx="212.8" cy="220.0" r="4" fill="#16acff" /><line x1="212.8" x2="212.8" y1="100.0" y2="220.0" stroke="#16acff" stroke-width="3" /><rect x="192.8" y="80.0" width="40" height="40" rx="4" ry="4" stroke="#ffffff" stroke-width="0" fill="#16acff" fill-opacity="1" /><line x1="198.8" x2="226.8" y1="100.0" y2="100.0" stroke="#ffffff" stroke-width="4" /><line x1="212.8" x2="212.8" y1="86.0" y2="114.0" stroke="#ffffff" stroke-width="4" /><line x1="272.8" x2="272.8" y1="20.0" y2="180.0" stroke-width="3" stroke="#16acff" /><rect x="252.8" y="20.0" width="40" height="40" rx="4" ry="4" fill="#16acff" fill-opacity="1" stroke="#ffffff" stroke-width="0" /><path d="M 263.2 36.31384387633061 L 268.0 28.0 L 272.8 36.31384387633061 L 269.44 36.31384387633061 L 269.44 52.0 L 266.56 52.0 L 266.56 36.31384387633061 Z" fill="#ffffff" /><path d="M 282.4 43.68615612366939 L 277.6 52.0 L 272.8 43.68615612366939 L 276.16 43.68615612366939 L 276.16 28.0 L 279.04 28.0 L 279.04 43.68615612366939 Z" fill="#ffffff" /><rect x="252.8" y="140.0" width="40" height="40" rx="4" ry="4" fill="#16acff" fill-opacity="1" stroke="#ffffff" stroke-width="0" /><path d="M 263.2 156.31384387633062 L 268.0 148.0 L 272.8 156.31384387633062 L 269.44 156.31384387633062 L 269.44 172.0 L 266.56 172.0 L 266.56 156.31384387633062 Z" fill="#ffffff" /><path d="M 282.4 163.68615612366938 L 277.6 172.0 L 272.8 163.68615612366938 L 276.16 163.68615612366938 L 276.16 148.0 L 279.04 148.0 L 279.04 163.68615612366938 Z" fill="#ffffff" /><circle cx="332.8" cy="100.0" r="4" fill="#16acff" /><line x1="332.8" x2="332.8" y1="40.0" y2="100.0" stroke="#16acff" stroke-width="3" /><rect x="312.8" y="20.0" width="40" height="40" rx="4" ry="4" stroke="#ffffff" stroke-width="0" fill="#16acff" fill-opacity="1" /><line x1="318.8" x2="346.8" y1="40.0" y2="40.0" stroke="#ffffff" stroke-width="4" /><line x1="332.8" x2="332.8" y1="26.0" y2="54.0" stroke="#ffffff" stroke-width="4" /></svg>