<svg xmlns="http://www.w3.org/2000/svg" width="216.8" height="260" xmlns:xlink="http://www.w3.org/1999/xlink">
<rect x="0" y="0" width="216.8" height="260" fill="#ffffff" />
<text x="20.0" y="40.0" font-size="16px" dominant-baseline="middle" text-anchor="start" font-family="Arial" font-weight="normal" fill="#252b3a" >
q0:
 </text>
<text x="20.0" y="100.0" font-size="16px" dominant-baseline="middle" text-anchor="start" font-family="Arial" font-weight="normal" fill="#252b3a" >
q1:
 </text>
<text x="20.0" y="160.0" font-size="16px" dominant-baseline="middle" text-anchor="start" font-family="Arial" font-weight="normal" fill="#252b3a" >
q2:
 </text>
<text x="20.0" y="220.0" font-size="16px" dominant-baseline="middle" text-anchor="start" font-family="Arial" font-weight="normal" fill="#252b3a" >
q3:
 </text>
<line x1="48.8" x2="196.8" y1="40.0" y2="40.0" stroke="#adb0b8" stroke-width="1" />
<line x1="48.8" x2="196.8" y1="100.0" y2="100.0" stroke="#adb0b8" stroke-width="1" />
<line x1="48.8" x2="196.8" y1="160.0" y2="160.0" stroke="#adb0b8" stroke-width="1" />
<line x1="48.8" x2="196.8" y1="220.0" y2="220.0" stroke="#adb0b8" stroke-width="1" />
<line x1="92.8" x2="92.8" y1="20.0" y2="120.0" stroke-width="3" stroke="#16acff" />

<rect x="72.8" y="20.0" width="40" height="40" rx="4" ry="4" fill="#16acff" fill-opacity="1" stroke="#ffffff" stroke-width="0" />
<path d="M 83.19999999999999 36.31384387633061 L 88.0 28.0 L 92.8 36.31384387633061 L 89.44 36.31384387633061 L 89.44 52.0 L 86.56 52.0 L 86.56 36.31384387633061 Z" fill="#ffffff" />
<path d="M 102.4 43.68615612366939 L 97.6 52.0 L 92.8 43.68615612366939 L 96.16 43.68615612366939 L 96.16 28.0 L 99.03999999999999 28.0 L 99.03999999999999 43.68615612366939 Z" fill="#ffffff" />
<rect x="72.8" y="80.0" width="40" height="40" rx="4" ry="4" fill="#16acff" fill-opacity="1" stroke="#ffffff" stroke-width="0" />
<path d="M 83.19999999999999 96.31384387633061 L 88.0 88.0 L 92.8 96.31384387633061 L 89.44 96.31384387633061 L 89.44 112.0 L 86.56 112.0 L 86.56 96.31384387633061 Z" fill="#ffffff" />
<path d="M 102.4 103.68615612366939 L 97.6 112.0 L 92.8 103.68615612366939 L 96.16 103.68615612366939 L 96.16 88.0 L 99.03999999999999 88.0 L 99.03999999999999 103.68615612366939 Z" fill="#ffffff" />
<line x1="92.8" x2="92.8" y1="140.0" y2="240.0" stroke-width="3" stroke="#16acff" />

<rect x="72.8" y="140.0" width="40" height="40" rx="4" ry="4" fill="#16acff" fill-opacity="1" stroke="#ffffff" stroke-width="0" />
<path d="M 83.19999999999999 156.31384387633062 L 88.0 148.0 L 92.8 156.31384387633062 L 89.44 156.31384387633062 L 89.44 172.0 L 86.56 172.0 L 86.56 156.31384387633062 Z" fill="#ffffff" />
<path d="M 102.4 163.68615612366938 L 97.6 172.0 L 92.8 163.68615612366938 L 96.16 163.68615612366938 L 96.16 148.0 L 99.03999999999999 148.0 L 99.03999999999999 163.68615612366938 Z" fill="#ffffff" />
<rect x="72.8" y="200.0" width="40" height="40" rx="4" ry="4" fill="#16acff" fill-opacity="1" stroke="#ffffff" stroke-width="0" />
<path d="M 83.19999999999999 216.31384387633062 L 88.0 208.0 L 92.8 216.31384387633062 L 89.44 216.31384387633062 L 89.44 232.0 L 86.56 232.0 L 86.56 216.31384387633062 Z" fill="#ffffff" />
<path d="M 102.4 223.68615612366938 L 97.6 232.0 L 92.8 223.68615612366938 L 96.16 223.68615612366938 L 96.16 208.0 L 99.03999999999999 208.0 L 99.03999999999999 223.68615612366938 Z" fill="#ffffff" />
<circle cx="152.8" cy="100.0" r="4" fill="#16acff" />
<line x1="152.8" x2="152.8" y1="100.0" y2="160.0" stroke="#16acff" stroke-width="3" />
<rect x="132.8" y="140.0" width="40" height="40" rx="4" ry="4" stroke="#ffffff" stroke-width="0" fill="#16acff" fill-opacity="1" />
<line x1="138.8" x2="166.8" y1="160.0" y2="160.0" stroke="#ffffff" stroke-width="4" />
<line x1="152.8" x2="152.8" y1="146.0" y2="174.0" stroke="#ffffff" stroke-width="4" />
</svg>