<svg xmlns="http://www.w3.org/2000/svg" width="516.8" height="200" xmlns:xlink="http://www.w3.org/1999/xlink">
<rect x="0" y="0" width="516.8" height="200" fill="#ffffff" />
<text x="20.0" y="40.0" font-size="16px" dominant-baseline="middle" text-anchor="start" font-family="Arial" font-weight="normal" fill="#252b3a" >
q0:
 </text>
<text x="20.0" y="100.0" font-size="16px" dominant-baseline="middle" text-anchor="start" font-family="Arial" font-weight="normal" fill="#252b3a" >
q1:
 </text>
<text x="20.0" y="160.0" font-size="16px" dominant-baseline="middle" text-anchor="start" font-family="Arial" font-weight="normal" fill="#252b3a" >
q2:
 </text>
<line x1="48.8" x2="496.8" y1="40.0" y2="40.0" stroke="#adb0b8" stroke-width="1" />
<line x1="48.8" x2="496.8" y1="100.0" y2="100.0" stroke="#adb0b8" stroke-width="1" />
<line x1="48.8" x2="496.8" y1="160.0" y2="160.0" stroke="#adb0b8" stroke-width="1" />
<line x1="92.8" x2="92.8" y1="20.0" y2="180.0" stroke-width="3" stroke="#16acff" />

<rect x="72.8" y="20.0" width="40" height="40" rx="4" ry="4" fill="#16acff" fill-opacity="1" stroke="#ffffff" stroke-width="0" />
<path d="M 83.19999999999999 36.31384387633061 L 88.0 28.0 L 92.8 36.31384387633061 L 89.44 36.31384387633061 L 89.44 52.0 L 86.56 52.0 L 86.56 36.31384387633061 Z" fill="#ffffff" />
<path d="M 102.4 43.68615612366939 L 97.6 52.0 L 92.8 43.68615612366939 L 96.16 43.68615612366939 L 96.16 28.0 L 99.03999999999999 28.0 L 99.03999999999999 43.68615612366939 Z" fill="#ffffff" />
<rect x="72.8" y="140.0" width="40" height="40" rx="4" ry="4" fill="#16acff" fill-opacity="1" stroke="#ffffff" stroke-width="0" />
<path d="M 83.19999999999999 156.31384387633062 L 88.0 148.0 L 92.8 156.31384387633062 L 89.44 156.31384387633062 L 89.44 172.0 L 86.56 172.0 L 86.56 156.31384387633062 Z" fill="#ffffff" />
<path d="M 102.4 163.68615612366938 L 97.6 172.0 L 92.8 163.68615612366938 L 96.16 163.68615612366938 L 96.16 148.0 L 99.03999999999999 148.0 L 99.03999999999999 163.68615612366938 Z" fill="#ffffff" />

<rect x="132.8" y="140.0" width="40.0" height="40" rx="4" ry="4" stroke="#ffffff" stroke-width="0" fill="#5e7ce0" fill-opacity="1" />
<text x="152.8" y="160.0" font-size="20px" dominant-baseline="middle" text-anchor="middle" font-family="Arial" font-weight="normal" fill="#ffffff" >
H
 </text>

<circle cx="212.8" cy="160.0" r="4" fill="#fac209" />
<line x1="212.8" x2="212.8" y1="100.0" y2="160.0" stroke="#fac209" stroke-width="3" />
<rect x="192.8" y="80.0" width="40.0" height="40" rx="4" ry="4" stroke="#ffffff" stroke-width="0" fill="#fac209" fill-opacity="1" />
<text x="212.8" y="96.0" font-size="20px" dominant-baseline="middle" text-anchor="middle" font-family="Arial" font-weight="normal" fill="#ffffff" >
PS
 </text>
<text x="212.8" y="112.0" font-size="14.0px" dominant-baseline="middle" text-anchor="middle" font-family="Arial" font-weight="normal" fill="#ffffff" >
-π/2
 </text>


<rect x="252.8" y="80.0" width="40.0" height="40" rx="4" ry="4" stroke="#ffffff" stroke-width="0" fill="#5e7ce0" fill-opacity="1" />
<text x="272.8" y="100.0" font-size="20px" dominant-baseline="middle" text-anchor="middle" font-family="Arial" font-weight="normal" fill="#ffffff" >
H
 </text>

<circle cx="332.8" cy="160.0" r="4" fill="#fac209" />
<line x1="332.8" x2="332.8" y1="40.0" y2="160.0" stroke="#fac209" stroke-width="3" />
<rect x="312.8" y="20.0" width="40.0" height="40" rx="4" ry="4" stroke="#ffffff" stroke-width="0" fill="#fac209" fill-opacity="1" />
<text x="332.8" y="36.0" font-size="20px" dominant-baseline="middle" text-anchor="middle" font-family="Arial" font-weight="normal" fill="#ffffff" >
PS
 </text>
<text x="332.8" y="52.0" font-size="14.0px" dominant-baseline="middle" text-anchor="middle" font-family="Arial" font-weight="normal" fill="#ffffff" >
-π/4
 </text>

<circle cx="392.8" cy="100.0" r="4" fill="#fac209" />
<line x1="392.8" x2="392.8" y1="40.0" y2="100.0" stroke="#fac209" stroke-width="3" />
<rect x="372.8" y="20.0" width="40.0" height="40" rx="4" ry="4" stroke="#ffffff" stroke-width="0" fill="#fac209" fill-opacity="1" />
<text x="392.8" y="36.0" font-size="20px" dominant-baseline="middle" text-anchor="middle" font-family="Arial" font-weight="normal" fill="#ffffff" >
PS
 </text>
<text x="392.8" y="52.0" font-size="14.0px" dominant-baseline="middle" text-anchor="middle" font-family="Arial" font-weight="normal" fill="#ffffff" >
-π/2
 </text>


<rect x="432.8" y="20.0" width="40.0" height="40" rx="4" ry="4" stroke="#ffffff" stroke-width="0" fill="#5e7ce0" fill-opacity="1" />
<text x="452.8" y="40.0" font-size="20px" dominant-baseline="middle" text-anchor="middle" font-family="Arial" font-weight="normal" fill="#ffffff" >
H
 </text>

</svg>