<svg xmlns="http://www.w3.org/2000/svg" width="422.8" height="117.0" xmlns:xlink="http://www.w3.org/1999/xlink">
<rect x="0" y="0" width="422.8" height="117.0" fill="#ffffff" />
<text x="10" y="17.0" font-size="14px" dominant-baseline="middle" text-anchor="start" >
Shots:
 100
 </text>
<text x="10" y="31.0" font-size="14px" dominant-baseline="middle" text-anchor="start" >
Keys: q3 q2 q1 q0
 </text>
<line x1="52.8" x2="412.8" y1="62.0" y2="62.0" stroke="#adb0b8" stroke-width="1" />
<line x1="52.8" x2="52.8" y1="55.0" y2="62.0" stroke="#adb0b8" stroke-width="1" />
<text x="54.8" y="60.0" font-size="12px" dominant-baseline="bottom" text-anchor="start" fill="#575d6c" >
0.0
 </text>
<line x1="52.8" x2="52.8" y1="62.0" y2="107.0" stroke="#adb0b8" stroke-width="1" />
<line x1="112.8" x2="112.8" y1="55.0" y2="62.0" stroke="#adb0b8" stroke-width="1" />
<text x="114.8" y="60.0" font-size="12px" dominant-baseline="bottom" text-anchor="start" fill="#575d6c" >
0.2
 </text>
<line x1="112.8" x2="112.8" y1="62.0" y2="107.0" stroke="#dfe1e6" stroke-width="1" />
<line x1="172.8" x2="172.8" y1="55.0" y2="62.0" stroke="#adb0b8" stroke-width="1" />
<text x="174.8" y="60.0" font-size="12px" dominant-baseline="bottom" text-anchor="start" fill="#575d6c" >
0.4
 </text>
<line x1="172.8" x2="172.8" y1="62.0" y2="107.0" stroke="#dfe1e6" stroke-width="1" />
<line x1="232.8" x2="232.8" y1="55.0" y2="62.0" stroke="#adb0b8" stroke-width="1" />
<text x="234.8" y="60.0" font-size="12px" dominant-baseline="bottom" text-anchor="start" fill="#575d6c" >
0.6
 </text>
<line x1="232.8" x2="232.8" y1="62.0" y2="107.0" stroke="#dfe1e6" stroke-width="1" />
<line x1="292.8" x2="292.8" y1="55.0" y2="62.0" stroke="#adb0b8" stroke-width="1" />
<text x="294.8" y="60.0" font-size="12px" dominant-baseline="bottom" text-anchor="start" fill="#575d6c" >
0.8
 </text>
<line x1="292.8" x2="292.8" y1="62.0" y2="107.0" stroke="#dfe1e6" stroke-width="1" />
<line x1="352.8" x2="352.8" y1="55.0" y2="62.0" stroke="#adb0b8" stroke-width="1" />
<text x="354.8" y="60.0" font-size="12px" dominant-baseline="bottom" text-anchor="start" fill="#575d6c" >
1.0
 </text>
<line x1="352.8" x2="352.8" y1="62.0" y2="107.0" stroke="#dfe1e6" stroke-width="1" />
<text x="43.8" y="85.0" font-size="12px" dominant-baseline="middle" text-anchor="end" fill="#575d6c" >
1010
 </text>
<line x1="45.8" x2="52.8" y1="85.0" y2="85.0" stroke="#adb0b8" stroke-width="1" />
<rect x="52.8" y="73.0" width="300.0" height="24" id="bar_0_1666947948779205936" fill="#5e7ce0" />
<text x="362.8" y="85.0" font-size="14px" dominant-baseline="middle" text-anchor="start" fill="#575d6c" id="bar_text_0_1666947948779250097" fill-opacity="0" >
100
 </text>
<animate xlink:href="#bar_0_1666947948779205936" attributeName="width" from="0" to="300.0" dur="0.3s" calcMode="spline" values="0; 300.0" keyTimes="0; 1" keySplines="0.42 0 1 0.8;" fill="freeze" />
<animate xlink:href="#bar_0_1666947948779205936" attributeName="fill" from="#5e7ce0" to="#fac209" dur="0.15s" calcMode="spline" values="#5e7ce0; #fac209" keyTimes="0; 1" keySplines="0.42 0 1 0.8;" fill="freeze" begin="0.3s" />
<animate xlink:href="#bar_text_0_1666947948779250097" attributeName="fill-opacity" from="0" to="1" dur="0.15s" calcMode="spline" values="0; 1" keyTimes="0; 1" keySplines="0.42 0 1 0.8;" fill="freeze" begin="0.3s" />
<text x="213.9" y="41.0" font-size="14px" dominant-baseline="middle" text-anchor="middle" >
probability
 </text>
</svg>