<svg xmlns="http://www.w3.org/2000/svg" width="456.8" height="200" xmlns:xlink="http://www.w3.org/1999/xlink">
<rect x="0" y="0" width="456.8" height="200" fill="#ffffff" />
<text x="20.0" y="40.0" font-size="16px" dominant-baseline="middle" text-anchor="start" font-family="Arial" font-weight="normal" fill="#252b3a" >
q0:
 </text>
<text x="20.0" y="100.0" font-size="16px" dominant-baseline="middle" text-anchor="start" font-family="Arial" font-weight="normal" fill="#252b3a" >
q1:
 </text>
<text x="20.0" y="160.0" font-size="16px" dominant-baseline="middle" text-anchor="start" font-family="Arial" font-weight="normal" fill="#252b3a" >
q2:
 </text>
<line x1="48.8" x2="436.8" y1="40.0" y2="40.0" stroke="#adb0b8" stroke-width="1" />
<line x1="48.8" x2="436.8" y1="100.0" y2="100.0" stroke="#adb0b8" stroke-width="1" />
<line x1="48.8" x2="436.8" y1="160.0" y2="160.0" stroke="#adb0b8" stroke-width="1" />

<rect x="72.8" y="20.0" width="40.0" height="40" rx="4" ry="4" stroke="#ffffff" stroke-width="0" fill="#5e7ce0" fill-opacity="1" />
<text x="92.8" y="40.0" font-size="20px" dominant-baseline="middle" text-anchor="middle" font-family="Arial" font-weight="normal" fill="#ffffff" >
H
 </text>


<rect x="72.8" y="80.0" width="40.0" height="40" rx="4" ry="4" stroke="#ffffff" stroke-width="0" fill="#5e7ce0" fill-opacity="1" />
<text x="92.8" y="100.0" font-size="20px" dominant-baseline="middle" text-anchor="middle" font-family="Arial" font-weight="normal" fill="#ffffff" >
H
 </text>


<rect x="72.8" y="140.0" width="40.0" height="40" rx="4" ry="4" stroke="#ffffff" stroke-width="0" fill="#5e7ce0" fill-opacity="1" />
<text x="92.8" y="160.0" font-size="20px" dominant-baseline="middle" text-anchor="middle" font-family="Arial" font-weight="normal" fill="#ffffff" >
H
 </text>


<rect x="132.8" y="20.0" width="40.0" height="40" rx="4" ry="4" stroke="#ffffff" stroke-width="0" fill="#5e7ce0" fill-opacity="1" />
<text x="152.8" y="40.0" font-size="20px" dominant-baseline="middle" text-anchor="middle" font-family="Arial" font-weight="normal" fill="#ffffff" >
Z
 </text>


<rect x="132.8" y="80.0" width="40.0" height="40" rx="4" ry="4" stroke="#ffffff" stroke-width="0" fill="#5e7ce0" fill-opacity="1" />
<text x="152.8" y="100.0" font-size="20px" dominant-baseline="middle" text-anchor="middle" font-family="Arial" font-weight="normal" fill="#ffffff" >
Z
 </text>

<circle cx="212.8" cy="40.0" r="4" fill="#5e7ce0" />
<line x1="212.8" x2="212.8" y1="40.0" y2="100.0" stroke="#5e7ce0" stroke-width="3" />
<rect x="192.8" y="80.0" width="40.0" height="40" rx="4" ry="4" stroke="#ffffff" stroke-width="0" fill="#5e7ce0" fill-opacity="1" />
<text x="212.8" y="100.0" font-size="20px" dominant-baseline="middle" text-anchor="middle" font-family="Arial" font-weight="normal" fill="#ffffff" >
Z
 </text>


<rect x="132.8" y="140.0" width="40.0" height="40" rx="4" ry="4" stroke="#ffffff" stroke-width="0" fill="#5e7ce0" fill-opacity="1" />
<text x="152.8" y="160.0" font-size="20px" dominant-baseline="middle" text-anchor="middle" font-family="Arial" font-weight="normal" fill="#ffffff" >
Z
 </text>

<circle cx="272.8" cy="40.0" r="4" fill="#5e7ce0" />
<line x1="272.8" x2="272.8" y1="40.0" y2="160.0" stroke="#5e7ce0" stroke-width="3" />
<rect x="252.8" y="140.0" width="40.0" height="40" rx="4" ry="4" stroke="#ffffff" stroke-width="0" fill="#5e7ce0" fill-opacity="1" />
<text x="272.8" y="160.0" font-size="20px" dominant-baseline="middle" text-anchor="middle" font-family="Arial" font-weight="normal" fill="#ffffff" >
Z
 </text>

<circle cx="332.8" cy="100.0" r="4" fill="#5e7ce0" />
<line x1="332.8" x2="332.8" y1="100.0" y2="160.0" stroke="#5e7ce0" stroke-width="3" />
<rect x="312.8" y="140.0" width="40.0" height="40" rx="4" ry="4" stroke="#ffffff" stroke-width="0" fill="#5e7ce0" fill-opacity="1" />
<text x="332.8" y="160.0" font-size="20px" dominant-baseline="middle" text-anchor="middle" font-family="Arial" font-weight="normal" fill="#ffffff" >
Z
 </text>

<circle cx="392.8" cy="40.0" r="4" fill="#5e7ce0" />
<circle cx="392.8" cy="100.0" r="4" fill="#5e7ce0" />
<line x1="392.8" x2="392.8" y1="40.0" y2="160.0" stroke="#5e7ce0" stroke-width="3" />
<rect x="372.8" y="140.0" width="40.0" height="40" rx="4" ry="4" stroke="#ffffff" stroke-width="0" fill="#5e7ce0" fill-opacity="1" />
<text x="392.8" y="160.0" font-size="20px" dominant-baseline="middle" text-anchor="middle" font-family="Arial" font-weight="normal" fill="#ffffff" >
Z
 </text>

</svg>