<svg xmlns="http://www.w3.org/2000/svg" width="416.8" height="320" xmlns:xlink="http://www.w3.org/1999/xlink">
<rect x="0" y="0" width="416.8" height="320" fill="#ffffff" />
<text x="20.0" y="40.0" font-size="16px" dominant-baseline="middle" text-anchor="start" font-family="Arial" font-weight="normal" fill="#252b3a" >
q0:
 </text>
<text x="20.0" y="100.0" font-size="16px" dominant-baseline="middle" text-anchor="start" font-family="Arial" font-weight="normal" fill="#252b3a" >
q1:
 </text>
<text x="20.0" y="160.0" font-size="16px" dominant-baseline="middle" text-anchor="start" font-family="Arial" font-weight="normal" fill="#252b3a" >
q2:
 </text>
<text x="20.0" y="220.0" font-size="16px" dominant-baseline="middle" text-anchor="start" font-family="Arial" font-weight="normal" fill="#252b3a" >
q3:
 </text>
<text x="20.0" y="280.0" font-size="16px" dominant-baseline="middle" text-anchor="start" font-family="Arial" font-weight="normal" fill="#252b3a" >
q4:
 </text>
<line x1="48.8" x2="396.8" y1="40.0" y2="40.0" stroke="#adb0b8" stroke-width="1" />
<line x1="48.8" x2="396.8" y1="100.0" y2="100.0" stroke="#adb0b8" stroke-width="1" />
<line x1="48.8" x2="396.8" y1="160.0" y2="160.0" stroke="#adb0b8" stroke-width="1" />
<line x1="48.8" x2="396.8" y1="220.0" y2="220.0" stroke="#adb0b8" stroke-width="1" />
<line x1="48.8" x2="396.8" y1="280.0" y2="280.0" stroke="#adb0b8" stroke-width="1" />

<rect x="72.8" y="20.0" width="80.0" height="40" rx="4" ry="4" stroke="#ffffff" stroke-width="0" fill="#fac209" fill-opacity="1" />
<text x="112.8" y="36.0" font-size="20px" dominant-baseline="middle" text-anchor="middle" font-family="Arial" font-weight="normal" fill="#ffffff" >
RY
 </text>
<text x="112.8" y="52.0" font-size="14.0px" dominant-baseline="middle" text-anchor="middle" font-family="Arial" font-weight="normal" fill="#ffffff" >
a_0_0
 </text>


<rect x="72.8" y="80.0" width="80.0" height="40" rx="4" ry="4" stroke="#ffffff" stroke-width="0" fill="#fac209" fill-opacity="1" />
<text x="112.8" y="96.0" font-size="20px" dominant-baseline="middle" text-anchor="middle" font-family="Arial" font-weight="normal" fill="#ffffff" >
RY
 </text>
<text x="112.8" y="112.0" font-size="14.0px" dominant-baseline="middle" text-anchor="middle" font-family="Arial" font-weight="normal" fill="#ffffff" >
a_0_1
 </text>


<rect x="72.8" y="140.0" width="80.0" height="40" rx="4" ry="4" stroke="#ffffff" stroke-width="0" fill="#fac209" fill-opacity="1" />
<text x="112.8" y="156.0" font-size="20px" dominant-baseline="middle" text-anchor="middle" font-family="Arial" font-weight="normal" fill="#ffffff" >
RY
 </text>
<text x="112.8" y="172.0" font-size="14.0px" dominant-baseline="middle" text-anchor="middle" font-family="Arial" font-weight="normal" fill="#ffffff" >
a_0_2
 </text>


<rect x="72.8" y="200.0" width="80.0" height="40" rx="4" ry="4" stroke="#ffffff" stroke-width="0" fill="#fac209" fill-opacity="1" />
<text x="112.8" y="216.0" font-size="20px" dominant-baseline="middle" text-anchor="middle" font-family="Arial" font-weight="normal" fill="#ffffff" >
RY
 </text>
<text x="112.8" y="232.0" font-size="14.0px" dominant-baseline="middle" text-anchor="middle" font-family="Arial" font-weight="normal" fill="#ffffff" >
a_0_3
 </text>


<rect x="72.8" y="260.0" width="80.0" height="40" rx="4" ry="4" stroke="#ffffff" stroke-width="0" fill="#fac209" fill-opacity="1" />
<text x="112.8" y="276.0" font-size="20px" dominant-baseline="middle" text-anchor="middle" font-family="Arial" font-weight="normal" fill="#ffffff" >
RY
 </text>
<text x="112.8" y="292.0" font-size="14.0px" dominant-baseline="middle" text-anchor="middle" font-family="Arial" font-weight="normal" fill="#ffffff" >
a_0_4
 </text>

<circle cx="192.8" cy="40.0" r="4" fill="#16acff" />
<line x1="192.8" x2="192.8" y1="40.0" y2="100.0" stroke="#16acff" stroke-width="3" />
<rect x="172.8" y="80.0" width="40" height="40" rx="4" ry="4" stroke="#ffffff" stroke-width="0" fill="#16acff" fill-opacity="1" />
<line x1="178.8" x2="206.8" y1="100.0" y2="100.0" stroke="#ffffff" stroke-width="4" />
<line x1="192.8" x2="192.8" y1="86.0" y2="114.0" stroke="#ffffff" stroke-width="4" />
<circle cx="192.8" cy="160.0" r="4" fill="#16acff" />
<line x1="192.8" x2="192.8" y1="160.0" y2="220.0" stroke="#16acff" stroke-width="3" />
<rect x="172.8" y="200.0" width="40" height="40" rx="4" ry="4" stroke="#ffffff" stroke-width="0" fill="#16acff" fill-opacity="1" />
<line x1="178.8" x2="206.8" y1="220.0" y2="220.0" stroke="#ffffff" stroke-width="4" />
<line x1="192.8" x2="192.8" y1="206.0" y2="234.0" stroke="#ffffff" stroke-width="4" />

<rect x="232.8" y="20.0" width="80.0" height="40" rx="4" ry="4" stroke="#ffffff" stroke-width="0" fill="#fac209" fill-opacity="1" />
<text x="272.8" y="36.0" font-size="20px" dominant-baseline="middle" text-anchor="middle" font-family="Arial" font-weight="normal" fill="#ffffff" >
RY
 </text>
<text x="272.8" y="52.0" font-size="14.0px" dominant-baseline="middle" text-anchor="middle" font-family="Arial" font-weight="normal" fill="#ffffff" >
a_1_0
 </text>


<rect x="232.8" y="80.0" width="80.0" height="40" rx="4" ry="4" stroke="#ffffff" stroke-width="0" fill="#fac209" fill-opacity="1" />
<text x="272.8" y="96.0" font-size="20px" dominant-baseline="middle" text-anchor="middle" font-family="Arial" font-weight="normal" fill="#ffffff" >
RY
 </text>
<text x="272.8" y="112.0" font-size="14.0px" dominant-baseline="middle" text-anchor="middle" font-family="Arial" font-weight="normal" fill="#ffffff" >
a_1_1
 </text>


<rect x="232.8" y="140.0" width="80.0" height="40" rx="4" ry="4" stroke="#ffffff" stroke-width="0" fill="#fac209" fill-opacity="1" />
<text x="272.8" y="156.0" font-size="20px" dominant-baseline="middle" text-anchor="middle" font-family="Arial" font-weight="normal" fill="#ffffff" >
RY
 </text>
<text x="272.8" y="172.0" font-size="14.0px" dominant-baseline="middle" text-anchor="middle" font-family="Arial" font-weight="normal" fill="#ffffff" >
a_1_2
 </text>


<rect x="232.8" y="200.0" width="80.0" height="40" rx="4" ry="4" stroke="#ffffff" stroke-width="0" fill="#fac209" fill-opacity="1" />
<text x="272.8" y="216.0" font-size="20px" dominant-baseline="middle" text-anchor="middle" font-family="Arial" font-weight="normal" fill="#ffffff" >
RY
 </text>
<text x="272.8" y="232.0" font-size="14.0px" dominant-baseline="middle" text-anchor="middle" font-family="Arial" font-weight="normal" fill="#ffffff" >
a_1_3
 </text>


<rect x="172.8" y="260.0" width="80.0" height="40" rx="4" ry="4" stroke="#ffffff" stroke-width="0" fill="#fac209" fill-opacity="1" />
<text x="212.8" y="276.0" font-size="20px" dominant-baseline="middle" text-anchor="middle" font-family="Arial" font-weight="normal" fill="#ffffff" >
RY
 </text>
<text x="212.8" y="292.0" font-size="14.0px" dominant-baseline="middle" text-anchor="middle" font-family="Arial" font-weight="normal" fill="#ffffff" >
a_1_4
 </text>

<circle cx="352.8" cy="100.0" r="4" fill="#16acff" />
<line x1="352.8" x2="352.8" y1="100.0" y2="160.0" stroke="#16acff" stroke-width="3" />
<rect x="332.8" y="140.0" width="40" height="40" rx="4" ry="4" stroke="#ffffff" stroke-width="0" fill="#16acff" fill-opacity="1" />
<line x1="338.8" x2="366.8" y1="160.0" y2="160.0" stroke="#ffffff" stroke-width="4" />
<line x1="352.8" x2="352.8" y1="146.0" y2="174.0" stroke="#ffffff" stroke-width="4" />
<circle cx="352.8" cy="220.0" r="4" fill="#16acff" />
<line x1="352.8" x2="352.8" y1="220.0" y2="280.0" stroke="#16acff" stroke-width="3" />
<rect x="332.8" y="260.0" width="40" height="40" rx="4" ry="4" stroke="#ffffff" stroke-width="0" fill="#16acff" fill-opacity="1" />
<line x1="338.8" x2="366.8" y1="280.0" y2="280.0" stroke="#ffffff" stroke-width="4" />
<line x1="352.8" x2="352.8" y1="266.0" y2="294.0" stroke="#ffffff" stroke-width="4" />
</svg>