<svg xmlns="http://www.w3.org/2000/svg" width="916.8" height="260.0" xmlns:xlink="http://www.w3.org/1999/xlink"><rect x="0" y="0.0" width="916.8" height="260.0" fill="#ffffff" /><text x="20.0" y="40.0" font-size="16px" dominant-baseline="middle" text-anchor="start" font-family="Arial" font-weight="normal" fill="#252b3a" >q0: </text><text x="20.0" y="100.0" font-size="16px" dominant-baseline="middle" text-anchor="start" font-family="Arial" font-weight="normal" fill="#252b3a" >q1: </text><text x="20.0" y="160.0" font-size="16px" dominant-baseline="middle" text-anchor="start" font-family="Arial" font-weight="normal" fill="#252b3a" >q2: </text><text x="20.0" y="220.0" font-size="16px" dominant-baseline="middle" text-anchor="start" font-family="Arial" font-weight="normal" fill="#252b3a" >q3: </text><line x1="48.8" x2="896.8" y1="40.0" y2="40.0" stroke="#adb0b8" stroke-width="1" /><line x1="48.8" x2="896.8" y1="100.0" y2="100.0" stroke="#adb0b8" stroke-width="1" /><line x1="48.8" x2="896.8" y1="160.0" y2="160.0" stroke="#adb0b8" stroke-width="1" /><line x1="48.8" x2="896.8" y1="220.0" y2="220.0" stroke="#adb0b8" stroke-width="1" /><rect x="72.8" y="20.0" width="40.0" height="40" rx="4" ry="4" stroke="#ffffff" stroke-width="0" fill="#5e7ce0" fill-opacity="1" /><text x="92.8" y="40.0" font-size="20px" dominant-baseline="middle" text-anchor="middle" font-family="Arial" font-weight="normal" fill="#ffffff" >H </text><rect x="72.8" y="80.0" width="40.0" height="40" rx="4" ry="4" stroke="#ffffff" stroke-width="0" fill="#5e7ce0" fill-opacity="1" /><text x="92.8" y="100.0" font-size="20px" dominant-baseline="middle" text-anchor="middle" font-family="Arial" font-weight="normal" fill="#ffffff" >H </text><rect x="72.8" y="140.0" width="40.0" height="40" rx="4" ry="4" stroke="#ffffff" stroke-width="0" fill="#5e7ce0" fill-opacity="1" /><text x="92.8" y="160.0" font-size="20px" dominant-baseline="middle" text-anchor="middle" font-family="Arial" font-weight="normal" fill="#ffffff" >H </text><rect x="72.8" y="200.0" width="40.0" height="40" rx="4" ry="4" stroke="#ffffff" stroke-width="0" fill="#5e7ce0" fill-opacity="1" /><text x="92.8" y="220.0" font-size="20px" dominant-baseline="middle" text-anchor="middle" font-family="Arial" font-weight="normal" fill="#ffffff" >H </text><rect x="132.8" y="20.0" width="80.0" height="40" rx="4" ry="4" stroke="#ffffff" stroke-width="0" fill="#fac209" fill-opacity="1" /><text x="172.8" y="36.0" font-size="20px" dominant-baseline="middle" text-anchor="middle" font-family="Arial" font-weight="normal" fill="#ffffff" >RZ </text><text x="172.8" y="52.0" font-size="14.0px" dominant-baseline="middle" text-anchor="middle" font-family="Arial" font-weight="normal" fill="#ffffff" >0_alpha </text><rect x="132.8" y="80.0" width="80.0" height="40" rx="4" ry="4" stroke="#ffffff" stroke-width="0" fill="#fac209" fill-opacity="1" /><text x="172.8" y="96.0" font-size="20px" dominant-baseline="middle" text-anchor="middle" font-family="Arial" font-weight="normal" fill="#ffffff" >RZ </text><text x="172.8" y="112.0" font-size="14.0px" dominant-baseline="middle" text-anchor="middle" font-family="Arial" font-weight="normal" fill="#ffffff" >1_alpha </text><rect x="132.8" y="140.0" width="80.0" height="40" rx="4" ry="4" stroke="#ffffff" stroke-width="0" fill="#fac209" fill-opacity="1" /><text x="172.8" y="156.0" font-size="20px" dominant-baseline="middle" text-anchor="middle" font-family="Arial" font-weight="normal" fill="#ffffff" >RZ </text><text x="172.8" y="172.0" font-size="14.0px" dominant-baseline="middle" text-anchor="middle" font-family="Arial" font-weight="normal" fill="#ffffff" >2_alpha </text><rect x="132.8" y="200.0" width="80.0" height="40" rx="4" ry="4" stroke="#ffffff" stroke-width="0" fill="#fac209" fill-opacity="1" /><text x="172.8" y="216.0" font-size="20px" dominant-baseline="middle" text-anchor="middle" font-family="Arial" font-weight="normal" fill="#ffffff" >RZ </text><text x="172.8" y="232.0" font-size="14.0px" dominant-baseline="middle" text-anchor="middle" font-family="Arial" font-weight="normal" fill="#ffffff" >3_alpha </text><circle cx="252.8" cy="40.0" r="4" fill="#16acff" /><line x1="252.8" x2="252.8" y1="40.0" y2="100.0" stroke="#16acff" stroke-width="3" /><rect x="232.8" y="80.0" width="40" height="40" rx="4" ry="4" stroke="#ffffff" stroke-width="0" fill="#16acff" fill-opacity="1" /><line x1="238.8" x2="266.8" y1="100.0" y2="100.0" stroke="#ffffff" stroke-width="4" /><line x1="252.8" x2="252.8" y1="86.0" y2="114.0" stroke="#ffffff" stroke-width="4" /><rect x="292.8" y="80.0" width="80.0" height="40" rx="4" ry="4" stroke="#ffffff" stroke-width="0" fill="#fac209" fill-opacity="1" /><text x="332.8" y="96.0" font-size="20px" dominant-baseline="middle" text-anchor="middle" font-family="Arial" font-weight="normal" fill="#ffffff" >RZ </text><text x="332.8" y="112.0" font-size="14.0px" dominant-baseline="middle" text-anchor="middle" font-family="Arial" font-weight="normal" fill="#ffffff" >4_alpha </text><circle cx="412.8" cy="40.0" r="4" fill="#16acff" /><line x1="412.8" x2="412.8" y1="40.0" y2="100.0" stroke="#16acff" stroke-width="3" /><rect x="392.8" y="80.0" width="40" height="40" rx="4" ry="4" stroke="#ffffff" stroke-width="0" fill="#16acff" fill-opacity="1" /><line x1="398.8" x2="426.8" y1="100.0" y2="100.0" stroke="#ffffff" stroke-width="4" /><line x1="412.8" x2="412.8" y1="86.0" y2="114.0" stroke="#ffffff" stroke-width="4" /><circle cx="472.8" cy="100.0" r="4" fill="#16acff" /><line x1="472.8" x2="472.8" y1="100.0" y2="160.0" stroke="#16acff" stroke-width="3" /><rect x="452.8" y="140.0" width="40" height="40" rx="4" ry="4" stroke="#ffffff" stroke-width="0" fill="#16acff" fill-opacity="1" /><line x1="458.8" x2="486.8" y1="160.0" y2="160.0" stroke="#ffffff" stroke-width="4" /><line x1="472.8" x2="472.8" y1="146.0" y2="174.0" stroke="#ffffff" stroke-width="4" /><rect x="512.8" y="140.0" width="80.0" height="40" rx="4" ry="4" stroke="#ffffff" stroke-width="0" fill="#fac209" fill-opacity="1" /><text x="552.8" y="156.0" font-size="20px" dominant-baseline="middle" text-anchor="middle" font-family="Arial" font-weight="normal" fill="#ffffff" >RZ </text><text x="552.8" y="172.0" font-size="14.0px" dominant-baseline="middle" text-anchor="middle" font-family="Arial" font-weight="normal" fill="#ffffff" >5_alpha </text><circle cx="632.8" cy="100.0" r="4" fill="#16acff" /><line x1="632.8" x2="632.8" y1="100.0" y2="160.0" stroke="#16acff" stroke-width="3" /><rect x="612.8" y="140.0" width="40" height="40" rx="4" ry="4" stroke="#ffffff" stroke-width="0" fill="#16acff" fill-opacity="1" /><line x1="618.8" x2="646.8" y1="160.0" y2="160.0" stroke="#ffffff" stroke-width="4" /><line x1="632.8" x2="632.8" y1="146.0" y2="174.0" stroke="#ffffff" stroke-width="4" /><circle cx="692.8" cy="160.0" r="4" fill="#16acff" /><line x1="692.8" x2="692.8" y1="160.0" y2="220.0" stroke="#16acff" stroke-width="3" /><rect x="672.8" y="200.0" width="40" height="40" rx="4" ry="4" stroke="#ffffff" stroke-width="0" fill="#16acff" fill-opacity="1" /><line x1="678.8" x2="706.8" y1="220.0" y2="220.0" stroke="#ffffff" stroke-width="4" /><line x1="692.8" x2="692.8" y1="206.0" y2="234.0" stroke="#ffffff" stroke-width="4" /><rect x="732.8" y="200.0" width="80.0" height="40" rx="4" ry="4" stroke="#ffffff" stroke-width="0" fill="#fac209" fill-opacity="1" /><text x="772.8" y="216.0" font-size="20px" dominant-baseline="middle" text-anchor="middle" font-family="Arial" font-weight="normal" fill="#ffffff" >RZ </text><text x="772.8" y="232.0" font-size="14.0px" dominant-baseline="middle" text-anchor="middle" font-family="Arial" font-weight="normal" fill="#ffffff" >6_alpha </text><circle cx="852.8" cy="160.0" r="4" fill="#16acff" /><line x1="852.8" x2="852.8" y1="160.0" y2="220.0" stroke="#16acff" stroke-width="3" /><rect x="832.8" y="200.0" width="40" height="40" rx="4" ry="4" stroke="#ffffff" stroke-width="0" fill="#16acff" fill-opacity="1" /><line x1="838.8" x2="866.8" y1="220.0" y2="220.0" stroke="#ffffff" stroke-width="4" /><line x1="852.8" x2="852.8" y1="206.0" y2="234.0" stroke="#ffffff" stroke-width="4" /></svg>