<svg xmlns="http://www.w3.org/2000/svg" width="5056.8" height="500.0" xmlns:xlink="http://www.w3.org/1999/xlink"><rect x="0" y="0.0" width="5056.8" height="500.0" fill="#ffffff" /><text x="20.0" y="40.0" font-size="16px" dominant-baseline="middle" text-anchor="start" font-family="Arial" font-weight="normal" fill="#252b3a" >q0: </text><text x="20.0" y="100.0" font-size="16px" dominant-baseline="middle" text-anchor="start" font-family="Arial" font-weight="normal" fill="#252b3a" >q1: </text><text x="20.0" y="160.0" font-size="16px" dominant-baseline="middle" text-anchor="start" font-family="Arial" font-weight="normal" fill="#252b3a" >q2: </text><text x="20.0" y="220.0" font-size="16px" dominant-baseline="middle" text-anchor="start" font-family="Arial" font-weight="normal" fill="#252b3a" >q3: </text><text x="20.0" y="280.0" font-size="16px" dominant-baseline="middle" text-anchor="start" font-family="Arial" font-weight="normal" fill="#252b3a" >q4: </text><text x="20.0" y="340.0" font-size="16px" dominant-baseline="middle" text-anchor="start" font-family="Arial" font-weight="normal" fill="#252b3a" >q5: </text><text x="20.0" y="400.0" font-size="16px" dominant-baseline="middle" text-anchor="start" font-family="Arial" font-weight="normal" fill="#252b3a" >q6: </text><text x="20.0" y="460.0" font-size="16px" dominant-baseline="middle" text-anchor="start" font-family="Arial" font-weight="normal" fill="#252b3a" >q7: </text><line x1="48.8" x2="5036.8" y1="40.0" y2="40.0" stroke="#adb0b8" stroke-width="1" /><line x1="48.8" x2="5036.8" y1="100.0" y2="100.0" stroke="#adb0b8" stroke-width="1" /><line x1="48.8" x2="5036.8" y1="160.0" y2="160.0" stroke="#adb0b8" stroke-width="1" /><line x1="48.8" x2="5036.8" y1="220.0" y2="220.0" stroke="#adb0b8" stroke-width="1" /><line x1="48.8" x2="5036.8" y1="280.0" y2="280.0" stroke="#adb0b8" stroke-width="1" /><line x1="48.8" x2="5036.8" y1="340.0" y2="340.0" stroke="#adb0b8" stroke-width="1" /><line x1="48.8" x2="5036.8" y1="400.0" y2="400.0" stroke="#adb0b8" stroke-width="1" /><line x1="48.8" x2="5036.8" y1="460.0" y2="460.0" stroke="#adb0b8" stroke-width="1" /><rect x="72.8" y="20.0" width="40.0" height="40" rx="4" ry="4" stroke="#ffffff" stroke-width="0" fill="#5e7ce0" fill-opacity="1" /><text x="92.8" y="40.0" font-size="20px" dominant-baseline="middle" text-anchor="middle" font-family="Arial" font-weight="normal" fill="#ffffff" >H </text><rect x="72.8" y="80.0" width="40.0" height="40" rx="4" ry="4" stroke="#ffffff" stroke-width="0" fill="#5e7ce0" fill-opacity="1" /><text x="92.8" y="100.0" font-size="20px" dominant-baseline="middle" text-anchor="middle" font-family="Arial" font-weight="normal" fill="#ffffff" >H </text><rect x="72.8" y="140.0" width="40.0" height="40" rx="4" ry="4" stroke="#ffffff" stroke-width="0" fill="#5e7ce0" fill-opacity="1" /><text x="92.8" y="160.0" font-size="20px" dominant-baseline="middle" text-anchor="middle" font-family="Arial" font-weight="normal" fill="#ffffff" >H </text><rect x="72.8" y="200.0" width="40.0" height="40" rx="4" ry="4" stroke="#ffffff" stroke-width="0" fill="#5e7ce0" fill-opacity="1" /><text x="92.8" y="220.0" font-size="20px" dominant-baseline="middle" text-anchor="middle" font-family="Arial" font-weight="normal" fill="#ffffff" >H </text><rect x="132.8" y="20.0" width="20" height="460" fill="gray" fill-opacity="0.8" /><rect x="172.8" y="20.0" width="40.0" height="40" rx="4" ry="4" stroke="#ffffff" stroke-width="0" fill="#5e7ce0" fill-opacity="1" /><text x="192.8" y="40.0" font-size="20px" dominant-baseline="middle" text-anchor="middle" font-family="Arial" font-weight="normal" fill="#ffffff" >X </text><rect x="172.8" y="80.0" width="40.0" height="40" rx="4" ry="4" stroke="#ffffff" stroke-width="0" fill="#5e7ce0" fill-opacity="1" /><text x="192.8" y="100.0" font-size="20px" dominant-baseline="middle" text-anchor="middle" font-family="Arial" font-weight="normal" fill="#ffffff" >X </text><rect x="172.8" y="140.0" width="40.0" height="40" rx="4" ry="4" stroke="#ffffff" stroke-width="0" fill="#5e7ce0" fill-opacity="1" /><text x="192.8" y="160.0" font-size="20px" dominant-baseline="middle" text-anchor="middle" font-family="Arial" font-weight="normal" fill="#ffffff" >X </text><rect x="172.8" y="200.0" width="40.0" height="40" rx="4" ry="4" stroke="#ffffff" stroke-width="0" fill="#5e7ce0" fill-opacity="1" /><text x="192.8" y="220.0" font-size="20px" dominant-baseline="middle" text-anchor="middle" font-family="Arial" font-weight="normal" fill="#ffffff" >X </text><circle cx="272.8" cy="40.0" r="4" fill="#5e7ce0" /><circle cx="272.8" cy="100.0" r="4" fill="#5e7ce0" /><circle cx="272.8" cy="160.0" r="4" fill="#5e7ce0" /><circle cx="272.8" cy="220.0" r="4" fill="#5e7ce0" /><line x1="272.8" x2="272.8" y1="40.0" y2="280.0" stroke="#5e7ce0" stroke-width="3" /><rect x="232.8" y="260.0" width="80.0" height="220" rx="4" ry="4" stroke="#ffffff" stroke-width="0" fill="#5e7ce0" fill-opacity="1" /><text x="272.8" y="370.0" font-size="20px" dominant-baseline="middle" text-anchor="middle" font-family="Arial" font-weight="normal" fill="#ffffff" >f(0) </text><rect x="332.8" y="20.0" width="40.0" height="40" rx="4" ry="4" stroke="#ffffff" stroke-width="0" fill="#5e7ce0" fill-opacity="1" /><text x="352.8" y="40.0" font-size="20px" dominant-baseline="middle" text-anchor="middle" font-family="Arial" font-weight="normal" fill="#ffffff" >X </text><rect x="332.8" y="80.0" width="40.0" height="40" rx="4" ry="4" stroke="#ffffff" stroke-width="0" fill="#5e7ce0" fill-opacity="1" /><text x="352.8" y="100.0" font-size="20px" dominant-baseline="middle" text-anchor="middle" font-family="Arial" font-weight="normal" fill="#ffffff" >X </text><rect x="332.8" y="140.0" width="40.0" height="40" rx="4" ry="4" stroke="#ffffff" stroke-width="0" fill="#5e7ce0" fill-opacity="1" /><text x="352.8" y="160.0" font-size="20px" dominant-baseline="middle" text-anchor="middle" font-family="Arial" font-weight="normal" fill="#ffffff" >X </text><rect x="332.8" y="200.0" width="40.0" height="40" rx="4" ry="4" stroke="#ffffff" stroke-width="0" fill="#5e7ce0" fill-opacity="1" /><text x="352.8" y="220.0" font-size="20px" dominant-baseline="middle" text-anchor="middle" font-family="Arial" font-weight="normal" fill="#ffffff" >X </text><rect x="392.8" y="20.0" width="20" height="460" fill="gray" fill-opacity="0.8" /><rect x="432.8" y="80.0" width="40.0" height="40" rx="4" ry="4" stroke="#ffffff" stroke-width="0" fill="#5e7ce0" fill-opacity="1" /><text x="452.8" y="100.0" font-size="20px" dominant-baseline="middle" text-anchor="middle" font-family="Arial" font-weight="normal" fill="#ffffff" >X </text><rect x="432.8" y="140.0" width="40.0" height="40" rx="4" ry="4" stroke="#ffffff" stroke-width="0" fill="#5e7ce0" fill-opacity="1" /><text x="452.8" y="160.0" font-size="20px" dominant-baseline="middle" text-anchor="middle" font-family="Arial" font-weight="normal" fill="#ffffff" >X </text><rect x="432.8" y="200.0" width="40.0" height="40" rx="4" ry="4" stroke="#ffffff" stroke-width="0" fill="#5e7ce0" fill-opacity="1" /><text x="452.8" y="220.0" font-size="20px" dominant-baseline="middle" text-anchor="middle" font-family="Arial" font-weight="normal" fill="#ffffff" >X </text><circle cx="532.8" cy="40.0" r="4" fill="#5e7ce0" /><circle cx="532.8" cy="100.0" r="4" fill="#5e7ce0" /><circle cx="532.8" cy="160.0" r="4" fill="#5e7ce0" /><circle cx="532.8" cy="220.0" r="4" fill="#5e7ce0" /><line x1="532.8" x2="532.8" y1="40.0" y2="280.0" stroke="#5e7ce0" stroke-width="3" /><rect x="492.8" y="260.0" width="80.0" height="220" rx="4" ry="4" stroke="#ffffff" stroke-width="0" fill="#5e7ce0" fill-opacity="1" /><text x="532.8" y="370.0" font-size="20px" dominant-baseline="middle" text-anchor="middle" font-family="Arial" font-weight="normal" fill="#ffffff" >f(1) </text><rect x="592.8" y="80.0" width="40.0" height="40" rx="4" ry="4" stroke="#ffffff" stroke-width="0" fill="#5e7ce0" fill-opacity="1" /><text x="612.8" y="100.0" font-size="20px" dominant-baseline="middle" text-anchor="middle" font-family="Arial" font-weight="normal" fill="#ffffff" >X </text><rect x="592.8" y="140.0" width="40.0" height="40" rx="4" ry="4" stroke="#ffffff" stroke-width="0" fill="#5e7ce0" fill-opacity="1" /><text x="612.8" y="160.0" font-size="20px" dominant-baseline="middle" text-anchor="middle" font-family="Arial" font-weight="normal" fill="#ffffff" >X </text><rect x="592.8" y="200.0" width="40.0" height="40" rx="4" ry="4" stroke="#ffffff" stroke-width="0" fill="#5e7ce0" fill-opacity="1" /><text x="612.8" y="220.0" font-size="20px" dominant-baseline="middle" text-anchor="middle" font-family="Arial" font-weight="normal" fill="#ffffff" >X </text><rect x="652.8" y="20.0" width="20" height="460" fill="gray" fill-opacity="0.8" /><rect x="692.8" y="20.0" width="40.0" height="40" rx="4" ry="4" stroke="#ffffff" stroke-width="0" fill="#5e7ce0" fill-opacity="1" /><text x="712.8" y="40.0" font-size="20px" dominant-baseline="middle" text-anchor="middle" font-family="Arial" font-weight="normal" fill="#ffffff" >X </text><rect x="692.8" y="140.0" width="40.0" height="40" rx="4" ry="4" stroke="#ffffff" stroke-width="0" fill="#5e7ce0" fill-opacity="1" /><text x="712.8" y="160.0" font-size="20px" dominant-baseline="middle" text-anchor="middle" font-family="Arial" font-weight="normal" fill="#ffffff" >X </text><rect x="692.8" y="200.0" width="40.0" height="40" rx="4" ry="4" stroke="#ffffff" stroke-width="0" fill="#5e7ce0" fill-opacity="1" /><text x="712.8" y="220.0" font-size="20px" dominant-baseline="middle" text-anchor="middle" font-family="Arial" font-weight="normal" fill="#ffffff" >X </text><circle cx="792.8" cy="40.0" r="4" fill="#5e7ce0" /><circle cx="792.8" cy="100.0" r="4" fill="#5e7ce0" /><circle cx="792.8" cy="160.0" r="4" fill="#5e7ce0" /><circle cx="792.8" cy="220.0" r="4" fill="#5e7ce0" /><line x1="792.8" x2="792.8" y1="40.0" y2="280.0" stroke="#5e7ce0" stroke-width="3" /><rect x="752.8" y="260.0" width="80.0" height="220" rx="4" ry="4" stroke="#ffffff" stroke-width="0" fill="#5e7ce0" fill-opacity="1" /><text x="792.8" y="370.0" font-size="20px" dominant-baseline="middle" text-anchor="middle" font-family="Arial" font-weight="normal" fill="#ffffff" >f(2) </text><rect x="852.8" y="20.0" width="40.0" height="40" rx="4" ry="4" stroke="#ffffff" stroke-width="0" fill="#5e7ce0" fill-opacity="1" /><text x="872.8" y="40.0" font-size="20px" dominant-baseline="middle" text-anchor="middle" font-family="Arial" font-weight="normal" fill="#ffffff" >X </text><rect x="852.8" y="140.0" width="40.0" height="40" rx="4" ry="4" stroke="#ffffff" stroke-width="0" fill="#5e7ce0" fill-opacity="1" /><text x="872.8" y="160.0" font-size="20px" dominant-baseline="middle" text-anchor="middle" font-family="Arial" font-weight="normal" fill="#ffffff" >X </text><rect x="852.8" y="200.0" width="40.0" height="40" rx="4" ry="4" stroke="#ffffff" stroke-width="0" fill="#5e7ce0" fill-opacity="1" /><text x="872.8" y="220.0" font-size="20px" dominant-baseline="middle" text-anchor="middle" font-family="Arial" font-weight="normal" fill="#ffffff" >X </text><rect x="912.8" y="20.0" width="20" height="460" fill="gray" fill-opacity="0.8" /><rect x="952.8" y="140.0" width="40.0" height="40" rx="4" ry="4" stroke="#ffffff" stroke-width="0" fill="#5e7ce0" fill-opacity="1" /><text x="972.8" y="160.0" font-size="20px" dominant-baseline="middle" text-anchor="middle" font-family="Arial" font-weight="normal" fill="#ffffff" >X </text><rect x="952.8" y="200.0" width="40.0" height="40" rx="4" ry="4" stroke="#ffffff" stroke-width="0" fill="#5e7ce0" fill-opacity="1" /><text x="972.8" y="220.0" font-size="20px" dominant-baseline="middle" text-anchor="middle" font-family="Arial" font-weight="normal" fill="#ffffff" >X </text><circle cx="1052.8" cy="40.0" r="4" fill="#5e7ce0" /><circle cx="1052.8" cy="100.0" r="4" fill="#5e7ce0" /><circle cx="1052.8" cy="160.0" r="4" fill="#5e7ce0" /><circle cx="1052.8" cy="220.0" r="4" fill="#5e7ce0" /><line x1="1052.8" x2="1052.8" y1="40.0" y2="280.0" stroke="#5e7ce0" stroke-width="3" /><rect x="1012.8" y="260.0" width="80.0" height="220" rx="4" ry="4" stroke="#ffffff" stroke-width="0" fill="#5e7ce0" fill-opacity="1" /><text x="1052.8" y="370.0" font-size="20px" dominant-baseline="middle" text-anchor="middle" font-family="Arial" font-weight="normal" fill="#ffffff" >f(3) </text><rect x="1112.8" y="140.0" width="40.0" height="40" rx="4" ry="4" stroke="#ffffff" stroke-width="0" fill="#5e7ce0" fill-opacity="1" /><text x="1132.8" y="160.0" font-size="20px" dominant-baseline="middle" text-anchor="middle" font-family="Arial" font-weight="normal" fill="#ffffff" >X </text><rect x="1112.8" y="200.0" width="40.0" height="40" rx="4" ry="4" stroke="#ffffff" stroke-width="0" fill="#5e7ce0" fill-opacity="1" /><text x="1132.8" y="220.0" font-size="20px" dominant-baseline="middle" text-anchor="middle" font-family="Arial" font-weight="normal" fill="#ffffff" >X </text><rect x="1172.8" y="20.0" width="20" height="460" fill="gray" fill-opacity="0.8" /><rect x="1212.8" y="20.0" width="40.0" height="40" rx="4" ry="4" stroke="#ffffff" stroke-width="0" fill="#5e7ce0" fill-opacity="1" /><text x="1232.8" y="40.0" font-size="20px" dominant-baseline="middle" text-anchor="middle" font-family="Arial" font-weight="normal" fill="#ffffff" >X </text><rect x="1212.8" y="80.0" width="40.0" height="40" rx="4" ry="4" stroke="#ffffff" stroke-width="0" fill="#5e7ce0" fill-opacity="1" /><text x="1232.8" y="100.0" font-size="20px" dominant-baseline="middle" text-anchor="middle" font-family="Arial" font-weight="normal" fill="#ffffff" >X </text><rect x="1212.8" y="200.0" width="40.0" height="40" rx="4" ry="4" stroke="#ffffff" stroke-width="0" fill="#5e7ce0" fill-opacity="1" /><text x="1232.8" y="220.0" font-size="20px" dominant-baseline="middle" text-anchor="middle" font-family="Arial" font-weight="normal" fill="#ffffff" >X </text><circle cx="1312.8" cy="40.0" r="4" fill="#5e7ce0" /><circle cx="1312.8" cy="100.0" r="4" fill="#5e7ce0" /><circle cx="1312.8" cy="160.0" r="4" fill="#5e7ce0" /><circle cx="1312.8" cy="220.0" r="4" fill="#5e7ce0" /><line x1="1312.8" x2="1312.8" y1="40.0" y2="280.0" stroke="#5e7ce0" stroke-width="3" /><rect x="1272.8" y="260.0" width="80.0" height="220" rx="4" ry="4" stroke="#ffffff" stroke-width="0" fill="#5e7ce0" fill-opacity="1" /><text x="1312.8" y="370.0" font-size="20px" dominant-baseline="middle" text-anchor="middle" font-family="Arial" font-weight="normal" fill="#ffffff" >f(4) </text><rect x="1372.8" y="20.0" width="40.0" height="40" rx="4" ry="4" stroke="#ffffff" stroke-width="0" fill="#5e7ce0" fill-opacity="1" /><text x="1392.8" y="40.0" font-size="20px" dominant-baseline="middle" text-anchor="middle" font-family="Arial" font-weight="normal" fill="#ffffff" >X </text><rect x="1372.8" y="80.0" width="40.0" height="40" rx="4" ry="4" stroke="#ffffff" stroke-width="0" fill="#5e7ce0" fill-opacity="1" /><text x="1392.8" y="100.0" font-size="20px" dominant-baseline="middle" text-anchor="middle" font-family="Arial" font-weight="normal" fill="#ffffff" >X </text><rect x="1372.8" y="200.0" width="40.0" height="40" rx="4" ry="4" stroke="#ffffff" stroke-width="0" fill="#5e7ce0" fill-opacity="1" /><text x="1392.8" y="220.0" font-size="20px" dominant-baseline="middle" text-anchor="middle" font-family="Arial" font-weight="normal" fill="#ffffff" >X </text><rect x="1432.8" y="20.0" width="20" height="460" fill="gray" fill-opacity="0.8" /><rect x="1472.8" y="80.0" width="40.0" height="40" rx="4" ry="4" stroke="#ffffff" stroke-width="0" fill="#5e7ce0" fill-opacity="1" /><text x="1492.8" y="100.0" font-size="20px" dominant-baseline="middle" text-anchor="middle" font-family="Arial" font-weight="normal" fill="#ffffff" >X </text><rect x="1472.8" y="200.0" width="40.0" height="40" rx="4" ry="4" stroke="#ffffff" stroke-width="0" fill="#5e7ce0" fill-opacity="1" /><text x="1492.8" y="220.0" font-size="20px" dominant-baseline="middle" text-anchor="middle" font-family="Arial" font-weight="normal" fill="#ffffff" >X </text><circle cx="1572.8" cy="40.0" r="4" fill="#5e7ce0" /><circle cx="1572.8" cy="100.0" r="4" fill="#5e7ce0" /><circle cx="1572.8" cy="160.0" r="4" fill="#5e7ce0" /><circle cx="1572.8" cy="220.0" r="4" fill="#5e7ce0" /><line x1="1572.8" x2="1572.8" y1="40.0" y2="280.0" stroke="#5e7ce0" stroke-width="3" /><rect x="1532.8" y="260.0" width="80.0" height="220" rx="4" ry="4" stroke="#ffffff" stroke-width="0" fill="#5e7ce0" fill-opacity="1" /><text x="1572.8" y="370.0" font-size="20px" dominant-baseline="middle" text-anchor="middle" font-family="Arial" font-weight="normal" fill="#ffffff" >f(5) </text><rect x="1632.8" y="80.0" width="40.0" height="40" rx="4" ry="4" stroke="#ffffff" stroke-width="0" fill="#5e7ce0" fill-opacity="1" /><text x="1652.8" y="100.0" font-size="20px" dominant-baseline="middle" text-anchor="middle" font-family="Arial" font-weight="normal" fill="#ffffff" >X </text><rect x="1632.8" y="200.0" width="40.0" height="40" rx="4" ry="4" stroke="#ffffff" stroke-width="0" fill="#5e7ce0" fill-opacity="1" /><text x="1652.8" y="220.0" font-size="20px" dominant-baseline="middle" text-anchor="middle" font-family="Arial" font-weight="normal" fill="#ffffff" >X </text><rect x="1692.8" y="20.0" width="20" height="460" fill="gray" fill-opacity="0.8" /><rect x="1732.8" y="20.0" width="40.0" height="40" rx="4" ry="4" stroke="#ffffff" stroke-width="0" fill="#5e7ce0" fill-opacity="1" /><text x="1752.8" y="40.0" font-size="20px" dominant-baseline="middle" text-anchor="middle" font-family="Arial" font-weight="normal" fill="#ffffff" >X </text><rect x="1732.8" y="200.0" width="40.0" height="40" rx="4" ry="4" stroke="#ffffff" stroke-width="0" fill="#5e7ce0" fill-opacity="1" /><text x="1752.8" y="220.0" font-size="20px" dominant-baseline="middle" text-anchor="middle" font-family="Arial" font-weight="normal" fill="#ffffff" >X </text><circle cx="1832.8" cy="40.0" r="4" fill="#5e7ce0" /><circle cx="1832.8" cy="100.0" r="4" fill="#5e7ce0" /><circle cx="1832.8" cy="160.0" r="4" fill="#5e7ce0" /><circle cx="1832.8" cy="220.0" r="4" fill="#5e7ce0" /><line x1="1832.8" x2="1832.8" y1="40.0" y2="280.0" stroke="#5e7ce0" stroke-width="3" /><rect x="1792.8" y="260.0" width="80.0" height="220" rx="4" ry="4" stroke="#ffffff" stroke-width="0" fill="#5e7ce0" fill-opacity="1" /><text x="1832.8" y="370.0" font-size="20px" dominant-baseline="middle" text-anchor="middle" font-family="Arial" font-weight="normal" fill="#ffffff" >f(6) </text><rect x="1892.8" y="20.0" width="40.0" height="40" rx="4" ry="4" stroke="#ffffff" stroke-width="0" fill="#5e7ce0" fill-opacity="1" /><text x="1912.8" y="40.0" font-size="20px" dominant-baseline="middle" text-anchor="middle" font-family="Arial" font-weight="normal" fill="#ffffff" >X </text><rect x="1892.8" y="200.0" width="40.0" height="40" rx="4" ry="4" stroke="#ffffff" stroke-width="0" fill="#5e7ce0" fill-opacity="1" /><text x="1912.8" y="220.0" font-size="20px" dominant-baseline="middle" text-anchor="middle" font-family="Arial" font-weight="normal" fill="#ffffff" >X </text><rect x="1952.8" y="20.0" width="20" height="460" fill="gray" fill-opacity="0.8" /><rect x="1992.8" y="200.0" width="40.0" height="40" rx="4" ry="4" stroke="#ffffff" stroke-width="0" fill="#5e7ce0" fill-opacity="1" /><text x="2012.8" y="220.0" font-size="20px" dominant-baseline="middle" text-anchor="middle" font-family="Arial" font-weight="normal" fill="#ffffff" >X </text><circle cx="2092.8" cy="40.0" r="4" fill="#5e7ce0" /><circle cx="2092.8" cy="100.0" r="4" fill="#5e7ce0" /><circle cx="2092.8" cy="160.0" r="4" fill="#5e7ce0" /><circle cx="2092.8" cy="220.0" r="4" fill="#5e7ce0" /><line x1="2092.8" x2="2092.8" y1="40.0" y2="280.0" stroke="#5e7ce0" stroke-width="3" /><rect x="2052.8" y="260.0" width="80.0" height="220" rx="4" ry="4" stroke="#ffffff" stroke-width="0" fill="#5e7ce0" fill-opacity="1" /><text x="2092.8" y="370.0" font-size="20px" dominant-baseline="middle" text-anchor="middle" font-family="Arial" font-weight="normal" fill="#ffffff" >f(7) </text><rect x="2152.8" y="200.0" width="40.0" height="40" rx="4" ry="4" stroke="#ffffff" stroke-width="0" fill="#5e7ce0" fill-opacity="1" /><text x="2172.8" y="220.0" font-size="20px" dominant-baseline="middle" text-anchor="middle" font-family="Arial" font-weight="normal" fill="#ffffff" >X </text><rect x="2212.8" y="20.0" width="20" height="460" fill="gray" fill-opacity="0.8" /><rect x="2252.8" y="20.0" width="40.0" height="40" rx="4" ry="4" stroke="#ffffff" stroke-width="0" fill="#5e7ce0" fill-opacity="1" /><text x="2272.8" y="40.0" font-size="20px" dominant-baseline="middle" text-anchor="middle" font-family="Arial" font-weight="normal" fill="#ffffff" >X </text><rect x="2252.8" y="80.0" width="40.0" height="40" rx="4" ry="4" stroke="#ffffff" stroke-width="0" fill="#5e7ce0" fill-opacity="1" /><text x="2272.8" y="100.0" font-size="20px" dominant-baseline="middle" text-anchor="middle" font-family="Arial" font-weight="normal" fill="#ffffff" >X </text><rect x="2252.8" y="140.0" width="40.0" height="40" rx="4" ry="4" stroke="#ffffff" stroke-width="0" fill="#5e7ce0" fill-opacity="1" /><text x="2272.8" y="160.0" font-size="20px" dominant-baseline="middle" text-anchor="middle" font-family="Arial" font-weight="normal" fill="#ffffff" >X </text><circle cx="2352.8" cy="40.0" r="4" fill="#5e7ce0" /><circle cx="2352.8" cy="100.0" r="4" fill="#5e7ce0" /><circle cx="2352.8" cy="160.0" r="4" fill="#5e7ce0" /><circle cx="2352.8" cy="220.0" r="4" fill="#5e7ce0" /><line x1="2352.8" x2="2352.8" y1="40.0" y2="280.0" stroke="#5e7ce0" stroke-width="3" /><rect x="2312.8" y="260.0" width="80.0" height="220" rx="4" ry="4" stroke="#ffffff" stroke-width="0" fill="#5e7ce0" fill-opacity="1" /><text x="2352.8" y="370.0" font-size="20px" dominant-baseline="middle" text-anchor="middle" font-family="Arial" font-weight="normal" fill="#ffffff" >f(8) </text><rect x="2412.8" y="20.0" width="40.0" height="40" rx="4" ry="4" stroke="#ffffff" stroke-width="0" fill="#5e7ce0" fill-opacity="1" /><text x="2432.8" y="40.0" font-size="20px" dominant-baseline="middle" text-anchor="middle" font-family="Arial" font-weight="normal" fill="#ffffff" >X </text><rect x="2412.8" y="80.0" width="40.0" height="40" rx="4" ry="4" stroke="#ffffff" stroke-width="0" fill="#5e7ce0" fill-opacity="1" /><text x="2432.8" y="100.0" font-size="20px" dominant-baseline="middle" text-anchor="middle" font-family="Arial" font-weight="normal" fill="#ffffff" >X </text><rect x="2412.8" y="140.0" width="40.0" height="40" rx="4" ry="4" stroke="#ffffff" stroke-width="0" fill="#5e7ce0" fill-opacity="1" /><text x="2432.8" y="160.0" font-size="20px" dominant-baseline="middle" text-anchor="middle" font-family="Arial" font-weight="normal" fill="#ffffff" >X </text><rect x="2472.8" y="20.0" width="20" height="460" fill="gray" fill-opacity="0.8" /><rect x="2512.8" y="80.0" width="40.0" height="40" rx="4" ry="4" stroke="#ffffff" stroke-width="0" fill="#5e7ce0" fill-opacity="1" /><text x="2532.8" y="100.0" font-size="20px" dominant-baseline="middle" text-anchor="middle" font-family="Arial" font-weight="normal" fill="#ffffff" >X </text><rect x="2512.8" y="140.0" width="40.0" height="40" rx="4" ry="4" stroke="#ffffff" stroke-width="0" fill="#5e7ce0" fill-opacity="1" /><text x="2532.8" y="160.0" font-size="20px" dominant-baseline="middle" text-anchor="middle" font-family="Arial" font-weight="normal" fill="#ffffff" >X </text><circle cx="2612.8" cy="40.0" r="4" fill="#5e7ce0" /><circle cx="2612.8" cy="100.0" r="4" fill="#5e7ce0" /><circle cx="2612.8" cy="160.0" r="4" fill="#5e7ce0" /><circle cx="2612.8" cy="220.0" r="4" fill="#5e7ce0" /><line x1="2612.8" x2="2612.8" y1="40.0" y2="280.0" stroke="#5e7ce0" stroke-width="3" /><rect x="2572.8" y="260.0" width="80.0" height="220" rx="4" ry="4" stroke="#ffffff" stroke-width="0" fill="#5e7ce0" fill-opacity="1" /><text x="2612.8" y="370.0" font-size="20px" dominant-baseline="middle" text-anchor="middle" font-family="Arial" font-weight="normal" fill="#ffffff" >f(9) </text><rect x="2672.8" y="80.0" width="40.0" height="40" rx="4" ry="4" stroke="#ffffff" stroke-width="0" fill="#5e7ce0" fill-opacity="1" /><text x="2692.8" y="100.0" font-size="20px" dominant-baseline="middle" text-anchor="middle" font-family="Arial" font-weight="normal" fill="#ffffff" >X </text><rect x="2672.8" y="140.0" width="40.0" height="40" rx="4" ry="4" stroke="#ffffff" stroke-width="0" fill="#5e7ce0" fill-opacity="1" /><text x="2692.8" y="160.0" font-size="20px" dominant-baseline="middle" text-anchor="middle" font-family="Arial" font-weight="normal" fill="#ffffff" >X </text><rect x="2732.8" y="20.0" width="20" height="460" fill="gray" fill-opacity="0.8" /><rect x="2772.8" y="20.0" width="40.0" height="40" rx="4" ry="4" stroke="#ffffff" stroke-width="0" fill="#5e7ce0" fill-opacity="1" /><text x="2792.8" y="40.0" font-size="20px" dominant-baseline="middle" text-anchor="middle" font-family="Arial" font-weight="normal" fill="#ffffff" >X </text><rect x="2772.8" y="140.0" width="40.0" height="40" rx="4" ry="4" stroke="#ffffff" stroke-width="0" fill="#5e7ce0" fill-opacity="1" /><text x="2792.8" y="160.0" font-size="20px" dominant-baseline="middle" text-anchor="middle" font-family="Arial" font-weight="normal" fill="#ffffff" >X </text><circle cx="2872.8" cy="40.0" r="4" fill="#5e7ce0" /><circle cx="2872.8" cy="100.0" r="4" fill="#5e7ce0" /><circle cx="2872.8" cy="160.0" r="4" fill="#5e7ce0" /><circle cx="2872.8" cy="220.0" r="4" fill="#5e7ce0" /><line x1="2872.8" x2="2872.8" y1="40.0" y2="280.0" stroke="#5e7ce0" stroke-width="3" /><rect x="2832.8" y="260.0" width="80.0" height="220" rx="4" ry="4" stroke="#ffffff" stroke-width="0" fill="#5e7ce0" fill-opacity="1" /><text x="2872.8" y="370.0" font-size="20px" dominant-baseline="middle" text-anchor="middle" font-family="Arial" font-weight="normal" fill="#ffffff" >f(10) </text><rect x="2932.8" y="20.0" width="40.0" height="40" rx="4" ry="4" stroke="#ffffff" stroke-width="0" fill="#5e7ce0" fill-opacity="1" /><text x="2952.8" y="40.0" font-size="20px" dominant-baseline="middle" text-anchor="middle" font-family="Arial" font-weight="normal" fill="#ffffff" >X </text><rect x="2932.8" y="140.0" width="40.0" height="40" rx="4" ry="4" stroke="#ffffff" stroke-width="0" fill="#5e7ce0" fill-opacity="1" /><text x="2952.8" y="160.0" font-size="20px" dominant-baseline="middle" text-anchor="middle" font-family="Arial" font-weight="normal" fill="#ffffff" >X </text><rect x="2992.8" y="20.0" width="20" height="460" fill="gray" fill-opacity="0.8" /><rect x="3032.8" y="140.0" width="40.0" height="40" rx="4" ry="4" stroke="#ffffff" stroke-width="0" fill="#5e7ce0" fill-opacity="1" /><text x="3052.8" y="160.0" font-size="20px" dominant-baseline="middle" text-anchor="middle" font-family="Arial" font-weight="normal" fill="#ffffff" >X </text><circle cx="3132.8" cy="40.0" r="4" fill="#5e7ce0" /><circle cx="3132.8" cy="100.0" r="4" fill="#5e7ce0" /><circle cx="3132.8" cy="160.0" r="4" fill="#5e7ce0" /><circle cx="3132.8" cy="220.0" r="4" fill="#5e7ce0" /><line x1="3132.8" x2="3132.8" y1="40.0" y2="280.0" stroke="#5e7ce0" stroke-width="3" /><rect x="3092.8" y="260.0" width="80.0" height="220" rx="4" ry="4" stroke="#ffffff" stroke-width="0" fill="#5e7ce0" fill-opacity="1" /><text x="3132.8" y="370.0" font-size="20px" dominant-baseline="middle" text-anchor="middle" font-family="Arial" font-weight="normal" fill="#ffffff" >f(11) </text><rect x="3192.8" y="140.0" width="40.0" height="40" rx="4" ry="4" stroke="#ffffff" stroke-width="0" fill="#5e7ce0" fill-opacity="1" /><text x="3212.8" y="160.0" font-size="20px" dominant-baseline="middle" text-anchor="middle" font-family="Arial" font-weight="normal" fill="#ffffff" >X </text><rect x="3252.8" y="20.0" width="20" height="460" fill="gray" fill-opacity="0.8" /><rect x="3292.8" y="20.0" width="40.0" height="40" rx="4" ry="4" stroke="#ffffff" stroke-width="0" fill="#5e7ce0" fill-opacity="1" /><text x="3312.8" y="40.0" font-size="20px" dominant-baseline="middle" text-anchor="middle" font-family="Arial" font-weight="normal" fill="#ffffff" >X </text><rect x="3292.8" y="80.0" width="40.0" height="40" rx="4" ry="4" stroke="#ffffff" stroke-width="0" fill="#5e7ce0" fill-opacity="1" /><text x="3312.8" y="100.0" font-size="20px" dominant-baseline="middle" text-anchor="middle" font-family="Arial" font-weight="normal" fill="#ffffff" >X </text><circle cx="3392.8" cy="40.0" r="4" fill="#5e7ce0" /><circle cx="3392.8" cy="100.0" r="4" fill="#5e7ce0" /><circle cx="3392.8" cy="160.0" r="4" fill="#5e7ce0" /><circle cx="3392.8" cy="220.0" r="4" fill="#5e7ce0" /><line x1="3392.8" x2="3392.8" y1="40.0" y2="280.0" stroke="#5e7ce0" stroke-width="3" /><rect x="3352.8" y="260.0" width="80.0" height="220" rx="4" ry="4" stroke="#ffffff" stroke-width="0" fill="#5e7ce0" fill-opacity="1" /><text x="3392.8" y="370.0" font-size="20px" dominant-baseline="middle" text-anchor="middle" font-family="Arial" font-weight="normal" fill="#ffffff" >f(12) </text><rect x="3452.8" y="20.0" width="40.0" height="40" rx="4" ry="4" stroke="#ffffff" stroke-width="0" fill="#5e7ce0" fill-opacity="1" /><text x="3472.8" y="40.0" font-size="20px" dominant-baseline="middle" text-anchor="middle" font-family="Arial" font-weight="normal" fill="#ffffff" >X </text><rect x="3452.8" y="80.0" width="40.0" height="40" rx="4" ry="4" stroke="#ffffff" stroke-width="0" fill="#5e7ce0" fill-opacity="1" /><text x="3472.8" y="100.0" font-size="20px" dominant-baseline="middle" text-anchor="middle" font-family="Arial" font-weight="normal" fill="#ffffff" >X </text><rect x="3512.8" y="20.0" width="20" height="460" fill="gray" fill-opacity="0.8" /><rect x="3552.8" y="80.0" width="40.0" height="40" rx="4" ry="4" stroke="#ffffff" stroke-width="0" fill="#5e7ce0" fill-opacity="1" /><text x="3572.8" y="100.0" font-size="20px" dominant-baseline="middle" text-anchor="middle" font-family="Arial" font-weight="normal" fill="#ffffff" >X </text><circle cx="3652.8" cy="40.0" r="4" fill="#5e7ce0" /><circle cx="3652.8" cy="100.0" r="4" fill="#5e7ce0" /><circle cx="3652.8" cy="160.0" r="4" fill="#5e7ce0" /><circle cx="3652.8" cy="220.0" r="4" fill="#5e7ce0" /><line x1="3652.8" x2="3652.8" y1="40.0" y2="280.0" stroke="#5e7ce0" stroke-width="3" /><rect x="3612.8" y="260.0" width="80.0" height="220" rx="4" ry="4" stroke="#ffffff" stroke-width="0" fill="#5e7ce0" fill-opacity="1" /><text x="3652.8" y="370.0" font-size="20px" dominant-baseline="middle" text-anchor="middle" font-family="Arial" font-weight="normal" fill="#ffffff" >f(13) </text><rect x="3712.8" y="80.0" width="40.0" height="40" rx="4" ry="4" stroke="#ffffff" stroke-width="0" fill="#5e7ce0" fill-opacity="1" /><text x="3732.8" y="100.0" font-size="20px" dominant-baseline="middle" text-anchor="middle" font-family="Arial" font-weight="normal" fill="#ffffff" >X </text><rect x="3772.8" y="20.0" width="20" height="460" fill="gray" fill-opacity="0.8" /><rect x="3812.8" y="20.0" width="40.0" height="40" rx="4" ry="4" stroke="#ffffff" stroke-width="0" fill="#5e7ce0" fill-opacity="1" /><text x="3832.8" y="40.0" font-size="20px" dominant-baseline="middle" text-anchor="middle" font-family="Arial" font-weight="normal" fill="#ffffff" >X </text><circle cx="3912.8" cy="40.0" r="4" fill="#5e7ce0" /><circle cx="3912.8" cy="100.0" r="4" fill="#5e7ce0" /><circle cx="3912.8" cy="160.0" r="4" fill="#5e7ce0" /><circle cx="3912.8" cy="220.0" r="4" fill="#5e7ce0" /><line x1="3912.8" x2="3912.8" y1="40.0" y2="280.0" stroke="#5e7ce0" stroke-width="3" /><rect x="3872.8" y="260.0" width="80.0" height="220" rx="4" ry="4" stroke="#ffffff" stroke-width="0" fill="#5e7ce0" fill-opacity="1" /><text x="3912.8" y="370.0" font-size="20px" dominant-baseline="middle" text-anchor="middle" font-family="Arial" font-weight="normal" fill="#ffffff" >f(14) </text><rect x="3972.8" y="20.0" width="40.0" height="40" rx="4" ry="4" stroke="#ffffff" stroke-width="0" fill="#5e7ce0" fill-opacity="1" /><text x="3992.8" y="40.0" font-size="20px" dominant-baseline="middle" text-anchor="middle" font-family="Arial" font-weight="normal" fill="#ffffff" >X </text><rect x="4032.8" y="20.0" width="20" height="460" fill="gray" fill-opacity="0.8" /><circle cx="4112.8" cy="40.0" r="4" fill="#5e7ce0" /><circle cx="4112.8" cy="100.0" r="4" fill="#5e7ce0" /><circle cx="4112.8" cy="160.0" r="4" fill="#5e7ce0" /><circle cx="4112.8" cy="220.0" r="4" fill="#5e7ce0" /><line x1="4112.8" x2="4112.8" y1="40.0" y2="280.0" stroke="#5e7ce0" stroke-width="3" /><rect x="4072.8" y="260.0" width="80.0" height="220" rx="4" ry="4" stroke="#ffffff" stroke-width="0" fill="#5e7ce0" fill-opacity="1" /><text x="4112.8" y="370.0" font-size="20px" dominant-baseline="middle" text-anchor="middle" font-family="Arial" font-weight="normal" fill="#ffffff" >f(15) </text><rect x="4172.8" y="20.0" width="20" height="460" fill="gray" fill-opacity="0.8" /><line x1="4232.8" x2="4232.8" y1="80.0" y2="180.0" stroke-width="3" stroke="#16acff" /><rect x="4212.8" y="80.0" width="40" height="40" rx="4" ry="4" fill="#16acff" fill-opacity="1" stroke="#ffffff" stroke-width="0" /><path d="M 4223.2 96.31384387633061 L 4228.0 88.0 L 4232.8 96.31384387633061 L 4229.4400000000005 96.31384387633061 L 4229.4400000000005 112.0 L 4226.56 112.0 L 4226.56 96.31384387633061 Z" fill="#ffffff" /><path d="M 4242.400000000001 103.68615612366939 L 4237.6 112.0 L 4232.8 103.68615612366939 L 4236.16 103.68615612366939 L 4236.16 88.0 L 4239.04 88.0 L 4239.04 103.68615612366939 Z" fill="#ffffff" /><rect x="4212.8" y="140.0" width="40" height="40" rx="4" ry="4" fill="#16acff" fill-opacity="1" stroke="#ffffff" stroke-width="0" /><path d="M 4223.2 156.31384387633062 L 4228.0 148.0 L 4232.8 156.31384387633062 L 4229.4400000000005 156.31384387633062 L 4229.4400000000005 172.0 L 4226.56 172.0 L 4226.56 156.31384387633062 Z" fill="#ffffff" /><path d="M 4242.400000000001 163.68615612366938 L 4237.6 172.0 L 4232.8 163.68615612366938 L 4236.16 163.68615612366938 L 4236.16 148.0 L 4239.04 148.0 L 4239.04 163.68615612366938 Z" fill="#ffffff" /><line x1="4292.8" x2="4292.8" y1="20.0" y2="240.0" stroke-width="3" stroke="#16acff" /><rect x="4272.8" y="20.0" width="40" height="40" rx="4" ry="4" fill="#16acff" fill-opacity="1" stroke="#ffffff" stroke-width="0" /><path d="M 4283.2 36.31384387633061 L 4288.0 28.0 L 4292.8 36.31384387633061 L 4289.4400000000005 36.31384387633061 L 4289.4400000000005 52.0 L 4286.56 52.0 L 4286.56 36.31384387633061 Z" fill="#ffffff" /><path d="M 4302.400000000001 43.68615612366939 L 4297.6 52.0 L 4292.8 43.68615612366939 L 4296.16 43.68615612366939 L 4296.16 28.0 L 4299.04 28.0 L 4299.04 43.68615612366939 Z" fill="#ffffff" /><rect x="4272.8" y="200.0" width="40" height="40" rx="4" ry="4" fill="#16acff" fill-opacity="1" stroke="#ffffff" stroke-width="0" /><path d="M 4283.2 216.31384387633062 L 4288.0 208.0 L 4292.8 216.31384387633062 L 4289.4400000000005 216.31384387633062 L 4289.4400000000005 232.0 L 4286.56 232.0 L 4286.56 216.31384387633062 Z" fill="#ffffff" /><path d="M 4302.400000000001 223.68615612366938 L 4297.6 232.0 L 4292.8 223.68615612366938 L 4296.16 223.68615612366938 L 4296.16 208.0 L 4299.04 208.0 L 4299.04 223.68615612366938 Z" fill="#ffffff" /><rect x="4332.8" y="20.0" width="40.0" height="40" rx="4" ry="4" stroke="#ffffff" stroke-width="0" fill="#5e7ce0" fill-opacity="1" /><text x="4352.8" y="40.0" font-size="20px" dominant-baseline="middle" text-anchor="middle" font-family="Arial" font-weight="normal" fill="#ffffff" >H </text><circle cx="4412.8" cy="40.0" r="4" fill="#fac209" /><line x1="4412.8" x2="4412.8" y1="40.0" y2="100.0" stroke="#fac209" stroke-width="3" /><rect x="4392.8" y="80.0" width="40.0" height="40" rx="4" ry="4" stroke="#ffffff" stroke-width="0" fill="#fac209" fill-opacity="1" /><text x="4412.8" y="96.0" font-size="20px" dominant-baseline="middle" text-anchor="middle" font-family="Arial" font-weight="normal" fill="#ffffff" >PS </text><text x="4412.8" y="112.0" font-size="14.0px" dominant-baseline="middle" text-anchor="middle" font-family="Arial" font-weight="normal" fill="#ffffff" >-π/2 </text><rect x="4452.8" y="80.0" width="40.0" height="40" rx="4" ry="4" stroke="#ffffff" stroke-width="0" fill="#5e7ce0" fill-opacity="1" /><text x="4472.8" y="100.0" font-size="20px" dominant-baseline="middle" text-anchor="middle" font-family="Arial" font-weight="normal" fill="#ffffff" >H </text><circle cx="4532.8" cy="40.0" r="4" fill="#fac209" /><line x1="4532.8" x2="4532.8" y1="40.0" y2="160.0" stroke="#fac209" stroke-width="3" /><rect x="4512.8" y="140.0" width="40.0" height="40" rx="4" ry="4" stroke="#ffffff" stroke-width="0" fill="#fac209" fill-opacity="1" /><text x="4532.8" y="156.0" font-size="20px" dominant-baseline="middle" text-anchor="middle" font-family="Arial" font-weight="normal" fill="#ffffff" >PS </text><text x="4532.8" y="172.0" font-size="14.0px" dominant-baseline="middle" text-anchor="middle" font-family="Arial" font-weight="normal" fill="#ffffff" >-π/4 </text><circle cx="4592.8" cy="100.0" r="4" fill="#fac209" /><line x1="4592.8" x2="4592.8" y1="100.0" y2="160.0" stroke="#fac209" stroke-width="3" /><rect x="4572.8" y="140.0" width="40.0" height="40" rx="4" ry="4" stroke="#ffffff" stroke-width="0" fill="#fac209" fill-opacity="1" /><text x="4592.8" y="156.0" font-size="20px" dominant-baseline="middle" text-anchor="middle" font-family="Arial" font-weight="normal" fill="#ffffff" >PS </text><text x="4592.8" y="172.0" font-size="14.0px" dominant-baseline="middle" text-anchor="middle" font-family="Arial" font-weight="normal" fill="#ffffff" >-π/2 </text><rect x="4632.8" y="140.0" width="40.0" height="40" rx="4" ry="4" stroke="#ffffff" stroke-width="0" fill="#5e7ce0" fill-opacity="1" /><text x="4652.8" y="160.0" font-size="20px" dominant-baseline="middle" text-anchor="middle" font-family="Arial" font-weight="normal" fill="#ffffff" >H </text><circle cx="4712.8" cy="40.0" r="4" fill="#fac209" /><line x1="4712.8" x2="4712.8" y1="40.0" y2="220.0" stroke="#fac209" stroke-width="3" /><rect x="4692.8" y="200.0" width="40.0" height="40" rx="4" ry="4" stroke="#ffffff" stroke-width="0" fill="#fac209" fill-opacity="1" /><text x="4712.8" y="216.0" font-size="20px" dominant-baseline="middle" text-anchor="middle" font-family="Arial" font-weight="normal" fill="#ffffff" >PS </text><text x="4712.8" y="232.0" font-size="14.0px" dominant-baseline="middle" text-anchor="middle" font-family="Arial" font-weight="normal" fill="#ffffff" >-π/8 </text><circle cx="4772.8" cy="100.0" r="4" fill="#fac209" /><line x1="4772.8" x2="4772.8" y1="100.0" y2="220.0" stroke="#fac209" stroke-width="3" /><rect x="4752.8" y="200.0" width="40.0" height="40" rx="4" ry="4" stroke="#ffffff" stroke-width="0" fill="#fac209" fill-opacity="1" /><text x="4772.8" y="216.0" font-size="20px" dominant-baseline="middle" text-anchor="middle" font-family="Arial" font-weight="normal" fill="#ffffff" >PS </text><text x="4772.8" y="232.0" font-size="14.0px" dominant-baseline="middle" text-anchor="middle" font-family="Arial" font-weight="normal" fill="#ffffff" >-π/4 </text><circle cx="4832.8" cy="160.0" r="4" fill="#fac209" /><line x1="4832.8" x2="4832.8" y1="160.0" y2="220.0" stroke="#fac209" stroke-width="3" /><rect x="4812.8" y="200.0" width="40.0" height="40" rx="4" ry="4" stroke="#ffffff" stroke-width="0" fill="#fac209" fill-opacity="1" /><text x="4832.8" y="216.0" font-size="20px" dominant-baseline="middle" text-anchor="middle" font-family="Arial" font-weight="normal" fill="#ffffff" >PS </text><text x="4832.8" y="232.0" font-size="14.0px" dominant-baseline="middle" text-anchor="middle" font-family="Arial" font-weight="normal" fill="#ffffff" >-π/2 </text><rect x="4872.8" y="200.0" width="40.0" height="40" rx="4" ry="4" stroke="#ffffff" stroke-width="0" fill="#5e7ce0" fill-opacity="1" /><text x="4892.8" y="220.0" font-size="20px" dominant-baseline="middle" text-anchor="middle" font-family="Arial" font-weight="normal" fill="#ffffff" >H </text><rect x="4932.8" y="20.0" width="20" height="460" fill="gray" fill-opacity="0.8" /><rect x="4972.8" y="20.0" width="40" height="40" rx="4" ry="4" stroke="#ffffff" stroke-width="0" fill="#ff7272" fill-opacity="1" /><circle cx="4992.8" cy="50.4" r="1.6" fill="#ffffff" /><path d="M 4980.0 50.4 A 12.8 12.8 0 0 1 5005.6 50.4" stroke="#ffffff" stroke-width="2.4000000000000004" fill-opacity="0" /><path d="M 4996.901848317486 33.93539030917347 L 5005.215692193817 29.135390309173467 L 5005.215692193817 38.73539030917347 L 5001.890154643284 36.815390309173466 L 4994.04707658145 50.4 L 4992.384307806184 49.44 L 5000.227385868018 35.85539030917347 Z" fill="#ffffff" /><rect x="4972.8" y="80.0" width="40" height="40" rx="4" ry="4" stroke="#ffffff" stroke-width="0" fill="#ff7272" fill-opacity="1" /><circle cx="4992.8" cy="110.4" r="1.6" fill="#ffffff" /><path d="M 4980.0 110.4 A 12.8 12.8 0 0 1 5005.6 110.4" stroke="#ffffff" stroke-width="2.4000000000000004" fill-opacity="0" /><path d="M 4996.901848317486 93.93539030917347 L 5005.215692193817 89.13539030917347 L 5005.215692193817 98.73539030917347 L 5001.890154643284 96.81539030917347 L 4994.04707658145 110.4 L 4992.384307806184 109.44 L 5000.227385868018 95.85539030917347 Z" fill="#ffffff" /><rect x="4972.8" y="140.0" width="40" height="40" rx="4" ry="4" stroke="#ffffff" stroke-width="0" fill="#ff7272" fill-opacity="1" /><circle cx="4992.8" cy="170.4" r="1.6" fill="#ffffff" /><path d="M 4980.0 170.4 A 12.8 12.8 0 0 1 5005.6 170.4" stroke="#ffffff" stroke-width="2.4000000000000004" fill-opacity="0" /><path d="M 4996.901848317486 153.93539030917347 L 5005.215692193817 149.13539030917346 L 5005.215692193817 158.73539030917345 L 5001.890154643284 156.81539030917347 L 4994.04707658145 170.4 L 4992.384307806184 169.44 L 5000.227385868018 155.85539030917346 Z" fill="#ffffff" /><rect x="4972.8" y="200.0" width="40" height="40" rx="4" ry="4" stroke="#ffffff" stroke-width="0" fill="#ff7272" fill-opacity="1" /><circle cx="4992.8" cy="230.4" r="1.6" fill="#ffffff" /><path d="M 4980.0 230.4 A 12.8 12.8 0 0 1 5005.6 230.4" stroke="#ffffff" stroke-width="2.4000000000000004" fill-opacity="0" /><path d="M 4996.901848317486 213.93539030917347 L 5005.215692193817 209.13539030917346 L 5005.215692193817 218.73539030917345 L 5001.890154643284 216.81539030917347 L 4994.04707658145 230.4 L 4992.384307806184 229.44 L 5000.227385868018 215.85539030917346 Z" fill="#ffffff" /></svg>