<svg xmlns="http://www.w3.org/2000/svg" width="336.8" height="200.0" xmlns:xlink="http://www.w3.org/1999/xlink"><rect x="0" y="0.0" width="336.8" height="200.0" fill="#ffffff" /><text x="20.0" y="40.0" font-size="16px" dominant-baseline="middle" text-anchor="start" font-family="Arial" font-weight="normal" fill="#252b3a" >q0: </text><text x="20.0" y="100.0" font-size="16px" dominant-baseline="middle" text-anchor="start" font-family="Arial" font-weight="normal" fill="#252b3a" >q1: </text><text x="20.0" y="160.0" font-size="16px" dominant-baseline="middle" text-anchor="start" font-family="Arial" font-weight="normal" fill="#252b3a" >q2: </text><line x1="48.8" x2="316.8" y1="40.0" y2="40.0" stroke="#adb0b8" stroke-width="1" /><line x1="48.8" x2="316.8" y1="100.0" y2="100.0" stroke="#adb0b8" stroke-width="1" /><line x1="48.8" x2="316.8" y1="160.0" y2="160.0" stroke="#adb0b8" stroke-width="1" /><rect x="72.8" y="20.0" width="40.0" height="40" rx="4" ry="4" stroke="#ffffff" stroke-width="0" fill="#fac209" fill-opacity="1" /><text x="92.8" y="36.0" font-size="20px" dominant-baseline="middle" text-anchor="middle" font-family="Arial" font-weight="normal" fill="#ffffff" >RX </text><text x="92.8" y="52.0" font-size="14.0px" dominant-baseline="middle" text-anchor="middle" font-family="Arial" font-weight="normal" fill="#ffffff" >a </text><rect x="72.8" y="80.0" width="40.0" height="40" rx="4" ry="4" stroke="#ffffff" stroke-width="0" fill="#fac209" fill-opacity="1" /><text x="92.8" y="96.0" font-size="20px" dominant-baseline="middle" text-anchor="middle" font-family="Arial" font-weight="normal" fill="#ffffff" >RX </text><text x="92.8" y="112.0" font-size="14.0px" dominant-baseline="middle" text-anchor="middle" font-family="Arial" font-weight="normal" fill="#ffffff" >b </text><rect x="72.8" y="140.0" width="40.0" height="40" rx="4" ry="4" stroke="#ffffff" stroke-width="0" fill="#fac209" fill-opacity="1" /><text x="92.8" y="156.0" font-size="20px" dominant-baseline="middle" text-anchor="middle" font-family="Arial" font-weight="normal" fill="#ffffff" >RX </text><text x="92.8" y="172.0" font-size="14.0px" dominant-baseline="middle" text-anchor="middle" font-family="Arial" font-weight="normal" fill="#ffffff" >c </text><circle cx="152.8" cy="40.0" r="4" fill="#16acff" /><line x1="152.8" x2="152.8" y1="40.0" y2="100.0" stroke="#16acff" stroke-width="3" /><rect x="132.8" y="80.0" width="40" height="40" rx="4" ry="4" stroke="#ffffff" stroke-width="0" fill="#16acff" fill-opacity="1" /><line x1="138.8" x2="166.8" y1="100.0" y2="100.0" stroke="#ffffff" stroke-width="4" /><line x1="152.8" x2="152.8" y1="86.0" y2="114.0" stroke="#ffffff" stroke-width="4" /><circle cx="212.8" cy="100.0" r="4" fill="#16acff" /><line x1="212.8" x2="212.8" y1="100.0" y2="160.0" stroke="#16acff" stroke-width="3" /><rect x="192.8" y="140.0" width="40" height="40" rx="4" ry="4" stroke="#ffffff" stroke-width="0" fill="#16acff" fill-opacity="1" /><line x1="198.8" x2="226.8" y1="160.0" y2="160.0" stroke="#ffffff" stroke-width="4" /><line x1="212.8" x2="212.8" y1="146.0" y2="174.0" stroke="#ffffff" stroke-width="4" /><circle cx="272.8" cy="160.0" r="4" fill="#16acff" /><line x1="272.8" x2="272.8" y1="40.0" y2="160.0" stroke="#16acff" stroke-width="3" /><rect x="252.8" y="20.0" width="40" height="40" rx="4" ry="4" stroke="#ffffff" stroke-width="0" fill="#16acff" fill-opacity="1" /><line x1="258.8" x2="286.8" y1="40.0" y2="40.0" stroke="#ffffff" stroke-width="4" /><line x1="272.8" x2="272.8" y1="26.0" y2="54.0" stroke="#ffffff" stroke-width="4" /></svg>