<svg xmlns="http://www.w3.org/2000/svg" width="276.8" height="80" xmlns:xlink="http://www.w3.org/1999/xlink">
<rect x="0" y="0" width="276.8" height="80" fill="#ffffff" />
<text x="20.0" y="40.0" font-size="16px" dominant-baseline="middle" text-anchor="start" font-family="Arial" font-weight="normal" fill="#252b3a" >
q0:
 </text>
<line x1="48.8" x2="256.8" y1="40.0" y2="40.0" stroke="#adb0b8" stroke-width="1" />

<rect x="72.8" y="20.0" width="40.0" height="40" rx="4" ry="4" stroke="#ffffff" stroke-width="0" fill="#5e7ce0" fill-opacity="1" />
<text x="92.8" y="40.0" font-size="20px" dominant-baseline="middle" text-anchor="middle" font-family="Arial" font-weight="normal" fill="#ffffff" >
X
 </text>


<rect x="132.8" y="20.0" width="40.0" height="40" rx="4" ry="4" stroke="#ffffff" stroke-width="0" fill="#5e7ce0" fill-opacity="1" />
<text x="152.8" y="40.0" font-size="20px" dominant-baseline="middle" text-anchor="middle" font-family="Arial" font-weight="normal" fill="#ffffff" >
DC
 </text>

<rect x="192.8" y="20.0" width="40" height="40" rx="4" ry="4" stroke="#ffffff" stroke-width="0" fill="#ff7272" fill-opacity="1" />
<circle cx="212.8" cy="50.4" r="1.6" fill="#ffffff" />
<path d="M 200.0 50.4 A 12.8 12.8 0 0 1 225.60000000000002 50.4" stroke="#ffffff" stroke-width="2.4000000000000004" fill-opacity="0" />
<path d="M 216.90184831748593 33.93539030917347 L 225.21569219381655 29.135390309173467 L 225.21569219381655 38.73539030917347 L 221.8901546432843 36.815390309173466 L 214.04707658144957 50.4 L 212.38430780618347 49.44 L 220.2273858680182 35.85539030917347 Z" fill="#ffffff" />
</svg>