<svg xmlns="http://www.w3.org/2000/svg" width="1116.8" height="320.0" xmlns:xlink="http://www.w3.org/1999/xlink"><rect x="0" y="0.0" width="1116.8" height="320.0" fill="#ffffff" /><text x="20.0" y="40.0" font-size="16px" dominant-baseline="middle" text-anchor="start" font-family="Arial" font-weight="normal" fill="#252b3a" >q0: </text><text x="20.0" y="100.0" font-size="16px" dominant-baseline="middle" text-anchor="start" font-family="Arial" font-weight="normal" fill="#252b3a" >q1: </text><text x="20.0" y="160.0" font-size="16px" dominant-baseline="middle" text-anchor="start" font-family="Arial" font-weight="normal" fill="#252b3a" >q2: </text><text x="20.0" y="220.0" font-size="16px" dominant-baseline="middle" text-anchor="start" font-family="Arial" font-weight="normal" fill="#252b3a" >q3: </text><text x="20.0" y="280.0" font-size="16px" dominant-baseline="middle" text-anchor="start" font-family="Arial" font-weight="normal" fill="#252b3a" >q4: </text><line x1="48.8" x2="1096.8" y1="40.0" y2="40.0" stroke="#adb0b8" stroke-width="1" /><line x1="48.8" x2="1096.8" y1="100.0" y2="100.0" stroke="#adb0b8" stroke-width="1" /><line x1="48.8" x2="1096.8" y1="160.0" y2="160.0" stroke="#adb0b8" stroke-width="1" /><line x1="48.8" x2="1096.8" y1="220.0" y2="220.0" stroke="#adb0b8" stroke-width="1" /><line x1="48.8" x2="1096.8" y1="280.0" y2="280.0" stroke="#adb0b8" stroke-width="1" /><rect x="72.8" y="20.0" width="40.0" height="40" rx="4" ry="4" stroke="#ffffff" stroke-width="0" fill="#5e7ce0" fill-opacity="1" /><text x="92.8" y="40.0" font-size="20px" dominant-baseline="middle" text-anchor="middle" font-family="Arial" font-weight="normal" fill="#ffffff" >H </text><rect x="72.8" y="80.0" width="40.0" height="40" rx="4" ry="4" stroke="#ffffff" stroke-width="0" fill="#5e7ce0" fill-opacity="1" /><text x="92.8" y="100.0" font-size="20px" dominant-baseline="middle" text-anchor="middle" font-family="Arial" font-weight="normal" fill="#ffffff" >H </text><rect x="72.8" y="140.0" width="40.0" height="40" rx="4" ry="4" stroke="#ffffff" stroke-width="0" fill="#5e7ce0" fill-opacity="1" /><text x="92.8" y="160.0" font-size="20px" dominant-baseline="middle" text-anchor="middle" font-family="Arial" font-weight="normal" fill="#ffffff" >H </text><rect x="72.8" y="200.0" width="40.0" height="40" rx="4" ry="4" stroke="#ffffff" stroke-width="0" fill="#5e7ce0" fill-opacity="1" /><text x="92.8" y="220.0" font-size="20px" dominant-baseline="middle" text-anchor="middle" font-family="Arial" font-weight="normal" fill="#ffffff" >H </text><rect x="72.8" y="260.0" width="40.0" height="40" rx="4" ry="4" stroke="#ffffff" stroke-width="0" fill="#5e7ce0" fill-opacity="1" /><text x="92.8" y="280.0" font-size="20px" dominant-baseline="middle" text-anchor="middle" font-family="Arial" font-weight="normal" fill="#ffffff" >X </text><circle cx="152.8" cy="220.0" r="4" fill="#5e7ce0" /><line x1="152.8" x2="152.8" y1="220.0" y2="280.0" stroke="#5e7ce0" stroke-width="3" /><rect x="132.8" y="260.0" width="40.0" height="40" rx="4" ry="4" stroke="#ffffff" stroke-width="0" fill="#5e7ce0" fill-opacity="1" /><text x="152.8" y="280.0" font-size="20px" dominant-baseline="middle" text-anchor="middle" font-family="Arial" font-weight="normal" fill="#ffffff" >T^1 </text><circle cx="212.8" cy="160.0" r="4" fill="#5e7ce0" /><line x1="212.8" x2="212.8" y1="160.0" y2="280.0" stroke="#5e7ce0" stroke-width="3" /><rect x="192.8" y="260.0" width="40.0" height="40" rx="4" ry="4" stroke="#ffffff" stroke-width="0" fill="#5e7ce0" fill-opacity="1" /><text x="212.8" y="280.0" font-size="20px" dominant-baseline="middle" text-anchor="middle" font-family="Arial" font-weight="normal" fill="#ffffff" >T^2 </text><circle cx="272.8" cy="100.0" r="4" fill="#5e7ce0" /><line x1="272.8" x2="272.8" y1="100.0" y2="280.0" stroke="#5e7ce0" stroke-width="3" /><rect x="252.8" y="260.0" width="40.0" height="40" rx="4" ry="4" stroke="#ffffff" stroke-width="0" fill="#5e7ce0" fill-opacity="1" /><text x="272.8" y="280.0" font-size="20px" dominant-baseline="middle" text-anchor="middle" font-family="Arial" font-weight="normal" fill="#ffffff" >T^4 </text><circle cx="332.8" cy="40.0" r="4" fill="#5e7ce0" /><line x1="332.8" x2="332.8" y1="40.0" y2="280.0" stroke="#5e7ce0" stroke-width="3" /><rect x="312.8" y="260.0" width="40.0" height="40" rx="4" ry="4" stroke="#ffffff" stroke-width="0" fill="#5e7ce0" fill-opacity="1" /><text x="332.8" y="280.0" font-size="20px" dominant-baseline="middle" text-anchor="middle" font-family="Arial" font-weight="normal" fill="#ffffff" >T^8 </text><rect x="372.8" y="20.0" width="0" height="280" fill="gray" fill-opacity="0.8" /><line x1="392.8" x2="392.8" y1="80.0" y2="180.0" stroke-width="3" stroke="#16acff" /><rect x="372.8" y="80.0" width="40" height="40" rx="4" ry="4" fill="#16acff" fill-opacity="1" stroke="#ffffff" stroke-width="0" /><path d="M 383.2 96.31384387633061 L 388.0 88.0 L 392.8 96.31384387633061 L 389.44 96.31384387633061 L 389.44 112.0 L 386.56 112.0 L 386.56 96.31384387633061 Z" fill="#ffffff" /><path d="M 402.40000000000003 103.68615612366939 L 397.6 112.0 L 392.8 103.68615612366939 L 396.16 103.68615612366939 L 396.16 88.0 L 399.04 88.0 L 399.04 103.68615612366939 Z" fill="#ffffff" /><rect x="372.8" y="140.0" width="40" height="40" rx="4" ry="4" fill="#16acff" fill-opacity="1" stroke="#ffffff" stroke-width="0" /><path d="M 383.2 156.31384387633062 L 388.0 148.0 L 392.8 156.31384387633062 L 389.44 156.31384387633062 L 389.44 172.0 L 386.56 172.0 L 386.56 156.31384387633062 Z" fill="#ffffff" /><path d="M 402.40000000000003 163.68615612366938 L 397.6 172.0 L 392.8 163.68615612366938 L 396.16 163.68615612366938 L 396.16 148.0 L 399.04 148.0 L 399.04 163.68615612366938 Z" fill="#ffffff" /><line x1="452.8" x2="452.8" y1="20.0" y2="240.0" stroke-width="3" stroke="#16acff" /><rect x="432.8" y="20.0" width="40" height="40" rx="4" ry="4" fill="#16acff" fill-opacity="1" stroke="#ffffff" stroke-width="0" /><path d="M 443.2 36.31384387633061 L 448.0 28.0 L 452.8 36.31384387633061 L 449.44 36.31384387633061 L 449.44 52.0 L 446.56 52.0 L 446.56 36.31384387633061 Z" fill="#ffffff" /><path d="M 462.40000000000003 43.68615612366939 L 457.6 52.0 L 452.8 43.68615612366939 L 456.16 43.68615612366939 L 456.16 28.0 L 459.04 28.0 L 459.04 43.68615612366939 Z" fill="#ffffff" /><rect x="432.8" y="200.0" width="40" height="40" rx="4" ry="4" fill="#16acff" fill-opacity="1" stroke="#ffffff" stroke-width="0" /><path d="M 443.2 216.31384387633062 L 448.0 208.0 L 452.8 216.31384387633062 L 449.44 216.31384387633062 L 449.44 232.0 L 446.56 232.0 L 446.56 216.31384387633062 Z" fill="#ffffff" /><path d="M 462.40000000000003 223.68615612366938 L 457.6 232.0 L 452.8 223.68615612366938 L 456.16 223.68615612366938 L 456.16 208.0 L 459.04 208.0 L 459.04 223.68615612366938 Z" fill="#ffffff" /><rect x="492.8" y="200.0" width="40.0" height="40" rx="4" ry="4" stroke="#ffffff" stroke-width="0" fill="#5e7ce0" fill-opacity="1" /><text x="512.8" y="220.0" font-size="20px" dominant-baseline="middle" text-anchor="middle" font-family="Arial" font-weight="normal" fill="#ffffff" >H </text><circle cx="572.8" cy="220.0" r="4" fill="#fac209" /><line x1="572.8" x2="572.8" y1="160.0" y2="220.0" stroke="#fac209" stroke-width="3" /><rect x="552.8" y="140.0" width="40.0" height="40" rx="4" ry="4" stroke="#ffffff" stroke-width="0" fill="#fac209" fill-opacity="1" /><text x="572.8" y="156.0" font-size="20px" dominant-baseline="middle" text-anchor="middle" font-family="Arial" font-weight="normal" fill="#ffffff" >PS </text><text x="572.8" y="172.0" font-size="14.0px" dominant-baseline="middle" text-anchor="middle" font-family="Arial" font-weight="normal" fill="#ffffff" >-π/2 </text><rect x="612.8" y="140.0" width="40.0" height="40" rx="4" ry="4" stroke="#ffffff" stroke-width="0" fill="#5e7ce0" fill-opacity="1" /><text x="632.8" y="160.0" font-size="20px" dominant-baseline="middle" text-anchor="middle" font-family="Arial" font-weight="normal" fill="#ffffff" >H </text><circle cx="692.8" cy="220.0" r="4" fill="#fac209" /><line x1="692.8" x2="692.8" y1="100.0" y2="220.0" stroke="#fac209" stroke-width="3" /><rect x="672.8" y="80.0" width="40.0" height="40" rx="4" ry="4" stroke="#ffffff" stroke-width="0" fill="#fac209" fill-opacity="1" /><text x="692.8" y="96.0" font-size="20px" dominant-baseline="middle" text-anchor="middle" font-family="Arial" font-weight="normal" fill="#ffffff" >PS </text><text x="692.8" y="112.0" font-size="14.0px" dominant-baseline="middle" text-anchor="middle" font-family="Arial" font-weight="normal" fill="#ffffff" >-π/4 </text><circle cx="752.8" cy="160.0" r="4" fill="#fac209" /><line x1="752.8" x2="752.8" y1="100.0" y2="160.0" stroke="#fac209" stroke-width="3" /><rect x="732.8" y="80.0" width="40.0" height="40" rx="4" ry="4" stroke="#ffffff" stroke-width="0" fill="#fac209" fill-opacity="1" /><text x="752.8" y="96.0" font-size="20px" dominant-baseline="middle" text-anchor="middle" font-family="Arial" font-weight="normal" fill="#ffffff" >PS </text><text x="752.8" y="112.0" font-size="14.0px" dominant-baseline="middle" text-anchor="middle" font-family="Arial" font-weight="normal" fill="#ffffff" >-π/2 </text><rect x="792.8" y="80.0" width="40.0" height="40" rx="4" ry="4" stroke="#ffffff" stroke-width="0" fill="#5e7ce0" fill-opacity="1" /><text x="812.8" y="100.0" font-size="20px" dominant-baseline="middle" text-anchor="middle" font-family="Arial" font-weight="normal" fill="#ffffff" >H </text><circle cx="872.8" cy="220.0" r="4" fill="#fac209" /><line x1="872.8" x2="872.8" y1="40.0" y2="220.0" stroke="#fac209" stroke-width="3" /><rect x="852.8" y="20.0" width="40.0" height="40" rx="4" ry="4" stroke="#ffffff" stroke-width="0" fill="#fac209" fill-opacity="1" /><text x="872.8" y="36.0" font-size="20px" dominant-baseline="middle" text-anchor="middle" font-family="Arial" font-weight="normal" fill="#ffffff" >PS </text><text x="872.8" y="52.0" font-size="14.0px" dominant-baseline="middle" text-anchor="middle" font-family="Arial" font-weight="normal" fill="#ffffff" >-π/8 </text><circle cx="932.8" cy="160.0" r="4" fill="#fac209" /><line x1="932.8" x2="932.8" y1="40.0" y2="160.0" stroke="#fac209" stroke-width="3" /><rect x="912.8" y="20.0" width="40.0" height="40" rx="4" ry="4" stroke="#ffffff" stroke-width="0" fill="#fac209" fill-opacity="1" /><text x="932.8" y="36.0" font-size="20px" dominant-baseline="middle" text-anchor="middle" font-family="Arial" font-weight="normal" fill="#ffffff" >PS </text><text x="932.8" y="52.0" font-size="14.0px" dominant-baseline="middle" text-anchor="middle" font-family="Arial" font-weight="normal" fill="#ffffff" >-π/4 </text><circle cx="992.8" cy="100.0" r="4" fill="#fac209" /><line x1="992.8" x2="992.8" y1="40.0" y2="100.0" stroke="#fac209" stroke-width="3" /><rect x="972.8" y="20.0" width="40.0" height="40" rx="4" ry="4" stroke="#ffffff" stroke-width="0" fill="#fac209" fill-opacity="1" /><text x="992.8" y="36.0" font-size="20px" dominant-baseline="middle" text-anchor="middle" font-family="Arial" font-weight="normal" fill="#ffffff" >PS </text><text x="992.8" y="52.0" font-size="14.0px" dominant-baseline="middle" text-anchor="middle" font-family="Arial" font-weight="normal" fill="#ffffff" >-π/2 </text><rect x="1032.8" y="20.0" width="40.0" height="40" rx="4" ry="4" stroke="#ffffff" stroke-width="0" fill="#5e7ce0" fill-opacity="1" /><text x="1052.8" y="40.0" font-size="20px" dominant-baseline="middle" text-anchor="middle" font-family="Arial" font-weight="normal" fill="#ffffff" >H </text></svg>