<svg xmlns="http://www.w3.org/2000/svg" width="324.0" height="204" xmlns:xlink="http://www.w3.org/1999/xlink"><rect x="0" y="0" width="324.0" height="204" fill="#ffffff" /><line x1="72.0" x2="72.0" y1="132.0" y2="192.0" stroke="#ababab" stroke-width="8" /><line x1="12.0" x2="72.0" y1="132.0" y2="132.0" stroke="#ababab" stroke-width="8" /><line x1="132.0" x2="132.0" y1="72.0" y2="132.0" stroke="#ababab" stroke-width="8" /><line x1="192.0" x2="252.0" y1="72.0" y2="72.0" stroke="#ababab" stroke-width="8" /><line x1="12.0" x2="12.0" y1="132.0" y2="192.0" stroke="#ababab" stroke-width="8" /><line x1="12.0" x2="72.0" y1="192.0" y2="192.0" stroke="#ababab" stroke-width="8" /><line x1="192.0" x2="252.0" y1="192.0" y2="192.0" stroke="#ababab" stroke-width="8" /><line x1="72.0" x2="132.0" y1="12.0" y2="12.0" stroke="#ababab" stroke-width="8" /><line x1="72.0" x2="132.0" y1="192.0" y2="192.0" stroke="#ababab" stroke-width="8" /><line x1="312.0" x2="252.0" y1="42.0" y2="72.0" stroke="#ababab" stroke-width="8" /><line x1="132.0" x2="132.0" y1="132.0" y2="192.0" stroke="#ababab" stroke-width="8" /><line x1="192.0" x2="312.0" y1="12.0" y2="42.0" stroke="#ababab" stroke-width="8" /><line x1="252.0" x2="252.0" y1="72.0" y2="132.0" stroke="#ababab" stroke-width="8" /><line x1="252.0" x2="252.0" y1="132.0" y2="192.0" stroke="#ababab" stroke-width="8" /><line x1="12.0" x2="12.0" y1="12.0" y2="72.0" stroke="#ababab" stroke-width="8" /><line x1="132.0" x2="192.0" y1="12.0" y2="12.0" stroke="#ababab" stroke-width="8" /><line x1="72.0" x2="132.0" y1="132.0" y2="132.0" stroke="#ababab" stroke-width="8" /><line x1="12.0" x2="72.0" y1="12.0" y2="12.0" stroke="#ababab" stroke-width="8" /><line x1="132.0" x2="132.0" y1="12.0" y2="72.0" stroke="#ababab" stroke-width="8" /><line x1="132.0" x2="192.0" y1="192.0" y2="192.0" stroke="#ababab" stroke-width="8" /><line x1="12.0" x2="12.0" y1="72.0" y2="132.0" stroke="#ababab" stroke-width="8" /><line x1="192.0" x2="192.0" y1="12.0" y2="72.0" stroke="#ababab" stroke-width="8" /><line x1="132.0" x2="192.0" y1="72.0" y2="72.0" stroke="#ababab" stroke-width="8" /><circle cx="12.0" cy="12.0" r="12" fill="#000000" /><text x="12.0" y="12.0" font-size="18px" dominant-baseline="middle" text-anchor="middle" fill="#ffffff" >0 </text><circle cx="72.0" cy="12.0" r="12" fill="#000000" /><text x="72.0" y="12.0" font-size="18px" dominant-baseline="middle" text-anchor="middle" fill="#ffffff" >1 </text><circle cx="132.0" cy="12.0" r="12" fill="#000000" /><text x="132.0" y="12.0" font-size="18px" dominant-baseline="middle" text-anchor="middle" fill="#ffffff" >2 </text><circle cx="192.0" cy="12.0" r="12" fill="#000000" /><text x="192.0" y="12.0" font-size="18px" dominant-baseline="middle" text-anchor="middle" fill="#ffffff" >3 </text><circle cx="312.0" cy="42.0" r="12" fill="#000000" /><text x="312.0" y="42.0" font-size="18px" dominant-baseline="middle" text-anchor="middle" fill="#ffffff" >4 </text><circle cx="12.0" cy="72.0" r="12" fill="#000000" /><text x="12.0" y="72.0" font-size="18px" dominant-baseline="middle" text-anchor="middle" fill="#ffffff" >5 </text><circle cx="132.0" cy="72.0" r="12" fill="#ff0000" /><text x="132.0" y="72.0" font-size="18px" dominant-baseline="middle" text-anchor="middle" fill="#ffffff" >7 </text><circle cx="192.0" cy="72.0" r="12" fill="#000000" /><text x="192.0" y="72.0" font-size="18px" dominant-baseline="middle" text-anchor="middle" fill="#ffffff" >8 </text><circle cx="252.0" cy="72.0" r="12" fill="#000000" /><text x="252.0" y="72.0" font-size="18px" dominant-baseline="middle" text-anchor="middle" fill="#ffffff" >9 </text><circle cx="12.0" cy="132.0" r="12" fill="#000000" /><text x="12.0" y="132.0" font-size="18px" dominant-baseline="middle" text-anchor="middle" fill="#ffffff" >10 </text><circle cx="72.0" cy="132.0" r="12" fill="#000000" /><text x="72.0" y="132.0" font-size="18px" dominant-baseline="middle" text-anchor="middle" fill="#ffffff" >11 </text><circle cx="132.0" cy="132.0" r="12" fill="#000000" /><text x="132.0" y="132.0" font-size="18px" dominant-baseline="middle" text-anchor="middle" fill="#ffffff" >12 </text><circle cx="192.0" cy="132.0" r="12" fill="#000000" /><text x="192.0" y="132.0" font-size="18px" dominant-baseline="middle" text-anchor="middle" fill="#ffffff" >13 </text><circle cx="252.0" cy="132.0" r="12" fill="#000000" /><text x="252.0" y="132.0" font-size="18px" dominant-baseline="middle" text-anchor="middle" fill="#ffffff" >14 </text><circle cx="12.0" cy="192.0" r="12" fill="#000000" /><text x="12.0" y="192.0" font-size="18px" dominant-baseline="middle" text-anchor="middle" fill="#ffffff" >15 </text><circle cx="72.0" cy="192.0" r="12" fill="#000000" /><text x="72.0" y="192.0" font-size="18px" dominant-baseline="middle" text-anchor="middle" fill="#ffffff" >16 </text><circle cx="132.0" cy="192.0" r="12" fill="#000000" /><text x="132.0" y="192.0" font-size="18px" dominant-baseline="middle" text-anchor="middle" fill="#ffffff" >17 </text><circle cx="192.0" cy="192.0" r="12" fill="#000000" /><text x="192.0" y="192.0" font-size="18px" dominant-baseline="middle" text-anchor="middle" fill="#ffffff" >18 </text><circle cx="252.0" cy="192.0" r="12" fill="#000000" /><text x="252.0" y="192.0" font-size="18px" dominant-baseline="middle" text-anchor="middle" fill="#ffffff" >19 </text></svg>