<svg xmlns="http://www.w3.org/2000/svg" width="216.8" height="248.0" xmlns:xlink="http://www.w3.org/1999/xlink">
<rect x="0" y="0" width="216.8" height="248.0" fill="#ffffff" />
<text x="20.0" y="40.0" font-size="16px" dominant-baseline="middle" text-anchor="start" font-family="Arial" font-weight="normal" fill="#252b3a" >
q0:
 </text>
<text x="20.0" y="100.0" font-size="16px" dominant-baseline="middle" text-anchor="start" font-family="Arial" font-weight="normal" fill="#252b3a" >
q1:
 </text>
<text x="20.0" y="160.0" font-size="16px" dominant-baseline="middle" text-anchor="start" font-family="Arial" font-weight="normal" fill="#252b3a" >
q2:
 </text>
<text x="20.0" y="220.0" font-size="16px" dominant-baseline="middle" text-anchor="start" font-family="Arial" font-weight="normal" fill="#252b3a" >
q3:
 </text>
<line x1="48.8" x2="196.8" y1="40.0" y2="40.0" stroke="#adb0b8" stroke-width="1" />
<line x1="48.8" x2="196.8" y1="100.0" y2="100.0" stroke="#adb0b8" stroke-width="1" />
<line x1="48.8" x2="196.8" y1="160.0" y2="160.0" stroke="#adb0b8" stroke-width="1" />
<line x1="48.8" x2="196.8" y1="220.0" y2="220.0" stroke="#adb0b8" stroke-width="1" />
<circle cx="92.8" cy="160.0" r="4" fill="#16acff" />
<line x1="92.8" x2="92.8" y1="40.0" y2="160.0" stroke="#16acff" stroke-width="3" />
<rect x="72.8" y="20.0" width="40" height="40" rx="4" ry="4" stroke="#ffffff" stroke-width="0" fill="#16acff" fill-opacity="1" />
<line x1="78.8" x2="106.8" y1="40.0" y2="40.0" stroke="#ffffff" stroke-width="4" />
<line x1="92.8" x2="92.8" y1="26.0" y2="54.0" stroke="#ffffff" stroke-width="4" />
<circle cx="152.8" cy="220.0" r="4" fill="#16acff" />
<line x1="152.8" x2="152.8" y1="100.0" y2="220.0" stroke="#16acff" stroke-width="3" />
<rect x="132.8" y="80.0" width="40" height="40" rx="4" ry="4" stroke="#ffffff" stroke-width="0" fill="#16acff" fill-opacity="1" />
<line x1="138.8" x2="166.8" y1="100.0" y2="100.0" stroke="#ffffff" stroke-width="4" />
<line x1="152.8" x2="152.8" y1="86.0" y2="114.0" stroke="#ffffff" stroke-width="4" />
</svg>