<svg xmlns="http://www.w3.org/2000/svg" width="1476.8" height="200" xmlns:xlink="http://www.w3.org/1999/xlink">
<rect x="0" y="0" width="1476.8" height="200" fill="#ffffff" />
<text x="20.0" y="40.0" font-size="16px" dominant-baseline="middle" text-anchor="start" font-family="Arial" font-weight="normal" fill="#252b3a" >
q0:
 </text>
<text x="20.0" y="100.0" font-size="16px" dominant-baseline="middle" text-anchor="start" font-family="Arial" font-weight="normal" fill="#252b3a" >
q1:
 </text>
<text x="20.0" y="160.0" font-size="16px" dominant-baseline="middle" text-anchor="start" font-family="Arial" font-weight="normal" fill="#252b3a" >
q2:
 </text>
<line x1="48.8" x2="1456.8" y1="40.0" y2="40.0" stroke="#adb0b8" stroke-width="1" />
<line x1="48.8" x2="1456.8" y1="100.0" y2="100.0" stroke="#adb0b8" stroke-width="1" />
<line x1="48.8" x2="1456.8" y1="160.0" y2="160.0" stroke="#adb0b8" stroke-width="1" />

<rect x="72.8" y="20.0" width="40.0" height="40" rx="4" ry="4" stroke="#ffffff" stroke-width="0" fill="#5e7ce0" fill-opacity="1" />
<text x="92.8" y="40.0" font-size="20px" dominant-baseline="middle" text-anchor="middle" font-family="Arial" font-weight="normal" fill="#ffffff" >
H
 </text>


<rect x="72.8" y="80.0" width="40.0" height="40" rx="4" ry="4" stroke="#ffffff" stroke-width="0" fill="#5e7ce0" fill-opacity="1" />
<text x="92.8" y="100.0" font-size="20px" dominant-baseline="middle" text-anchor="middle" font-family="Arial" font-weight="normal" fill="#ffffff" >
H
 </text>


<rect x="72.8" y="140.0" width="40.0" height="40" rx="4" ry="4" stroke="#ffffff" stroke-width="0" fill="#5e7ce0" fill-opacity="1" />
<text x="92.8" y="160.0" font-size="20px" dominant-baseline="middle" text-anchor="middle" font-family="Arial" font-weight="normal" fill="#ffffff" >
H
 </text>


<rect x="132.8" y="80.0" width="40.0" height="40" rx="4" ry="4" stroke="#ffffff" stroke-width="0" fill="#5e7ce0" fill-opacity="1" />
<text x="152.8" y="100.0" font-size="20px" dominant-baseline="middle" text-anchor="middle" font-family="Arial" font-weight="normal" fill="#ffffff" >
Z
 </text>

<circle cx="212.8" cy="40.0" r="4" fill="#5e7ce0" />
<line x1="212.8" x2="212.8" y1="40.0" y2="100.0" stroke="#5e7ce0" stroke-width="3" />
<rect x="192.8" y="80.0" width="40.0" height="40" rx="4" ry="4" stroke="#ffffff" stroke-width="0" fill="#5e7ce0" fill-opacity="1" />
<text x="212.8" y="100.0" font-size="20px" dominant-baseline="middle" text-anchor="middle" font-family="Arial" font-weight="normal" fill="#ffffff" >
Z
 </text>

<circle cx="272.8" cy="100.0" r="4" fill="#5e7ce0" />
<line x1="272.8" x2="272.8" y1="100.0" y2="160.0" stroke="#5e7ce0" stroke-width="3" />
<rect x="252.8" y="140.0" width="40.0" height="40" rx="4" ry="4" stroke="#ffffff" stroke-width="0" fill="#5e7ce0" fill-opacity="1" />
<text x="272.8" y="160.0" font-size="20px" dominant-baseline="middle" text-anchor="middle" font-family="Arial" font-weight="normal" fill="#ffffff" >
Z
 </text>

<circle cx="332.8" cy="40.0" r="4" fill="#5e7ce0" />
<circle cx="332.8" cy="100.0" r="4" fill="#5e7ce0" />
<line x1="332.8" x2="332.8" y1="40.0" y2="160.0" stroke="#5e7ce0" stroke-width="3" />
<rect x="312.8" y="140.0" width="40.0" height="40" rx="4" ry="4" stroke="#ffffff" stroke-width="0" fill="#5e7ce0" fill-opacity="1" />
<text x="332.8" y="160.0" font-size="20px" dominant-baseline="middle" text-anchor="middle" font-family="Arial" font-weight="normal" fill="#ffffff" >
Z
 </text>


<rect x="372.8" y="20.0" width="40.0" height="40" rx="4" ry="4" stroke="#ffffff" stroke-width="0" fill="#5e7ce0" fill-opacity="1" />
<text x="392.8" y="40.0" font-size="20px" dominant-baseline="middle" text-anchor="middle" font-family="Arial" font-weight="normal" fill="#ffffff" >
H
 </text>


<rect x="372.8" y="80.0" width="40.0" height="40" rx="4" ry="4" stroke="#ffffff" stroke-width="0" fill="#5e7ce0" fill-opacity="1" />
<text x="392.8" y="100.0" font-size="20px" dominant-baseline="middle" text-anchor="middle" font-family="Arial" font-weight="normal" fill="#ffffff" >
H
 </text>


<rect x="372.8" y="140.0" width="40.0" height="40" rx="4" ry="4" stroke="#ffffff" stroke-width="0" fill="#5e7ce0" fill-opacity="1" />
<text x="392.8" y="160.0" font-size="20px" dominant-baseline="middle" text-anchor="middle" font-family="Arial" font-weight="normal" fill="#ffffff" >
H
 </text>


<rect x="432.8" y="20.0" width="40.0" height="40" rx="4" ry="4" stroke="#ffffff" stroke-width="0" fill="#5e7ce0" fill-opacity="1" />
<text x="452.8" y="40.0" font-size="20px" dominant-baseline="middle" text-anchor="middle" font-family="Arial" font-weight="normal" fill="#ffffff" >
Z
 </text>


<rect x="432.8" y="80.0" width="40.0" height="40" rx="4" ry="4" stroke="#ffffff" stroke-width="0" fill="#5e7ce0" fill-opacity="1" />
<text x="452.8" y="100.0" font-size="20px" dominant-baseline="middle" text-anchor="middle" font-family="Arial" font-weight="normal" fill="#ffffff" >
Z
 </text>

<circle cx="512.8" cy="40.0" r="4" fill="#5e7ce0" />
<line x1="512.8" x2="512.8" y1="40.0" y2="100.0" stroke="#5e7ce0" stroke-width="3" />
<rect x="492.8" y="80.0" width="40.0" height="40" rx="4" ry="4" stroke="#ffffff" stroke-width="0" fill="#5e7ce0" fill-opacity="1" />
<text x="512.8" y="100.0" font-size="20px" dominant-baseline="middle" text-anchor="middle" font-family="Arial" font-weight="normal" fill="#ffffff" >
Z
 </text>


<rect x="432.8" y="140.0" width="40.0" height="40" rx="4" ry="4" stroke="#ffffff" stroke-width="0" fill="#5e7ce0" fill-opacity="1" />
<text x="452.8" y="160.0" font-size="20px" dominant-baseline="middle" text-anchor="middle" font-family="Arial" font-weight="normal" fill="#ffffff" >
Z
 </text>

<circle cx="572.8" cy="40.0" r="4" fill="#5e7ce0" />
<line x1="572.8" x2="572.8" y1="40.0" y2="160.0" stroke="#5e7ce0" stroke-width="3" />
<rect x="552.8" y="140.0" width="40.0" height="40" rx="4" ry="4" stroke="#ffffff" stroke-width="0" fill="#5e7ce0" fill-opacity="1" />
<text x="572.8" y="160.0" font-size="20px" dominant-baseline="middle" text-anchor="middle" font-family="Arial" font-weight="normal" fill="#ffffff" >
Z
 </text>

<circle cx="632.8" cy="100.0" r="4" fill="#5e7ce0" />
<line x1="632.8" x2="632.8" y1="100.0" y2="160.0" stroke="#5e7ce0" stroke-width="3" />
<rect x="612.8" y="140.0" width="40.0" height="40" rx="4" ry="4" stroke="#ffffff" stroke-width="0" fill="#5e7ce0" fill-opacity="1" />
<text x="632.8" y="160.0" font-size="20px" dominant-baseline="middle" text-anchor="middle" font-family="Arial" font-weight="normal" fill="#ffffff" >
Z
 </text>

<circle cx="692.8" cy="40.0" r="4" fill="#5e7ce0" />
<circle cx="692.8" cy="100.0" r="4" fill="#5e7ce0" />
<line x1="692.8" x2="692.8" y1="40.0" y2="160.0" stroke="#5e7ce0" stroke-width="3" />
<rect x="672.8" y="140.0" width="40.0" height="40" rx="4" ry="4" stroke="#ffffff" stroke-width="0" fill="#5e7ce0" fill-opacity="1" />
<text x="692.8" y="160.0" font-size="20px" dominant-baseline="middle" text-anchor="middle" font-family="Arial" font-weight="normal" fill="#ffffff" >
Z
 </text>


<rect x="732.8" y="20.0" width="40.0" height="40" rx="4" ry="4" stroke="#ffffff" stroke-width="0" fill="#5e7ce0" fill-opacity="1" />
<text x="752.8" y="40.0" font-size="20px" dominant-baseline="middle" text-anchor="middle" font-family="Arial" font-weight="normal" fill="#ffffff" >
H
 </text>


<rect x="732.8" y="80.0" width="40.0" height="40" rx="4" ry="4" stroke="#ffffff" stroke-width="0" fill="#5e7ce0" fill-opacity="1" />
<text x="752.8" y="100.0" font-size="20px" dominant-baseline="middle" text-anchor="middle" font-family="Arial" font-weight="normal" fill="#ffffff" >
H
 </text>


<rect x="732.8" y="140.0" width="40.0" height="40" rx="4" ry="4" stroke="#ffffff" stroke-width="0" fill="#5e7ce0" fill-opacity="1" />
<text x="752.8" y="160.0" font-size="20px" dominant-baseline="middle" text-anchor="middle" font-family="Arial" font-weight="normal" fill="#ffffff" >
H
 </text>


<rect x="792.8" y="80.0" width="40.0" height="40" rx="4" ry="4" stroke="#ffffff" stroke-width="0" fill="#5e7ce0" fill-opacity="1" />
<text x="812.8" y="100.0" font-size="20px" dominant-baseline="middle" text-anchor="middle" font-family="Arial" font-weight="normal" fill="#ffffff" >
Z
 </text>

<circle cx="872.8" cy="40.0" r="4" fill="#5e7ce0" />
<line x1="872.8" x2="872.8" y1="40.0" y2="100.0" stroke="#5e7ce0" stroke-width="3" />
<rect x="852.8" y="80.0" width="40.0" height="40" rx="4" ry="4" stroke="#ffffff" stroke-width="0" fill="#5e7ce0" fill-opacity="1" />
<text x="872.8" y="100.0" font-size="20px" dominant-baseline="middle" text-anchor="middle" font-family="Arial" font-weight="normal" fill="#ffffff" >
Z
 </text>

<circle cx="932.8" cy="100.0" r="4" fill="#5e7ce0" />
<line x1="932.8" x2="932.8" y1="100.0" y2="160.0" stroke="#5e7ce0" stroke-width="3" />
<rect x="912.8" y="140.0" width="40.0" height="40" rx="4" ry="4" stroke="#ffffff" stroke-width="0" fill="#5e7ce0" fill-opacity="1" />
<text x="932.8" y="160.0" font-size="20px" dominant-baseline="middle" text-anchor="middle" font-family="Arial" font-weight="normal" fill="#ffffff" >
Z
 </text>

<circle cx="992.8" cy="40.0" r="4" fill="#5e7ce0" />
<circle cx="992.8" cy="100.0" r="4" fill="#5e7ce0" />
<line x1="992.8" x2="992.8" y1="40.0" y2="160.0" stroke="#5e7ce0" stroke-width="3" />
<rect x="972.8" y="140.0" width="40.0" height="40" rx="4" ry="4" stroke="#ffffff" stroke-width="0" fill="#5e7ce0" fill-opacity="1" />
<text x="992.8" y="160.0" font-size="20px" dominant-baseline="middle" text-anchor="middle" font-family="Arial" font-weight="normal" fill="#ffffff" >
Z
 </text>


<rect x="1032.8" y="20.0" width="40.0" height="40" rx="4" ry="4" stroke="#ffffff" stroke-width="0" fill="#5e7ce0" fill-opacity="1" />
<text x="1052.8" y="40.0" font-size="20px" dominant-baseline="middle" text-anchor="middle" font-family="Arial" font-weight="normal" fill="#ffffff" >
H
 </text>


<rect x="1032.8" y="80.0" width="40.0" height="40" rx="4" ry="4" stroke="#ffffff" stroke-width="0" fill="#5e7ce0" fill-opacity="1" />
<text x="1052.8" y="100.0" font-size="20px" dominant-baseline="middle" text-anchor="middle" font-family="Arial" font-weight="normal" fill="#ffffff" >
H
 </text>


<rect x="1032.8" y="140.0" width="40.0" height="40" rx="4" ry="4" stroke="#ffffff" stroke-width="0" fill="#5e7ce0" fill-opacity="1" />
<text x="1052.8" y="160.0" font-size="20px" dominant-baseline="middle" text-anchor="middle" font-family="Arial" font-weight="normal" fill="#ffffff" >
H
 </text>


<rect x="1092.8" y="20.0" width="40.0" height="40" rx="4" ry="4" stroke="#ffffff" stroke-width="0" fill="#5e7ce0" fill-opacity="1" />
<text x="1112.8" y="40.0" font-size="20px" dominant-baseline="middle" text-anchor="middle" font-family="Arial" font-weight="normal" fill="#ffffff" >
Z
 </text>


<rect x="1092.8" y="80.0" width="40.0" height="40" rx="4" ry="4" stroke="#ffffff" stroke-width="0" fill="#5e7ce0" fill-opacity="1" />
<text x="1112.8" y="100.0" font-size="20px" dominant-baseline="middle" text-anchor="middle" font-family="Arial" font-weight="normal" fill="#ffffff" >
Z
 </text>

<circle cx="1172.8" cy="40.0" r="4" fill="#5e7ce0" />
<line x1="1172.8" x2="1172.8" y1="40.0" y2="100.0" stroke="#5e7ce0" stroke-width="3" />
<rect x="1152.8" y="80.0" width="40.0" height="40" rx="4" ry="4" stroke="#ffffff" stroke-width="0" fill="#5e7ce0" fill-opacity="1" />
<text x="1172.8" y="100.0" font-size="20px" dominant-baseline="middle" text-anchor="middle" font-family="Arial" font-weight="normal" fill="#ffffff" >
Z
 </text>


<rect x="1092.8" y="140.0" width="40.0" height="40" rx="4" ry="4" stroke="#ffffff" stroke-width="0" fill="#5e7ce0" fill-opacity="1" />
<text x="1112.8" y="160.0" font-size="20px" dominant-baseline="middle" text-anchor="middle" font-family="Arial" font-weight="normal" fill="#ffffff" >
Z
 </text>

<circle cx="1232.8" cy="40.0" r="4" fill="#5e7ce0" />
<line x1="1232.8" x2="1232.8" y1="40.0" y2="160.0" stroke="#5e7ce0" stroke-width="3" />
<rect x="1212.8" y="140.0" width="40.0" height="40" rx="4" ry="4" stroke="#ffffff" stroke-width="0" fill="#5e7ce0" fill-opacity="1" />
<text x="1232.8" y="160.0" font-size="20px" dominant-baseline="middle" text-anchor="middle" font-family="Arial" font-weight="normal" fill="#ffffff" >
Z
 </text>

<circle cx="1292.8" cy="100.0" r="4" fill="#5e7ce0" />
<line x1="1292.8" x2="1292.8" y1="100.0" y2="160.0" stroke="#5e7ce0" stroke-width="3" />
<rect x="1272.8" y="140.0" width="40.0" height="40" rx="4" ry="4" stroke="#ffffff" stroke-width="0" fill="#5e7ce0" fill-opacity="1" />
<text x="1292.8" y="160.0" font-size="20px" dominant-baseline="middle" text-anchor="middle" font-family="Arial" font-weight="normal" fill="#ffffff" >
Z
 </text>

<circle cx="1352.8" cy="40.0" r="4" fill="#5e7ce0" />
<circle cx="1352.8" cy="100.0" r="4" fill="#5e7ce0" />
<line x1="1352.8" x2="1352.8" y1="40.0" y2="160.0" stroke="#5e7ce0" stroke-width="3" />
<rect x="1332.8" y="140.0" width="40.0" height="40" rx="4" ry="4" stroke="#ffffff" stroke-width="0" fill="#5e7ce0" fill-opacity="1" />
<text x="1352.8" y="160.0" font-size="20px" dominant-baseline="middle" text-anchor="middle" font-family="Arial" font-weight="normal" fill="#ffffff" >
Z
 </text>


<rect x="1392.8" y="20.0" width="40.0" height="40" rx="4" ry="4" stroke="#ffffff" stroke-width="0" fill="#5e7ce0" fill-opacity="1" />
<text x="1412.8" y="40.0" font-size="20px" dominant-baseline="middle" text-anchor="middle" font-family="Arial" font-weight="normal" fill="#ffffff" >
H
 </text>


<rect x="1392.8" y="80.0" width="40.0" height="40" rx="4" ry="4" stroke="#ffffff" stroke-width="0" fill="#5e7ce0" fill-opacity="1" />
<text x="1412.8" y="100.0" font-size="20px" dominant-baseline="middle" text-anchor="middle" font-family="Arial" font-weight="normal" fill="#ffffff" >
H
 </text>


<rect x="1392.8" y="140.0" width="40.0" height="40" rx="4" ry="4" stroke="#ffffff" stroke-width="0" fill="#5e7ce0" fill-opacity="1" />
<text x="1412.8" y="160.0" font-size="20px" dominant-baseline="middle" text-anchor="middle" font-family="Arial" font-weight="normal" fill="#ffffff" >
H
 </text>

</svg>